<svg width="147" height="157" viewBox="0 0 147 157" fill="none" xmlns="http://www.w3.org/2000/svg">
<path d="M157.13 168.724L148.023 42.532C147.339 33.0588 136.663 27.8788 128.792 33.2075L24.0548 104.19C16.1929 109.519 17.0479 121.363 25.5941 125.508L139.424 180.714C147.986 184.861 157.816 178.193 157.13 168.724Z" fill="#EE786B"/>
<path d="M95.419 82.81C89.1127 82.6026 83.8438 77.7686 82.9538 71.3713L80.7189 55.328L89.1236 54.156C89.757 54.0813 92.4087 53.8393 94.7893 55.6811C95.7357 56.4091 96.5328 57.4028 97.2172 58.8807C98.5567 61.7745 104.228 76.7731 98.0252 81.6034C97.2572 82.1947 96.3668 82.6069 95.419 82.81Z" fill="#343434"/>
<path d="M122.362 157.769H71.8573L67.7769 96.2525C74.8961 93.1365 82.3509 90.8519 89.9936 89.4439C100.914 87.4419 109.562 87.3582 117.379 88.3301C119.043 111.526 120.697 134.573 122.362 157.769Z" fill="#2A3156"/>
<path d="M94.953 82.2057L92.951 76.7112C94.9221 76.6311 96.4982 74.9185 96.4982 72.8109C96.4982 70.6506 94.8475 68.9015 92.8091 68.9015C91.9354 68.9038 91.0931 69.2277 90.4431 69.8115L86.6739 59.4539L71.2202 64.428C70.504 64.6581 69.8401 65.0271 69.2666 65.514C68.6931 66.0008 68.2211 66.5959 67.8776 67.2652C67.5342 67.9345 67.326 68.665 67.265 69.4148C67.2039 70.1646 67.2913 70.9191 67.522 71.6352L71.708 84.6427C72.3454 86.6148 73.7391 88.2536 75.5833 89.1994C77.4275 90.1452 79.5716 90.3208 81.5451 89.6878L83.7928 88.6831L85.671 92.698C85.7519 92.8755 85.8922 93.0191 86.0678 93.1039C89.3311 94.6727 92.9729 94.2887 95.2151 92.1939C96.7639 90.7506 97.6212 89.4512 97.8687 88.6012C97.923 88.4022 97.9016 88.1902 97.8086 88.0061L94.953 82.2057Z" fill="white"/>
<path d="M83.7964 88.6904L90.5704 85.5964C90.6154 85.5768 90.6657 85.5732 90.713 85.5861C90.7603 85.599 90.8018 85.6278 90.8305 85.6675C90.8592 85.7073 90.8734 85.7557 90.8708 85.8047C90.8682 85.8537 90.8489 85.9003 90.8161 85.9368L85.2833 91.87L83.7964 88.6904Z" fill="#343434"/>
<path d="M92.4996 74.4271C92.2379 74.4275 91.9819 74.3502 91.764 74.205C91.5462 74.0598 91.3763 73.8533 91.2759 73.6116C91.1755 73.3698 91.149 73.1037 91.1999 72.8469C91.2507 72.5902 91.3766 72.3542 91.5616 72.169C91.7465 71.9838 91.9823 71.8576 92.239 71.8064C92.4957 71.7552 92.7619 71.7813 93.0037 71.8814C93.2456 71.9815 93.4524 72.151 93.5979 72.3687C93.7433 72.5863 93.821 72.8422 93.821 73.104C93.821 73.4546 93.6818 73.7908 93.4341 74.0389C93.1863 74.287 92.8502 74.4266 92.4996 74.4271ZM92.4996 72.5106C92.3818 72.5103 92.2665 72.5449 92.1683 72.6102C92.0702 72.6754 91.9936 72.7684 91.9483 72.8772C91.9031 72.986 91.8911 73.1058 91.914 73.2214C91.9369 73.3371 91.9937 73.4433 92.077 73.5266C92.1603 73.6099 92.2665 73.6667 92.3822 73.6896C92.4978 73.7125 92.6176 73.7005 92.7264 73.6553C92.8352 73.61 92.9282 73.5334 92.9934 73.4353C93.0587 73.3371 93.0933 73.2218 93.093 73.104C93.093 72.9466 93.0305 72.7957 92.9192 72.6844C92.8079 72.5732 92.657 72.5106 92.4996 72.5106Z" fill="#343434"/>
<path d="M91.5679 73.69C91.4782 73.6906 91.3914 73.658 91.3242 73.5986C91.257 73.5391 91.2142 73.4569 91.2039 73.3678C91.1111 72.5798 91.2912 71.9428 91.739 71.4714C92.5798 70.585 94.054 70.6669 94.1159 70.6706C94.2124 70.6766 94.3026 70.7208 94.3666 70.7933C94.4306 70.8658 94.4632 70.9608 94.4571 71.0573C94.4511 71.1539 94.4069 71.2441 94.3344 71.3081C94.2619 71.3721 94.1669 71.4046 94.0704 71.3986C94.0595 71.3986 92.8692 71.3349 92.2649 71.9737C91.9701 72.2849 91.8609 72.7126 91.9264 73.2841C91.9372 73.3796 91.9097 73.4755 91.8501 73.5509C91.7904 73.6262 91.7034 73.6749 91.6079 73.6863L91.5679 73.69Z" fill="#343434"/>
<path d="M78.1562 83.8837C77.6861 83.8894 77.2214 83.7834 76.8003 83.5743C76.7211 83.524 76.6644 83.4449 76.642 83.3537C76.6197 83.2626 76.6335 83.1663 76.6805 83.085C76.7274 83.0037 76.804 82.9437 76.8942 82.9176C76.9843 82.8914 77.0811 82.9011 77.1643 82.9446C77.248 82.9901 79.1208 84.0039 81.0373 81.2975C81.0638 81.256 81.0985 81.2203 81.1392 81.1926C81.1799 81.1649 81.2259 81.1458 81.2742 81.1363C81.3226 81.1269 81.3723 81.1274 81.4205 81.1377C81.4687 81.1481 81.5142 81.1681 81.5544 81.1966C81.5946 81.2251 81.6286 81.2614 81.6543 81.3034C81.6801 81.3454 81.697 81.3922 81.7041 81.4409C81.7113 81.4897 81.7084 81.5394 81.6958 81.587C81.6831 81.6346 81.661 81.6791 81.6306 81.7179C80.3875 83.4742 79.0917 83.8837 78.1562 83.8837Z" fill="#343434"/>
<path d="M80.3912 74.1395C80.8314 74.1395 81.1883 73.7826 81.1883 73.3423C81.1883 72.9021 80.8314 72.5452 80.3912 72.5452C79.9509 72.5452 79.594 72.9021 79.594 73.3423C79.594 73.7826 79.9509 74.1395 80.3912 74.1395Z" fill="#343434"/>
<path d="M71.0601 77.5156C71.5004 77.5156 71.8573 77.1587 71.8573 76.7184C71.8573 76.2782 71.5004 75.9213 71.0601 75.9213C70.6198 75.9213 70.2629 76.2782 70.2629 76.7184C70.2629 77.1587 70.6198 77.5156 71.0601 77.5156Z" fill="#343434"/>
<path d="M70.858 81.0828C69.0289 81.0828 67.3309 79.6086 66.8922 77.5065C66.3972 75.1405 67.6839 72.8619 69.7587 72.4269C70.2724 72.3251 70.802 72.3364 71.3108 72.4599C71.8197 72.5834 72.2955 72.8162 72.7053 73.1422C73.5934 73.8363 74.2025 74.8265 74.4216 75.9322C74.6641 77.0329 74.5026 78.184 73.9666 79.1755C73.7219 79.6385 73.3793 80.0427 72.9625 80.3599C72.5457 80.677 72.0648 80.8995 71.5533 81.0118C71.3245 81.0589 71.0916 81.0827 70.858 81.0828ZM70.4594 73.0748C70.2759 73.0757 70.093 73.0952 69.9134 73.1331C68.2299 73.4843 67.1962 75.3771 67.6093 77.35C68.0225 79.3229 69.7278 80.6424 71.4095 80.2911C71.8187 80.2 72.2031 80.0204 72.5357 79.7652C72.8683 79.5099 73.1411 79.185 73.335 78.8133C73.7845 77.9754 73.9176 77.0038 73.71 76.076C73.5299 75.1391 73.0173 74.2989 72.2667 73.71C71.7498 73.3076 71.1145 73.0869 70.4594 73.0821V73.0748Z" fill="#343434"/>
<path d="M74.3762 76.0761C74.2898 76.0754 74.2065 76.0442 74.1411 75.9878C74.0757 75.9314 74.0325 75.8536 74.0191 75.7683C74.0058 75.683 74.0232 75.5957 74.0683 75.5221C74.1133 75.4484 74.1831 75.3932 74.2651 75.3663L77.5521 74.307C77.6417 74.2847 77.7364 74.2973 77.817 74.3423C77.8977 74.3872 77.9583 74.4611 77.9865 74.549C78.0147 74.6369 78.0085 74.7322 77.969 74.8157C77.9296 74.8992 77.8599 74.9646 77.7741 74.9986L74.489 76.0597C74.4524 76.0705 74.4144 76.076 74.3762 76.0761Z" fill="#343434"/>
<path d="M76.0104 79.9598C75.8248 79.9647 75.6403 79.929 75.4699 79.8551C75.2995 79.7812 75.1473 79.671 75.024 79.5321C74.66 79.0898 74.7219 78.4838 74.8948 78.0998C75.0181 77.8306 75.2182 77.604 75.4699 77.4482L73.972 73.4442C73.9445 73.3555 73.9519 73.2595 73.9929 73.1761C74.0338 73.0926 74.105 73.028 74.1921 72.9954C74.2791 72.9628 74.3753 72.9648 74.461 73.0009C74.5466 73.0369 74.6152 73.1044 74.6527 73.1894L76.3999 77.8468L76.0359 77.9669C75.9314 78.0014 75.8348 78.0566 75.752 78.1291C75.6691 78.2017 75.6017 78.2901 75.5536 78.3891C75.4881 78.5329 75.4098 78.8569 75.5755 79.0534C75.7411 79.25 76.1215 79.3083 76.4745 79.0808C76.5144 79.0514 76.5598 79.0304 76.608 79.0192C76.6562 79.008 76.7061 79.0067 76.7548 79.0154C76.8036 79.0242 76.85 79.0428 76.8913 79.07C76.9325 79.0973 76.9678 79.1328 76.995 79.1741C77.0221 79.2155 77.0405 79.262 77.0491 79.3107C77.0576 79.3595 77.0562 79.4094 77.0448 79.4576C77.0334 79.5058 77.0123 79.5511 76.9827 79.5908C76.9532 79.6305 76.9159 79.6638 76.8731 79.6886C76.6179 79.8606 76.3182 79.9548 76.0104 79.9598Z" fill="#343434"/>
<path d="M78.8192 65.6949C83.4258 64.7317 86.5819 61.1856 85.8687 57.7745C85.1554 54.3634 80.8429 52.379 76.2364 53.3422C71.6298 54.3054 68.4737 57.8514 69.1869 61.2626C69.9002 64.6737 74.2127 66.6581 78.8192 65.6949Z" fill="#343434"/>
<path d="M92.871 65.722L88.3046 66.9086C87.0617 67.2313 85.7415 67.0471 84.6343 66.3966C83.5272 65.7461 82.7237 64.6825 82.4005 63.4397L81.4377 59.7342L90.6906 57.33L92.871 65.722Z" fill="#343434"/>
<path d="M67.2308 70.3703C70.6725 70.3703 73.4625 67.5803 73.4625 64.1386C73.4625 60.697 70.6725 57.907 67.2308 57.907C63.7892 57.907 60.9991 60.697 60.9991 64.1386C60.9991 67.5803 63.7892 70.3703 67.2308 70.3703Z" fill="#343434"/>
<path d="M84.226 72.5379C84.1412 72.5381 84.059 72.5087 83.9935 72.4547C83.9281 72.4008 83.8836 72.3257 83.8676 72.2424C83.8516 72.1591 83.8652 72.0729 83.9061 71.9986C83.9469 71.9243 84.0124 71.8665 84.0913 71.8354L90.9054 69.1054C90.9503 69.0846 90.9989 69.0732 91.0483 69.0719C91.0977 69.0706 91.1469 69.0793 91.1928 69.0976C91.2387 69.1159 91.2805 69.1434 91.3154 69.1783C91.3504 69.2133 91.3779 69.255 91.3962 69.3009C91.4145 69.3468 91.4233 69.396 91.422 69.4454C91.4206 69.4948 91.4093 69.5435 91.3886 69.5883C91.3678 69.6332 91.3382 69.6734 91.3014 69.7065C91.2647 69.7395 91.2216 69.7647 91.1747 69.7806L84.3607 72.5106C84.3178 72.5277 84.2721 72.537 84.226 72.5379Z" fill="#343434"/>
<path d="M58.4948 130.543L56.9023 151.812L57.4611 157.03H71.8081L70.101 131.286L58.4948 130.543Z" fill="white"/>
<path d="M72.1976 157.394H57.1335L56.5383 151.817L58.16 130.159L70.4431 130.944L72.1976 157.394ZM57.7887 156.666H71.4187L69.7588 131.628L58.8388 130.929L57.2682 151.806L57.7887 156.666Z" fill="#343434"/>
<path d="M67.7768 96.2544C67.1659 96.5015 66.5782 96.8024 66.0205 97.1535C61.8527 99.7816 60.4804 104.615 59.4248 109.331C58.3037 114.345 56.653 125.88 56.0742 134.838C60.5951 135.126 65.8731 135.415 70.394 135.705L67.7768 96.2544Z" fill="#2A3156"/>
<path d="M157.52 74.561H113.874C113.778 74.561 113.685 74.5226 113.617 74.4544C113.548 74.3861 113.51 74.2935 113.51 74.197C113.51 74.1004 113.548 74.0079 113.617 73.9396C113.685 73.8713 113.778 73.833 113.874 73.833H157.52C157.616 73.833 157.709 73.8713 157.777 73.9396C157.845 74.0079 157.884 74.1004 157.884 74.197C157.884 74.2935 157.845 74.3861 157.777 74.4544C157.709 74.5226 157.616 74.561 157.52 74.561Z" fill="#343434"/>
<path d="M136.051 74.3607H117.938C117.573 74.3602 117.223 74.2152 116.965 73.9573C116.707 73.6994 116.561 73.3497 116.56 72.9848V70.4095C116.561 70.0442 116.706 69.6941 116.964 69.4358C117.223 69.1775 117.573 69.0322 117.938 69.0317H136.051C136.416 69.0322 136.766 69.1775 137.024 69.4358C137.283 69.6941 137.428 70.0442 137.429 70.4095V72.9866C137.427 73.3512 137.281 73.7004 137.023 73.9579C136.765 74.2154 136.415 74.3602 136.051 74.3607ZM117.938 69.7579C117.853 69.7579 117.768 69.7747 117.69 69.8074C117.611 69.84 117.539 69.8879 117.479 69.9482C117.418 70.0086 117.371 70.0802 117.338 70.159C117.305 70.2378 117.288 70.3223 117.288 70.4077V72.9848C117.289 73.1568 117.358 73.3216 117.479 73.443C117.601 73.5645 117.766 73.6327 117.938 73.6327H136.051C136.223 73.6327 136.388 73.5645 136.51 73.443C136.631 73.3216 136.7 73.1568 136.701 72.9848V70.4095C136.701 70.2372 136.632 70.0719 136.51 69.95C136.388 69.8282 136.223 69.7597 136.051 69.7597L117.938 69.7579Z" fill="#343434"/>
<path d="M136.049 64.5019H117.938C117.378 64.5019 116.924 64.9558 116.924 65.5157V68.091C116.924 68.6508 117.378 69.1047 117.938 69.1047H136.049C136.609 69.1047 137.063 68.6508 137.063 68.091V65.5157C137.063 64.9558 136.609 64.5019 136.049 64.5019Z" fill="#6AAED9"/>
<path d="M140.807 74.2698H138.228C137.863 74.2693 137.513 74.1241 137.255 73.8662C136.997 73.6083 136.852 73.2586 136.852 72.8938V57.8952C136.852 57.5304 136.997 57.1808 137.255 56.9228C137.513 56.6649 137.863 56.5198 138.228 56.5193H140.807C141.171 56.5198 141.521 56.6649 141.779 56.9228C142.037 57.1808 142.182 57.5304 142.182 57.8952V72.8938C142.182 73.2586 142.037 73.6083 141.779 73.8662C141.521 74.1241 141.171 74.2693 140.807 74.2698ZM138.228 57.2528C138.056 57.2532 137.891 57.3216 137.77 57.4431C137.649 57.5645 137.58 57.729 137.58 57.9007V72.8993C137.58 73.071 137.649 73.2355 137.77 73.3569C137.891 73.4783 138.056 73.5467 138.228 73.5472H140.807C140.978 73.5467 141.143 73.4783 141.264 73.3569C141.386 73.2355 141.454 73.071 141.454 72.8993V57.8952C141.454 57.7235 141.386 57.559 141.264 57.4376C141.143 57.3162 140.978 57.2478 140.807 57.2473L138.228 57.2528Z" fill="#343434"/>
<path d="M145.731 56.8833H143.156C142.596 56.8833 142.142 57.3372 142.142 57.8971V72.8939C142.142 73.4538 142.596 73.9076 143.156 73.9076H145.731C146.291 73.9076 146.745 73.4538 146.745 72.8939V57.8971C146.745 57.3372 146.291 56.8833 145.731 56.8833Z" fill="#3A73AF"/>
<path d="M90.13 98.5549C87.7148 98.5317 85.3557 97.8236 83.3269 96.5128C83.2501 96.4584 83.1974 96.3765 83.1798 96.2841C83.1622 96.1917 83.181 96.0961 83.2323 96.0173C83.2835 95.9385 83.3634 95.8826 83.455 95.8613C83.5466 95.84 83.6428 95.855 83.7236 95.9031C84.8539 96.6311 87.9096 98.291 91.7735 97.7031C97.1006 96.895 99.7396 92.5689 100.215 91.7098C100.237 91.666 100.267 91.6271 100.305 91.5954C100.342 91.5636 100.385 91.5398 100.432 91.5252C100.479 91.5107 100.528 91.5058 100.577 91.5107C100.626 91.5157 100.673 91.5304 100.716 91.5541C100.759 91.5778 100.797 91.6099 100.827 91.6485C100.857 91.687 100.879 91.7313 100.892 91.7787C100.904 91.826 100.907 91.8755 100.901 91.924C100.894 91.9725 100.877 92.0192 100.852 92.0611C100.348 92.9711 97.5465 97.563 91.8827 98.422C91.3027 98.5108 90.7168 98.5552 90.13 98.5549Z" fill="white"/>
<path d="M80.99 77.288C79.17 77.288 77.4974 75.872 77.0733 73.8463C76.5983 71.555 77.896 69.3418 79.9744 68.905C82.0529 68.4682 84.1295 69.9807 84.6081 72.272C85.0868 74.5634 83.7873 76.7802 81.7107 77.2133C81.4738 77.2636 81.2322 77.2886 80.99 77.288ZM80.6897 69.5584C80.4983 69.558 80.3074 69.5775 80.12 69.6167C78.4365 69.9697 77.39 71.8007 77.7868 73.6971C78.1835 75.5935 79.8743 76.853 81.5578 76.5017C83.2413 76.1505 84.2878 74.3177 83.8911 72.4213C83.538 70.7378 82.173 69.5584 80.6933 69.5584H80.6897Z" fill="#343434"/>
<path d="M114.742 123.323L70.03 128.501L69.4985 122.182L113.441 116.992L114.742 123.323Z" fill="#6AAED9"/>
<path d="M117.929 137.215L70.4959 142.579L70.0391 135.747L116.435 130.334L117.929 137.215Z" fill="#6AAED9"/>
<path d="M85.3434 115.37C85.3434 115.37 79.3847 115.898 76.2762 110.559C75.9844 110.056 75.587 109.621 75.1114 109.285C74.2942 108.71 73.0711 108.35 71.8081 109.793C71.8081 109.793 69.7551 107.076 68.239 108.628C68.239 108.628 67.158 109.999 68.603 112.309C68.603 112.309 66.2935 113.268 68.5812 117.306C68.9325 117.927 69.2746 118.553 69.5786 119.197C70.8089 121.793 75.1842 129.162 85.6128 130.232C86.2926 130.305 86.9374 130.571 87.471 130.998L112.194 150.627C114.471 152.452 117.132 153.739 119.976 154.392C124.046 155.302 131.371 154.826 135.162 149.54C137.388 146.393 138.35 142.524 137.856 138.7L136.707 129.364L116.116 132.738L95.3297 119.705C94.6358 119.268 94.0706 118.654 93.6917 117.927C92.4851 115.625 89.4457 110.283 86.0732 107.959C85.9567 107.879 85.8421 107.8 85.7292 107.717C85.0012 107.171 84.0912 106.719 83.1721 106.705C81.7161 106.683 80.4822 108.028 81.3813 109.393C81.7762 109.993 82.4114 110.485 82.9993 110.889C83.6088 111.304 84.1273 111.838 84.5229 112.461C84.9185 113.083 85.1828 113.779 85.2997 114.507C85.343 114.792 85.3577 115.081 85.3434 115.37Z" fill="white"/>
<path d="M78.8788 119.163C78.8232 119.162 78.7684 119.149 78.7186 119.124C77.7501 118.653 76.8425 118.065 76.0159 117.374C73.215 115.024 71.9901 112.001 71.455 109.879C71.4309 109.785 71.4449 109.686 71.4941 109.602C71.5432 109.519 71.6235 109.459 71.7171 109.435C71.8107 109.411 71.9101 109.425 71.9934 109.474C72.0767 109.523 72.137 109.603 72.1612 109.697C72.669 111.715 73.8319 114.587 76.4837 116.813C77.2627 117.466 78.1183 118.021 79.0317 118.467C79.106 118.503 79.1658 118.563 79.2014 118.638C79.237 118.712 79.2463 118.797 79.2276 118.877C79.209 118.957 79.1636 119.029 79.0989 119.08C79.0342 119.132 78.954 119.159 78.8715 119.159L78.8788 119.163Z" fill="#343434"/>
<path d="M76.5419 122.239C76.4856 122.239 76.43 122.226 76.3799 122.2C75.8915 121.981 75.4368 121.693 75.0295 121.345C74.8894 121.232 74.7128 121.092 74.4835 120.906C71.7535 118.793 69.6095 115.865 68.27 112.438C68.2501 112.393 68.2395 112.344 68.2388 112.295C68.2381 112.246 68.2474 112.197 68.2661 112.152C68.2847 112.107 68.3124 112.065 68.3474 112.031C68.3824 111.996 68.4241 111.969 68.4698 111.951C68.5155 111.934 68.5644 111.925 68.6135 111.926C68.6626 111.928 68.7109 111.939 68.7555 111.96C68.8001 111.981 68.8401 112.01 68.873 112.046C68.9059 112.083 68.9311 112.126 68.947 112.172C70.2411 115.477 72.3086 118.298 74.9294 120.331C75.1715 120.513 75.3498 120.662 75.4918 120.777C75.8588 121.093 76.2703 121.354 76.713 121.551C76.7855 121.588 76.8435 121.648 76.8776 121.722C76.9117 121.796 76.92 121.88 76.9011 121.959C76.8823 122.038 76.8373 122.109 76.7735 122.16C76.7097 122.21 76.6307 122.238 76.5492 122.239H76.5419Z" fill="#343434"/>
<path d="M87.167 157.761H56.5656V151.156H87.167C87.5738 151.157 87.9638 151.319 88.2514 151.606C88.539 151.894 88.7008 152.284 88.7013 152.691V156.229C88.7008 156.635 88.539 157.025 88.2513 157.313C87.9636 157.6 87.5736 157.761 87.167 157.761Z" fill="#343434"/>
<path d="M60.0127 157.761H24.2151C23.5481 157.768 22.8968 157.559 22.3583 157.165C21.8197 156.772 21.4228 156.215 21.2267 155.577L12.4597 125.857C11.8919 123.931 13.3825 122.013 15.4482 122.013H49.2128C49.9091 122.006 50.5872 122.235 51.1374 122.662C51.6876 123.089 52.0778 123.688 52.2449 124.364L60.0127 157.761Z" fill="#343434"/>
<path d="M34.0139 147.668C36.754 147.668 38.9753 145.446 38.9753 142.706C38.9753 139.966 36.754 137.745 34.0139 137.745C31.2739 137.745 29.0526 139.966 29.0526 142.706C29.0526 145.446 31.2739 147.668 34.0139 147.668Z" fill="#F7A097"/>
<path d="M32.9238 139.166C32.8423 139.166 32.7632 139.139 32.6992 139.088C32.6351 139.038 32.5899 138.967 32.5708 138.888L31.9774 136.458C31.9661 136.412 31.964 136.364 31.9713 136.316C31.9786 136.269 31.9952 136.224 32.02 136.183C32.0448 136.142 32.0775 136.106 32.1161 136.078C32.1547 136.05 32.1985 136.029 32.245 136.018C32.2915 136.006 32.3397 136.004 32.387 136.012C32.4343 136.019 32.4797 136.036 32.5206 136.06C32.5615 136.085 32.5971 136.118 32.6254 136.157C32.6537 136.195 32.6741 136.239 32.6854 136.285L33.2769 138.715C33.2902 138.769 33.2911 138.825 33.2795 138.879C33.268 138.933 33.2443 138.983 33.2103 139.027C33.1762 139.07 33.1328 139.105 33.0832 139.13C33.0335 139.154 32.9791 139.166 32.9238 139.166Z" fill="#6DC8C2"/>
<path d="M140.753 129.113L116.566 133.16L107.684 87.7877L113.988 87.8768C117.9 87.9105 121.698 89.1964 124.825 91.546C126.455 92.777 127.841 94.3008 128.912 96.0395C129.682 97.3028 130.275 98.6652 130.676 100.089L140.753 129.113Z" fill="#2A3156"/>
<path d="M121.847 136.163C121.784 136.165 121.721 136.149 121.665 136.118L116.251 133.129C116.17 133.081 116.112 133.003 116.087 132.912C116.063 132.821 116.075 132.724 116.12 132.642C116.166 132.56 116.241 132.498 116.331 132.47C116.421 132.442 116.518 132.45 116.602 132.492L122.016 135.481C122.088 135.52 122.143 135.582 122.175 135.657C122.207 135.731 122.213 135.815 122.192 135.893C122.171 135.972 122.125 136.041 122.06 136.09C121.995 136.139 121.916 136.165 121.834 136.163H121.847Z" fill="#343434"/>
<path d="M58.1035 100.391H14.4581C14.3616 100.391 14.269 100.353 14.2007 100.285C14.1325 100.216 14.0941 100.124 14.0941 100.027C14.0941 99.9307 14.1325 99.8381 14.2007 99.7698C14.269 99.7016 14.3616 99.6632 14.4581 99.6632H58.1035C58.2001 99.6632 58.2927 99.7016 58.3609 99.7698C58.4292 99.8381 58.4675 99.9307 58.4675 100.027C58.4675 100.124 58.4292 100.216 58.3609 100.285C58.2927 100.353 58.2001 100.391 58.1035 100.391Z" fill="#343434"/>
<path d="M44.6847 99.5012C48.256 99.5012 51.1512 96.6061 51.1512 93.0348C51.1512 89.4634 48.256 86.5683 44.6847 86.5683C41.1134 86.5683 38.2183 89.4634 38.2183 93.0348C38.2183 96.6061 41.1134 99.5012 44.6847 99.5012Z" fill="white"/>
<path d="M31.5006 100.113H22.2041C21.3447 100.112 20.5208 99.7701 19.9131 99.1624C19.3054 98.5548 18.9636 97.7309 18.9626 96.8715V83.5072C18.9626 82.6472 19.304 81.8223 19.9118 81.2139C20.5196 80.6054 21.3441 80.2631 22.2041 80.2621H31.5061C32.3655 80.2631 33.1894 80.6049 33.7971 81.2126C34.4047 81.8203 34.7465 82.6442 34.7475 83.5036V96.8678C34.7475 97.2941 34.6635 97.7162 34.5003 98.1101C34.3371 98.5039 34.0979 98.8617 33.7964 99.1631C33.4949 99.4644 33.1369 99.7034 32.743 99.8664C32.3491 100.029 31.9269 100.113 31.5006 100.113ZM22.2041 80.9901C21.5378 80.9911 20.899 81.2562 20.4279 81.7274C19.9567 82.1985 19.6916 82.8373 19.6906 83.5036V96.8678C19.6904 97.1981 19.7552 97.5253 19.8814 97.8305C20.0076 98.1358 20.1927 98.4132 20.4261 98.6469C20.6594 98.8806 20.9366 99.0661 21.2417 99.1927C21.5467 99.3194 21.8738 99.3846 22.2041 99.3849H31.5061C32.1724 99.3839 32.8111 99.1188 33.2823 98.6477C33.7534 98.1765 34.0185 97.5378 34.0195 96.8715V83.5072C34.0195 83.1765 33.9543 82.8491 33.8277 82.5436C33.7011 82.238 33.5156 81.9605 33.2816 81.7267C33.0477 81.493 32.77 81.3076 32.4644 81.1812C32.1588 81.0548 31.8313 80.9899 31.5006 80.9901H22.2041Z" fill="#343434"/>
<path d="M34.1851 95.3117H19.3212C19.2246 95.3117 19.132 95.2733 19.0638 95.2051C18.9955 95.1368 18.9572 95.0442 18.9572 94.9477C18.9572 94.8511 18.9955 94.7586 19.0638 94.6903C19.132 94.622 19.2246 94.5837 19.3212 94.5837H34.1851C34.2816 94.5837 34.3742 94.622 34.4425 94.6903C34.5107 94.7586 34.5491 94.8511 34.5491 94.9477C34.5491 95.0442 34.5107 95.1368 34.4425 95.2051C34.3742 95.2733 34.2816 95.3117 34.1851 95.3117Z" fill="#343434"/>
<path d="M25.298 98.3747C25.7855 98.3747 26.1807 97.9795 26.1807 97.492C26.1807 97.0045 25.7855 96.6093 25.298 96.6093C24.8105 96.6093 24.4153 97.0045 24.4153 97.492C24.4153 97.9795 24.8105 98.3747 25.298 98.3747Z" fill="white"/>
<path d="M28.3956 98.3747C28.8831 98.3747 29.2783 97.9795 29.2783 97.492C29.2783 97.0045 28.8831 96.6093 28.3956 96.6093C27.9081 96.6093 27.5129 97.0045 27.5129 97.492C27.5129 97.9795 27.9081 98.3747 28.3956 98.3747Z" fill="white"/>
<path d="M43.3288 88.2593C43.2457 88.2591 43.1652 88.2304 43.1006 88.1781C43.0361 88.1258 42.9913 88.053 42.9739 87.9717C42.0275 83.6037 43.0958 80.6153 44.1587 78.8717C45.3199 76.9771 46.7067 76.1308 46.7595 76.0962C46.8423 76.0465 46.9414 76.0317 47.0351 76.0551C47.1288 76.0785 47.2094 76.1381 47.2591 76.2209C47.3088 76.3037 47.3236 76.4028 47.3002 76.4965C47.2768 76.5902 47.2172 76.6708 47.1344 76.7205C46.916 76.8533 41.9838 79.9564 43.6764 87.8116C43.6964 87.9057 43.6784 88.0039 43.6262 88.0847C43.574 88.1655 43.492 88.2224 43.398 88.2429C43.3754 88.2504 43.3523 88.2559 43.3288 88.2593Z" fill="#343434"/>
<path d="M51.5061 76.622L49.9391 76.2817C49.9263 76.1961 49.9099 76.0997 49.8899 76.0251L51.2586 75.257C51.5167 75.0832 51.7001 74.8186 51.7721 74.5158C51.8441 74.213 51.7996 73.8942 51.6474 73.6227C51.4951 73.3512 51.2463 73.147 50.9504 73.0505C50.6544 72.9541 50.333 72.9725 50.0501 73.1021L48.6105 73.9102C48.5868 73.923 48.5686 73.9393 48.5468 73.9539C48.4776 73.9029 48.4066 73.8538 48.3338 73.8083L48.6505 72.3432C48.7198 72.0222 48.6587 71.6869 48.4807 71.4109C48.3027 71.1349 48.0224 70.941 47.7014 70.8717C47.3804 70.8025 47.045 70.8636 46.7691 71.0415C46.4931 71.2195 46.2992 71.4999 46.2299 71.8209L45.9132 73.2769C45.7907 73.2932 45.6692 73.3163 45.5492 73.346C45.5231 73.2973 45.4946 73.2499 45.4637 73.2041L44.47 71.89C44.2723 71.6279 43.9786 71.4551 43.6535 71.4095C43.3284 71.3639 42.9985 71.4494 42.7364 71.6471C42.4743 71.8447 42.3015 72.1384 42.2559 72.4635C42.2103 72.7886 42.2958 73.1185 42.4934 73.3806L43.4872 74.7001C43.4872 74.711 43.5054 74.7183 43.5145 74.7292C43.4799 74.7765 43.4508 74.8257 43.418 74.873L41.9019 74.5454C41.581 74.4762 41.2457 74.5372 40.9696 74.7149C40.6936 74.8927 40.4993 75.1728 40.4296 75.4936C40.395 75.6526 40.3922 75.8168 40.4212 75.9768C40.4502 76.1369 40.5104 76.2896 40.5985 76.4264C40.6865 76.5631 40.8007 76.6812 40.9344 76.7738C41.0681 76.8663 41.2188 76.9317 41.3778 76.966L42.8811 77.2918C42.8811 77.3282 42.8902 77.3646 42.8957 77.401H42.8829L41.4415 78.2091C41.1677 78.3762 40.9694 78.6431 40.8882 78.9535C40.8071 79.2638 40.8495 79.5936 41.0065 79.8734C41.1634 80.1531 41.4228 80.3611 41.73 80.4537C42.0371 80.5462 42.3682 80.516 42.6536 80.3694L44.095 79.5613C44.106 79.5613 44.1132 79.5468 44.1242 79.5413C44.2398 79.638 44.3614 79.7273 44.4882 79.8088L44.1733 81.2648C44.1345 81.4255 44.1282 81.5924 44.1549 81.7555C44.1816 81.9187 44.2406 82.0749 44.3285 82.2149C44.4164 82.3549 44.5315 82.4759 44.6669 82.5707C44.8023 82.6656 44.9553 82.7324 45.1169 82.7673C45.2785 82.8021 45.4454 82.8043 45.6079 82.7736C45.7703 82.743 45.925 82.6802 46.0628 82.5888C46.2006 82.4975 46.3187 82.3795 46.4103 82.2419C46.5018 82.1042 46.5648 81.9496 46.5957 81.7872L46.9088 80.3312C46.9998 80.3184 47.0908 80.3021 47.1799 80.282L48.1427 81.556C48.2351 81.6978 48.3555 81.8191 48.4966 81.9126C48.6376 82.006 48.7963 82.0696 48.9629 82.0994C49.1294 82.1292 49.3003 82.1245 49.465 82.0858C49.6297 82.047 49.7847 81.975 49.9205 81.874C50.0563 81.7731 50.17 81.6454 50.2545 81.4989C50.3391 81.3523 50.3928 81.19 50.4123 81.022C50.4317 80.8539 50.4166 80.6836 50.3678 80.5216C50.3189 80.3596 50.2375 80.2093 50.1283 80.08L49.2729 78.9425C49.3275 78.8679 49.3803 78.7915 49.4295 78.7114L50.9819 79.0481C51.1409 79.0826 51.3051 79.0855 51.4651 79.0565C51.6251 79.0275 51.7779 78.9672 51.9147 78.8792C52.0514 78.7911 52.1695 78.677 52.262 78.5432C52.3546 78.4095 52.42 78.2589 52.4543 78.0999C52.4896 77.9405 52.4931 77.7758 52.4645 77.6151C52.4359 77.4544 52.3758 77.301 52.2877 77.1637C52.1995 77.0263 52.0851 76.9077 51.951 76.8148C51.8168 76.7218 51.6656 76.6563 51.5061 76.622Z" fill="#6AAED9"/>
<path d="M46.4428 78.4475C47.3484 78.4475 48.0826 77.7133 48.0826 76.8077C48.0826 75.902 47.3484 75.1678 46.4428 75.1678C45.5371 75.1678 44.803 75.902 44.803 76.8077C44.803 77.7133 45.5371 78.4475 46.4428 78.4475Z" fill="white"/>
<path d="M43.6575 89.7014C44.5245 89.5535 45.1295 88.8601 45.0088 88.1527C44.8881 87.4452 44.0875 86.9916 43.2205 87.1395C42.3535 87.2873 41.7485 87.9807 41.8691 88.6882C41.9898 89.3957 42.7905 89.8493 43.6575 89.7014Z" fill="#343434"/>
<path d="M41.4832 98.402C41.4045 98.4016 41.3281 98.3758 41.2653 98.3283C41.2025 98.2807 41.1569 98.2142 41.1351 98.1385C41.1134 98.0629 41.1168 97.9822 41.1447 97.9086C41.1727 97.8351 41.2238 97.7725 41.2903 97.7304C42.2104 97.1528 43.2601 96.8137 44.3443 96.744C45.6865 96.6688 47.0198 97.0047 48.1663 97.7068C48.247 97.758 48.3043 97.8388 48.3259 97.9319C48.3475 98.025 48.3316 98.1229 48.2817 98.2044C48.2317 98.2858 48.1517 98.3444 48.059 98.3674C47.9662 98.3905 47.8681 98.3761 47.7859 98.3274C46.7664 97.7038 45.5812 97.4054 44.388 97.472C43.4259 97.5338 42.4944 97.8347 41.678 98.3474C41.6193 98.3832 41.5519 98.4021 41.4832 98.402Z" fill="#343434"/>
</svg>
