<svg width="144" height="162" viewBox="0 0 144 162" fill="none" xmlns="http://www.w3.org/2000/svg">
<path d="M80.4584 52.7252L19.3121 160.47H176.959L118.956 52.7252H80.4584Z" fill="#5E96C0"/>
<path d="M131.753 100.099C132.594 98.3944 133.037 96.5205 133.047 94.6193C133.058 92.7181 132.636 90.8395 131.813 89.1254C130.991 87.4114 129.789 85.9068 128.3 84.7255C126.81 83.5442 125.071 82.717 123.215 82.3066C122.415 82.1316 121.686 81.7233 121.118 81.1335V81.1239C120.032 79.9873 119.845 78.9678 118.304 75.8785C118.138 75.5444 118 75.2756 117.92 75.122L105.077 80.1025L108.558 90.745C107.842 92.9922 107.774 95.3957 108.362 97.6797C108.95 99.9637 110.171 102.035 111.883 103.657C113.595 105.279 115.73 106.385 118.042 106.849C120.355 107.312 122.751 107.115 124.956 106.278C125.062 107.332 125.458 108.336 126.101 109.178C126.743 110.02 127.607 110.667 128.596 111.046C129.585 111.426 130.66 111.524 131.701 111.328C132.742 111.133 133.708 110.652 134.492 109.94C135.276 109.227 135.846 108.311 136.14 107.293C136.433 106.275 136.438 105.196 136.154 104.176C135.87 103.155 135.308 102.234 134.531 101.514C133.754 100.794 132.792 100.304 131.753 100.099Z" fill="#343434"/>
<path d="M93.9656 106.579C97.4267 106.579 100.232 103.773 100.232 100.312C100.232 96.8513 97.4267 94.0455 93.9656 94.0455C90.5045 94.0455 87.6987 96.8513 87.6987 100.312C87.6987 103.773 90.5045 106.579 93.9656 106.579Z" fill="#343434"/>
<path d="M114.122 83.7599C114.127 82.6577 113.699 81.5975 112.929 80.8087C112.159 80.02 111.109 79.5662 110.007 79.5455L109.748 76.7231C109.672 75.8281 109.42 74.9568 109.006 74.1593C108.593 73.3618 108.026 72.6537 107.339 72.0756C106.651 71.4976 105.856 71.0609 104.999 70.7906C104.143 70.5203 103.241 70.4217 102.346 70.5004L91.9495 71.47C90.5884 71.605 89.3363 72.2742 88.4679 73.3309C87.5994 74.3877 87.1854 75.7456 87.3166 77.1071L88.4686 89.806C88.5594 90.8723 88.8598 91.9103 89.3524 92.8603C89.8451 93.8104 90.5204 94.6539 91.3396 95.3425C92.1588 96.0311 93.1058 96.5514 94.1264 96.8734C95.147 97.1954 96.2211 97.3129 97.2871 97.2191L97.769 97.1731L98.4199 104.212L112.154 102.933L111.386 94.5964H111.374L110.764 87.8937C111.714 87.6979 112.568 87.1793 113.18 86.4259C113.792 85.6725 114.125 84.7306 114.122 83.7599Z" fill="white"/>
<path d="M109.905 85.7683C109.583 85.7683 109.268 85.6727 109 85.4936C108.732 85.3145 108.523 85.0599 108.399 84.7621C108.276 84.4642 108.244 84.1365 108.307 83.8202C108.37 83.504 108.525 83.2136 108.753 82.9856C108.981 82.7577 109.271 82.6024 109.587 82.5395C109.904 82.4766 110.231 82.5089 110.529 82.6323C110.827 82.7556 111.082 82.9646 111.261 83.2326C111.44 83.5007 111.536 83.8159 111.536 84.1383C111.535 84.5704 111.363 84.9848 111.058 85.2903C110.752 85.5959 110.338 85.7678 109.905 85.7683ZM109.905 83.2723C109.735 83.2723 109.568 83.3229 109.427 83.4176C109.285 83.5124 109.174 83.647 109.109 83.8045C109.044 83.962 109.027 84.1354 109.06 84.3026C109.093 84.4698 109.175 84.6234 109.296 84.744C109.416 84.8646 109.57 84.9467 109.737 84.9799C109.905 85.0132 110.078 84.9961 110.235 84.9309C110.393 84.8656 110.528 84.7551 110.622 84.6134C110.717 84.4716 110.768 84.3049 110.768 84.1344C110.766 83.9066 110.675 83.6886 110.513 83.5279C110.352 83.3671 110.133 83.2767 109.905 83.2762V83.2723Z" fill="#343434"/>
<path d="M97.7404 97.1845L105.918 96.1689C105.97 96.1622 106.023 96.1746 106.068 96.2037C106.112 96.2328 106.145 96.2767 106.159 96.3276C106.174 96.3785 106.17 96.433 106.149 96.4813C106.127 96.5297 106.088 96.5686 106.041 96.5913L98.036 100.416L97.7404 97.1845Z" fill="#343434"/>
<path d="M108.704 84.8468C108.613 84.8485 108.526 84.8185 108.455 84.762C108.385 84.7055 108.337 84.6261 108.32 84.5377C108.231 84.1021 108.259 83.651 108.4 83.2295C108.541 82.808 108.79 82.4308 109.122 82.1358C109.443 81.8649 109.824 81.6749 110.234 81.5817C110.643 81.4885 111.069 81.4948 111.476 81.6001C111.574 81.6274 111.657 81.6925 111.707 81.7811C111.757 81.8696 111.77 81.9744 111.743 82.0724C111.716 82.1704 111.65 82.2535 111.562 82.3035C111.473 82.3536 111.369 82.3664 111.271 82.3393C110.988 82.2683 110.693 82.2646 110.409 82.3286C110.125 82.3927 109.859 82.5226 109.635 82.7079C109.403 82.9134 109.23 83.1761 109.133 83.4696C109.035 83.7631 109.016 84.0772 109.078 84.3802C109.088 84.4298 109.088 84.4809 109.078 84.5305C109.069 84.5801 109.049 84.6273 109.021 84.6694C108.993 84.7115 108.957 84.7477 108.915 84.7758C108.873 84.8039 108.826 84.8235 108.777 84.8334C108.753 84.8397 108.728 84.8442 108.704 84.8468Z" fill="#343434"/>
<path d="M89.7665 85.0348C90.215 85.0348 90.5787 84.6712 90.5787 84.2226C90.5787 83.7741 90.215 83.4105 89.7665 83.4105C89.318 83.4105 88.9543 83.7741 88.9543 84.2226C88.9543 84.6712 89.318 85.0348 89.7665 85.0348Z" fill="#343434"/>
<path d="M98.4315 84.0307C98.8801 84.0307 99.2437 83.6671 99.2437 83.2185C99.2437 82.77 98.8801 82.4064 98.4315 82.4064C97.983 82.4064 97.6194 82.77 97.6194 83.2185C97.6194 83.6671 97.983 84.0307 98.4315 84.0307Z" fill="#343434"/>
<path d="M93.286 87.4617C93.2555 87.4617 93.2252 87.4578 93.1957 87.4501C92.5832 87.3023 91.9496 87.0796 91.9055 86.5669C91.9009 86.3725 91.9734 86.1841 92.1071 86.0428C92.1455 85.9929 92.1896 85.9353 92.2376 85.8604C92.4169 85.5729 92.5077 85.2391 92.4988 84.9004L92.4815 81.3599C92.4815 81.258 92.5219 81.1604 92.5939 81.0884C92.666 81.0163 92.7636 80.9759 92.8655 80.9759C92.9673 80.9759 93.065 81.0163 93.137 81.0884C93.209 81.1604 93.2495 81.258 93.2495 81.3599L93.2668 84.9004C93.2719 85.3816 93.1386 85.8541 92.8828 86.2617C92.8213 86.3557 92.7714 86.4248 92.7272 86.4825C92.931 86.5815 93.1465 86.6544 93.3685 86.6994C93.461 86.7205 93.5424 86.775 93.5971 86.8525C93.6518 86.93 93.6759 87.025 93.6646 87.1192C93.6534 87.2134 93.6078 87.3001 93.5364 87.3626C93.4651 87.4252 93.3731 87.4591 93.2783 87.4578L93.286 87.4617Z" fill="#343434"/>
<path d="M94.6068 90.8429C94.0879 90.8356 93.5767 90.715 93.1092 90.4896C93.0186 90.443 92.9502 90.3623 92.919 90.2653C92.8879 90.1682 92.8966 90.0628 92.9431 89.9722C92.9897 89.8815 93.0704 89.8131 93.1675 89.782C93.2645 89.7508 93.3699 89.7595 93.4606 89.8061C93.4721 89.8061 94.3572 90.2554 95.1559 89.9981C95.3739 89.9189 95.5734 89.7962 95.7424 89.6374C95.9114 89.4786 96.0464 89.2871 96.139 89.0746C96.1597 89.0266 96.19 88.9834 96.2281 88.9475C96.2661 88.9117 96.3111 88.884 96.3602 88.8662C96.4093 88.8483 96.4615 88.8406 96.5137 88.8437C96.5658 88.8467 96.6168 88.8603 96.6635 88.8838C96.7103 88.9072 96.7517 88.9399 96.7853 88.9799C96.819 89.0199 96.8441 89.0663 96.8591 89.1163C96.8742 89.1664 96.8789 89.219 96.8729 89.2709C96.8669 89.3228 96.8504 89.3729 96.8244 89.4182C96.688 89.7235 96.4903 89.9974 96.2436 90.223C95.9969 90.4486 95.7064 90.621 95.3902 90.7296C95.1367 90.8083 94.8723 90.8466 94.6068 90.8429Z" fill="#343434"/>
<path d="M111.768 98.9066L97.8726 100.188L98.4625 106.584L112.358 105.302L111.768 98.9066Z" fill="#6AAED9"/>
<path d="M92.1473 71.9578C93.3685 71.8618 94.5339 72.8659 95.2193 73.7587C96.3713 75.264 96.8571 77.0995 97.7442 78.7507C99.5048 82.0147 103.792 82.4237 106.916 81.0643L118.686 76.6733C118.394 75.7344 116.885 70.4256 111.488 67.8567C108.99 66.6887 106.205 66.28 103.477 66.6816L93.572 67.2C92.419 67.2518 91.2971 67.5903 90.308 68.185C88.5166 69.289 86.5582 71.641 87.2513 76.608C87.4093 75.3868 87.9831 74.2574 88.8762 73.4097C89.7694 72.562 90.9273 72.0479 92.155 71.9539L92.1473 71.9578Z" fill="#343434"/>
<path d="M88.0923 104.882C88.0923 104.882 83.6379 105.506 80.7118 114.447C79.988 116.659 79.22 118.848 78.3329 121.006L72.3291 134.627L76.7009 153.422L86.5025 147.047L83.2289 138.582C81.3896 134.166 80.8481 129.189 82.2363 124.616L88.0923 104.882Z" fill="white"/>
<path d="M126.494 141.212L85.7 145.991C83.8702 141.454 83.5189 141.037 81.691 136.504C80.1956 132.799 80.0013 128.697 81.14 124.867L86.8482 105.734C86.9735 105.309 87.2294 104.935 87.5794 104.663C87.9295 104.392 88.3561 104.237 88.7989 104.221L124.787 102.852C125.665 118.606 125.626 125.459 126.494 141.212Z" fill="#EE786B"/>
<path d="M82.413 90.5376C83.6878 91.2672 84.4347 92.5997 85.101 93.8554C85.8724 95.2979 86.5477 96.7898 87.1227 98.3213C88.2736 101.376 89.0129 104.571 89.3211 107.821C89.624 111.002 89.4714 114.209 88.868 117.347C88.2949 120.292 87.3173 123.144 85.963 125.821C84.609 128.508 82.8661 130.98 80.7905 133.158C80.5345 133.43 80.2683 133.698 79.9918 133.96C79.4581 134.477 80.2722 135.291 80.8059 134.774C83.0436 132.599 84.9448 130.103 86.4469 127.367C87.9579 124.633 89.0798 121.701 89.78 118.656C90.5071 115.454 90.7715 112.164 90.5653 108.887C90.354 105.498 89.6842 102.154 88.5742 98.9453C88.0134 97.3177 87.3457 95.729 86.5755 94.1894C85.8824 92.8032 85.1413 91.319 83.9758 90.265C83.6783 89.9927 83.3519 89.7539 83.0024 89.5526C82.3573 89.184 81.7774 90.1786 82.4264 90.5472L82.413 90.5376Z" fill="white"/>
<path d="M111.34 157.248C111.196 152.887 112.042 148.55 113.815 144.562C115.574 140.555 118.202 136.988 121.508 134.12C123.236 132.635 125.217 131.153 127.495 130.702C128.504 130.497 129.551 130.581 130.515 130.944C130.91 131.106 131.287 131.308 131.642 131.547C131.999 131.791 132.33 132.071 132.631 132.382C133.957 133.726 134.846 135.531 135.48 137.297C136.325 139.663 136.881 142.157 137.331 144.624C138.284 149.86 138.526 155.201 138.051 160.502C137.992 161.167 137.921 161.83 137.84 162.491C137.801 162.801 138.131 163.067 138.416 163.067C138.567 163.064 138.712 163.002 138.819 162.895C138.926 162.788 138.988 162.643 138.992 162.491C139.661 156.985 139.568 151.413 138.715 145.931C138.313 143.274 137.722 140.648 136.947 138.075C136.338 136.074 135.497 134.102 134.207 132.443C132.945 130.817 131.196 129.636 129.109 129.456C126.577 129.239 124.184 130.595 122.232 132.063C118.583 134.826 115.611 138.383 113.54 142.464C111.447 146.536 110.298 151.027 110.176 155.604C110.163 156.152 110.176 156.697 110.188 157.244C110.213 157.983 111.365 157.987 111.34 157.244V157.248Z" fill="white"/>
<path d="M90.2388 147.485C89.703 144.367 89.7147 141.179 90.2734 138.065C90.7822 135.229 91.698 132.415 93.2071 129.948C93.8852 128.822 94.7162 127.796 95.6762 126.899C96.1409 126.472 96.642 126.086 97.1738 125.747C97.6702 125.425 98.1961 125.152 98.7444 124.931C99.8324 124.505 100.994 124.3 102.162 124.328C103.268 124.341 104.359 124.588 105.363 125.052C106.405 125.536 107.284 126.313 107.893 127.288C108.606 128.45 108.888 129.873 108.469 131.151C108.285 131.71 107.97 132.217 107.551 132.63C107.144 133.029 106.578 133.398 105.979 133.45C105.729 133.468 105.479 133.427 105.248 133.33C105.017 133.234 104.811 133.085 104.648 132.895C104.264 132.478 103.983 131.977 103.827 131.432C102.966 128.6 104.19 125.505 105.647 123.097C107.075 120.777 108.911 118.735 111.065 117.068C113.313 115.328 115.82 113.949 118.494 112.982C121.451 111.917 124.53 111.229 127.66 110.934C128.428 110.857 129.196 110.799 129.964 110.761C130.115 110.757 130.259 110.695 130.367 110.588C130.474 110.481 130.536 110.337 130.54 110.185C130.54 110.032 130.479 109.886 130.371 109.778C130.263 109.67 130.116 109.609 129.964 109.609C126.602 109.755 123.27 110.306 120.041 111.251C117.016 112.139 114.151 113.5 111.551 115.283C109.111 116.963 106.993 119.069 105.299 121.5C103.542 124.061 102.087 127.248 102.458 130.428C102.623 131.85 103.139 133.34 104.378 134.172C105.702 135.055 107.369 134.444 108.4 133.404C108.915 132.868 109.306 132.225 109.544 131.521C109.782 130.817 109.861 130.07 109.777 129.331C109.595 127.817 108.893 126.412 107.79 125.359C105.935 123.575 103.216 122.941 100.71 123.268C97.9265 123.631 95.513 125.167 93.714 127.288C91.794 129.56 90.546 132.338 89.7454 135.187C88.8241 138.469 88.499 141.89 88.7854 145.286C88.8564 146.129 88.9774 146.972 89.1118 147.807C89.1526 147.955 89.2501 148.079 89.3829 148.155C89.5158 148.23 89.6731 148.249 89.8202 148.209C89.966 148.166 90.0895 148.068 90.1647 147.936C90.2399 147.804 90.2609 147.648 90.2234 147.5L90.2388 147.485Z" fill="white"/>
<path d="M147.731 139.438H147.752L144.832 132.641L138.688 118.328C137.804 116.269 136.919 114.21 136.035 112.149C134.829 109.344 133.846 106.308 131.304 104.396C128.04 101.944 123.105 101.439 119.742 103.972C116.879 106.126 116.094 110.039 116.145 113.445C116.214 117.306 117.489 121.062 119.167 124.498C120.895 128.039 122.316 131.725 123.904 135.333L126.496 141.22L87.618 145.766C86.3282 145.916 85.0693 146.264 83.8855 146.797C82.2535 147.536 80.5934 148.329 78.9051 149.178C77.9156 149.675 76.9492 150.175 76.0059 150.68L78.4462 160.472H133.903C144.807 160.472 152.011 149.289 147.731 139.438Z" fill="white"/>
<path d="M134.132 137.574C134.132 136.646 130.845 135.894 126.788 135.894C122.731 135.894 119.444 136.646 119.444 137.574L118.655 145.86C120.494 145.561 123.071 145.542 125.344 146.955C126.155 147.474 127.049 147.847 127.988 148.059C129.568 148.391 131.947 148.47 134.81 147.256L134.132 137.574Z" fill="white"/>
<path d="M130.06 148.654C129.337 148.655 128.615 148.582 127.907 148.435C126.926 148.213 125.991 147.824 125.142 147.283C122.934 145.916 120.429 145.962 118.716 146.241L118.225 146.321L119.062 137.555C119.104 135.94 124.127 135.512 126.788 135.512C129.449 135.512 134.483 135.936 134.516 137.558L135.211 147.504L134.958 147.61C133.412 148.285 131.746 148.64 130.06 148.654ZM120.613 145.313C122.349 145.282 124.058 145.738 125.548 146.629C126.319 147.123 127.171 147.48 128.065 147.683C129.47 147.978 131.695 148.093 134.401 147.007L133.748 137.574C133.748 137.263 131.655 136.278 126.788 136.278C121.921 136.278 119.828 137.263 119.828 137.574V137.61L119.083 145.411C119.591 145.347 120.102 145.314 120.613 145.313Z" fill="#343434"/>
<path d="M135.317 146.577C132.27 147.79 129.735 147.711 128.053 147.379C127.062 147.168 126.112 146.795 125.242 146.275C122.81 144.86 120.078 144.881 118.119 145.179L117.319 153.064C117.216 154.069 117.326 155.083 117.64 156.043C117.954 157.002 118.466 157.885 119.143 158.634C119.82 159.383 120.646 159.982 121.569 160.392C122.491 160.802 123.49 161.013 124.499 161.013H128.614C129.607 161.013 130.589 160.809 131.5 160.412C132.41 160.015 133.229 159.434 133.904 158.707C134.58 157.979 135.099 157.12 135.427 156.183C135.756 155.245 135.887 154.251 135.814 153.26L135.317 146.577Z" fill="#FFBB45"/>
<path d="M126.204 156.031H126.17C126.068 156.021 125.975 155.972 125.91 155.894C125.845 155.816 125.813 155.715 125.822 155.614L128.213 129.156C128.247 128.754 128.431 128.38 128.729 128.108C129.027 127.836 129.416 127.686 129.82 127.688H135.507C135.609 127.688 135.706 127.728 135.778 127.8C135.85 127.872 135.891 127.97 135.891 128.072C135.891 128.173 135.85 128.271 135.778 128.343C135.706 128.415 135.609 128.456 135.507 128.456H129.82C129.609 128.455 129.405 128.534 129.249 128.676C129.093 128.818 128.996 129.013 128.977 129.224L126.586 155.681C126.578 155.777 126.534 155.865 126.463 155.93C126.392 155.995 126.3 156.031 126.204 156.031Z" fill="#343434"/>
<path d="M126.773 139.584C126.552 139.584 126.331 139.584 126.112 139.573C123.749 139.483 121.427 138.923 119.283 137.923C119.237 137.902 119.196 137.872 119.162 137.835C119.128 137.797 119.101 137.754 119.084 137.706C119.067 137.659 119.059 137.609 119.061 137.558C119.063 137.508 119.075 137.458 119.096 137.413C119.118 137.367 119.148 137.326 119.185 137.292C119.222 137.257 119.266 137.231 119.313 137.214C119.361 137.196 119.411 137.189 119.461 137.191C119.512 137.193 119.561 137.205 119.607 137.226C121.656 138.182 123.876 138.719 126.135 138.805C128.833 138.901 131.515 138.361 133.965 137.226C134.011 137.205 134.06 137.192 134.111 137.19C134.162 137.188 134.212 137.195 134.26 137.213C134.307 137.23 134.351 137.257 134.388 137.291C134.426 137.325 134.456 137.366 134.477 137.412C134.498 137.458 134.51 137.508 134.512 137.559C134.514 137.609 134.506 137.66 134.489 137.707C134.471 137.755 134.444 137.798 134.41 137.835C134.375 137.872 134.334 137.902 134.288 137.923C131.932 139.012 129.368 139.579 126.773 139.584Z" fill="#343434"/>
<path d="M102.5 104.361C102.402 104.362 102.308 104.324 102.236 104.257C102.165 104.19 102.122 104.098 102.116 104.001L101.889 100.095C101.884 99.9934 101.918 99.8934 101.986 99.8172C102.054 99.7411 102.15 99.695 102.251 99.6892C102.353 99.6833 102.453 99.7182 102.529 99.786C102.605 99.8539 102.652 99.9492 102.657 100.051L102.884 103.954C102.887 104.005 102.88 104.055 102.864 104.103C102.847 104.151 102.822 104.195 102.788 104.233C102.754 104.271 102.714 104.302 102.668 104.324C102.623 104.346 102.573 104.359 102.523 104.361H102.5Z" fill="#343434"/>
<path d="M106.394 104.077C106.296 104.078 106.201 104.04 106.13 103.973C106.059 103.906 106.016 103.814 106.01 103.716L105.783 99.8112C105.78 99.7608 105.787 99.7103 105.804 99.6626C105.821 99.6149 105.846 99.5709 105.88 99.5332C105.914 99.4955 105.954 99.4648 106 99.4428C106.045 99.4208 106.095 99.408 106.145 99.4051C106.196 99.4022 106.246 99.4093 106.294 99.4259C106.341 99.4425 106.385 99.4684 106.423 99.502C106.461 99.5356 106.492 99.5763 106.514 99.6218C106.536 99.6672 106.548 99.7166 106.551 99.767L106.778 103.68C106.781 103.73 106.774 103.781 106.758 103.829C106.741 103.877 106.715 103.921 106.682 103.958C106.648 103.996 106.608 104.027 106.562 104.049C106.517 104.071 106.467 104.084 106.417 104.087L106.394 104.077Z" fill="#343434"/>
<path d="M107.043 160.925H76.0059V154.214H107.043C107.471 154.214 107.883 154.385 108.186 154.688C108.489 154.991 108.659 155.402 108.659 155.831V159.306C108.66 159.519 108.618 159.729 108.537 159.926C108.456 160.122 108.337 160.3 108.186 160.451C108.036 160.601 107.858 160.72 107.662 160.802C107.466 160.883 107.255 160.925 107.043 160.925Z" fill="#343434"/>
<path d="M79.51 160.925H43.1336C42.4556 160.931 41.7936 160.718 41.2463 160.318C40.699 159.918 40.2956 159.351 40.0962 158.703L31.1893 128.506C30.6133 126.549 32.1282 124.6 34.2268 124.6H68.5333C69.2412 124.592 69.931 124.824 70.4905 125.257C71.05 125.691 71.4463 126.301 71.6149 126.989L79.51 160.925Z" fill="#343434"/>
<path d="M53.0907 150.666C55.8742 150.666 58.1307 148.41 58.1307 145.626C58.1307 142.843 55.8742 140.586 53.0907 140.586C50.3071 140.586 48.0507 142.843 48.0507 145.626C48.0507 148.41 50.3071 150.666 53.0907 150.666Z" fill="#F7A097"/>
<path d="M51.9829 142.044C51.8969 142.043 51.8134 142.014 51.7459 141.961C51.6784 141.908 51.6307 141.833 51.6104 141.75L51.0076 139.281C50.9956 139.232 50.9934 139.181 51.0011 139.131C51.0088 139.081 51.0262 139.033 51.0524 138.99C51.1054 138.903 51.1908 138.84 51.2898 138.816C51.3888 138.792 51.4934 138.808 51.5806 138.861C51.6677 138.914 51.7303 138.999 51.7544 139.098L52.3573 141.567C52.3694 141.616 52.3716 141.667 52.3639 141.717C52.3562 141.767 52.3388 141.815 52.3126 141.858C52.2864 141.901 52.2519 141.939 52.2111 141.969C52.1704 141.999 52.1241 142.02 52.0751 142.032C52.0449 142.04 52.014 142.043 51.9829 142.044Z" fill="#6DC8C2"/>
<path d="M99.7064 57.7189C98.413 57.7208 97.148 57.339 96.0717 56.6218C94.9953 55.9046 94.1559 54.8842 93.6596 53.6898C93.1633 52.4954 93.0325 51.1806 93.2836 49.9118C93.5348 48.643 94.1567 47.4772 95.0706 46.562C95.9845 45.6467 97.1494 45.0231 98.4178 44.7701C99.6863 44.517 101.001 44.6459 102.196 45.1405C103.392 45.635 104.413 46.4729 105.132 47.5482C105.851 48.6236 106.234 49.8879 106.234 51.1813C106.232 52.9128 105.544 54.5727 104.32 55.7979C103.097 57.0231 101.438 57.7139 99.7064 57.7189ZM99.7064 45.4117C98.5672 45.4117 97.4535 45.7496 96.5063 46.3825C95.5591 47.0154 94.8208 47.915 94.3848 48.9675C93.9489 50.02 93.8348 51.1781 94.0571 52.2955C94.2793 53.4128 94.8279 54.4391 95.6334 55.2447C96.439 56.0502 97.4653 56.5988 98.5827 56.8211C99.7 57.0433 100.858 56.9292 101.911 56.4933C102.963 56.0573 103.863 55.319 104.496 54.3718C105.129 53.4246 105.466 52.311 105.466 51.1717C105.462 49.6453 104.854 48.1826 103.775 47.1033C102.696 46.0239 101.233 45.4158 99.7064 45.4117Z" fill="white"/>
<path d="M99.9772 28.4258H99.4377C98.6148 28.4258 97.9478 29.0928 97.9478 29.9157V42.2306C97.9478 43.0534 98.6148 43.7205 99.4377 43.7205H99.9772C100.8 43.7205 101.467 43.0534 101.467 42.2306V29.9157C101.467 29.0928 100.8 28.4258 99.9772 28.4258Z" fill="#343434"/>
<path d="M99.426 39.4541C95.3614 39.5154 91.3884 40.6713 87.9252 42.7999C84.4619 44.9285 81.6365 47.9513 79.746 51.5501C79.6811 51.6728 79.649 51.8102 79.6529 51.9489C79.6568 52.0877 79.6965 52.2231 79.7682 52.3419C79.8399 52.4608 79.9412 52.5591 80.0621 52.6272C80.183 52.6954 80.3195 52.7311 80.4584 52.7309H118.964C119.103 52.7308 119.239 52.6948 119.36 52.6265C119.48 52.5582 119.581 52.4599 119.653 52.3411C119.724 52.2223 119.764 52.087 119.767 51.9484C119.771 51.8098 119.739 51.6726 119.674 51.5501C117.739 47.8664 114.824 44.7881 111.252 42.654C107.679 40.5199 103.587 39.4126 99.426 39.4541Z" fill="#F7A097"/>
<path d="M87.8792 49.0463C85.3524 49.0463 83.2923 47.3394 83.2616 47.3183C83.1837 47.2526 83.135 47.1586 83.1264 47.0571C83.1177 46.9556 83.1498 46.8547 83.2155 46.7768C83.2812 46.6989 83.3751 46.6503 83.4767 46.6417C83.5782 46.633 83.679 46.6651 83.7569 46.7308C83.9259 46.8728 87.9195 50.1637 91.3294 46.7538L91.5617 46.5215L91.8286 46.7135C92.0206 46.8517 96.5172 50.0696 99.8369 46.7519L100.062 46.5253L100.327 46.7058C101.082 47.1907 101.91 47.5535 102.778 47.781C104.574 48.2341 106.06 47.8885 107.194 46.7519L107.432 46.5138L107.699 46.7173C107.878 46.8536 112.129 50.0312 115.41 46.7519C115.483 46.6856 115.579 46.6498 115.677 46.6521C115.776 46.6543 115.87 46.6944 115.939 46.764C116.009 46.8335 116.05 46.9273 116.052 47.0258C116.055 47.1244 116.019 47.2202 115.953 47.2933C112.701 50.5458 108.586 48.2245 107.505 47.5141C106.204 48.6661 104.504 49.0156 102.567 48.5202C101.721 48.2961 100.91 47.9548 100.158 47.5064C96.8936 50.4767 92.7368 48.1996 91.6462 47.5064C90.3963 48.6565 89.0849 49.0463 87.8792 49.0463Z" fill="#EE786B"/>
<path d="M76.9928 150.839C76.9102 150.837 76.8305 150.808 76.7655 150.757C76.7005 150.706 76.6538 150.635 76.6322 150.555C76.6106 150.476 76.6154 150.391 76.6458 150.314C76.6761 150.237 76.7305 150.172 76.8008 150.129C78.0488 149.361 79.3429 148.647 80.6408 147.984C82.3688 147.111 84.1487 146.312 85.9496 145.611C86.0446 145.574 86.1503 145.576 86.2436 145.617C86.3369 145.659 86.41 145.735 86.4469 145.83C86.4838 145.925 86.4815 146.031 86.4405 146.124C86.3994 146.217 86.323 146.29 86.228 146.327C84.4501 147.018 82.6875 147.806 80.9883 148.67C79.7039 149.322 78.429 150.035 77.1944 150.782C77.1341 150.82 77.0642 150.84 76.9928 150.839Z" fill="#343434"/>
<path d="M27.4357 139.787L29.661 131.362H17.037L19.0415 139.88C16.7648 140.873 14.9016 142.623 13.7676 144.833C12.6337 147.043 12.2986 149.577 12.8193 152.006C13.3401 154.434 14.6845 156.608 16.6248 158.159C18.5651 159.71 20.9819 160.542 23.4657 160.515C25.9494 160.488 28.3474 159.603 30.2532 158.01C32.159 156.417 33.4553 154.214 33.9226 151.774C34.3898 149.334 33.9993 146.808 32.817 144.624C31.6348 142.439 29.7336 140.731 27.4357 139.787Z" fill="white"/>
<path d="M23.348 160.896C20.8152 160.894 18.3586 160.03 16.3823 158.445C14.4061 156.861 13.0281 154.651 12.475 152.18C11.9219 149.708 12.2266 147.122 13.3392 144.846C14.4517 142.571 16.3057 140.742 18.596 139.661L16.5512 130.979H30.1582L27.8926 139.565C30.2229 140.607 32.1251 142.417 33.2816 144.692C34.4381 146.968 34.7788 149.572 34.2469 152.068C33.715 154.565 32.3426 156.803 30.359 158.41C28.3754 160.017 25.9006 160.894 23.348 160.896ZM17.5208 131.747L19.4888 140.104L19.195 140.231C16.9989 141.189 15.2016 142.876 14.1075 145.008C13.0134 147.139 12.69 149.584 13.192 151.926C13.694 154.269 14.9905 156.366 16.8619 157.862C18.7332 159.358 21.0643 160.161 23.46 160.135C25.8558 160.109 28.1688 159.255 30.007 157.719C31.8453 156.182 33.0958 154.057 33.5466 151.704C33.9973 149.351 33.6206 146.915 32.4803 144.807C31.34 142.7 29.5062 141.052 27.2898 140.143L26.9787 140.014L29.1618 131.747H17.5208Z" fill="#343434"/>
<path d="M23.3442 132.409C27.117 132.409 30.1755 131.761 30.1755 130.961C30.1755 130.162 27.117 129.514 23.3442 129.514C19.5713 129.514 16.5128 130.162 16.5128 130.961C16.5128 131.761 19.5713 132.409 23.3442 132.409Z" fill="#343434"/>
<path d="M21.4855 132.127C21.4072 132.126 21.3308 132.102 21.2666 132.057C21.2024 132.012 21.1535 131.949 21.1265 131.875C18.7956 125.52 13.9783 120.355 13.9303 120.311C13.8957 120.274 13.8686 120.231 13.8506 120.184C13.8326 120.137 13.824 120.087 13.8255 120.036C13.8269 119.986 13.8382 119.936 13.8589 119.89C13.8795 119.844 13.909 119.802 13.9457 119.768C13.9824 119.733 14.0255 119.706 14.0727 119.688C14.1198 119.67 14.1701 119.661 14.2205 119.663C14.271 119.664 14.3207 119.676 14.3668 119.696C14.4128 119.717 14.4544 119.746 14.489 119.783C14.539 119.837 19.4618 125.105 21.8465 131.61C21.8795 131.705 21.8743 131.808 21.832 131.899C21.7897 131.99 21.7136 132.061 21.6199 132.096C21.5772 132.114 21.5318 132.124 21.4855 132.127Z" fill="#343434"/>
<path d="M24.5615 132.179C24.4596 132.179 24.362 132.138 24.29 132.066C24.2179 131.994 24.1775 131.896 24.1775 131.795V126.296C24.1775 126.194 24.2179 126.096 24.29 126.024C24.362 125.952 24.4596 125.912 24.5615 125.912C24.6633 125.912 24.761 125.952 24.833 126.024C24.905 126.096 24.9455 126.194 24.9455 126.296V131.795C24.9455 131.896 24.905 131.994 24.833 132.066C24.761 132.138 24.6633 132.179 24.5615 132.179Z" fill="#343434"/>
<path d="M16.1538 116.467H14.516C14.4853 116.383 14.4507 116.3 14.4143 116.219L15.6066 115.163C15.7328 115.055 15.8362 114.922 15.9107 114.773C15.9853 114.624 16.0295 114.462 16.0408 114.295C16.0521 114.129 16.0302 113.963 15.9765 113.805C15.9228 113.647 15.8383 113.502 15.7279 113.377C15.6175 113.252 15.4834 113.151 15.3335 113.078C15.1835 113.006 15.0206 112.964 14.8543 112.955C14.6879 112.945 14.5214 112.97 14.3645 113.025C14.2076 113.081 14.0633 113.168 13.94 113.28L12.6843 114.391C12.6651 114.409 12.6498 114.43 12.6306 114.449C12.5519 114.413 12.4712 114.38 12.3887 114.349V112.827C12.3759 112.501 12.2378 112.194 12.0032 111.968C11.7685 111.742 11.4556 111.616 11.1301 111.616C10.8046 111.616 10.4917 111.742 10.257 111.968C10.0224 112.194 9.88424 112.501 9.87154 112.827V114.349C9.75517 114.392 9.64109 114.441 9.52978 114.495C9.49443 114.451 9.45592 114.41 9.41458 114.372L8.1493 113.28C7.89464 113.077 7.57127 112.98 7.24705 113.011C6.92283 113.041 6.62295 113.196 6.41033 113.442C6.19771 113.689 6.08888 114.008 6.10668 114.334C6.12448 114.659 6.26751 114.964 6.50578 115.186L7.77682 116.283C7.78686 116.291 7.7978 116.299 7.80946 116.306C7.78642 116.359 7.76722 116.415 7.7461 116.471H6.16786C5.83598 116.472 5.51816 116.605 5.28367 116.84C5.04918 117.075 4.91703 117.393 4.91602 117.725C4.91602 118.058 5.04845 118.378 5.28424 118.615C5.52003 118.851 5.8399 118.984 6.17362 118.984H7.7365L7.7749 119.088H7.76338L6.50578 120.199C6.26823 120.424 6.1273 120.732 6.11274 121.059C6.09819 121.385 6.21116 121.705 6.42778 121.949C6.64441 122.194 6.94772 122.345 7.27362 122.371C7.59951 122.396 7.92248 122.293 8.17426 122.085L9.42994 120.973L9.45682 120.944C9.59412 121.019 9.73657 121.083 9.88306 121.136V122.646C9.89576 122.971 10.0339 123.279 10.2686 123.504C10.5032 123.73 10.8161 123.856 11.1416 123.856C11.4671 123.856 11.78 123.73 12.0147 123.504C12.2493 123.279 12.3875 122.971 12.4002 122.646V121.152C12.4866 121.119 12.573 121.085 12.6575 121.044L13.8901 122.106C14.1439 122.323 14.4737 122.431 14.8067 122.405C15.1398 122.379 15.4489 122.222 15.6661 121.968C15.8833 121.714 15.9907 121.384 15.9648 121.051C15.9389 120.718 15.7817 120.409 15.5279 120.192L14.4335 119.247C14.4719 119.161 14.5064 119.072 14.5391 118.984H16.1538C16.4878 118.984 16.8082 118.851 17.0444 118.615C17.2806 118.379 17.4133 118.059 17.4133 117.725C17.4128 117.391 17.2799 117.071 17.0437 116.835C16.8076 116.599 16.4875 116.467 16.1538 116.467Z" fill="#C7B8F8"/>
<path d="M16.1538 116.467H14.516C14.4853 116.383 14.4507 116.3 14.4143 116.219L15.6066 115.163C15.7328 115.055 15.8362 114.922 15.9107 114.773C15.9853 114.624 16.0295 114.462 16.0408 114.295C16.0521 114.129 16.0302 113.963 15.9765 113.805C15.9228 113.647 15.8383 113.502 15.7279 113.377C15.6175 113.252 15.4834 113.151 15.3335 113.078C15.1835 113.006 15.0206 112.964 14.8543 112.955C14.6879 112.945 14.5214 112.97 14.3645 113.025C14.2076 113.081 14.0633 113.168 13.94 113.28L12.6843 114.391C12.6651 114.409 12.6498 114.43 12.6306 114.449C12.5519 114.413 12.4712 114.38 12.3887 114.349V112.827C12.3759 112.501 12.2378 112.194 12.0032 111.968C11.7685 111.742 11.4556 111.616 11.1301 111.616C10.8046 111.616 10.4917 111.742 10.257 111.968C10.0224 112.194 9.88424 112.501 9.87154 112.827V114.349C9.75517 114.392 9.64109 114.441 9.52978 114.495C9.49443 114.451 9.45592 114.41 9.41458 114.372L8.1493 113.28C7.89464 113.077 7.57127 112.98 7.24705 113.011C6.92283 113.041 6.62295 113.196 6.41033 113.442C6.19771 113.689 6.08888 114.008 6.10668 114.334C6.12448 114.659 6.26751 114.964 6.50578 115.186L7.77682 116.283C7.78686 116.291 7.7978 116.299 7.80946 116.306C7.78642 116.359 7.76722 116.415 7.7461 116.471H6.16786C5.83598 116.472 5.51816 116.605 5.28367 116.84C5.04918 117.075 4.91703 117.393 4.91602 117.725C4.91602 118.058 5.04845 118.378 5.28424 118.615C5.52003 118.851 5.8399 118.984 6.17362 118.984H7.7365L7.7749 119.088H7.76338L6.50578 120.199C6.26823 120.424 6.1273 120.732 6.11274 121.059C6.09819 121.385 6.21116 121.705 6.42778 121.949C6.64441 122.194 6.94772 122.345 7.27362 122.371C7.59951 122.396 7.92248 122.293 8.17426 122.085L9.42994 120.973L9.45682 120.944C9.59412 121.019 9.73657 121.083 9.88306 121.136V122.646C9.89576 122.971 10.0339 123.279 10.2686 123.504C10.5032 123.73 10.8161 123.856 11.1416 123.856C11.4671 123.856 11.78 123.73 12.0147 123.504C12.2493 123.279 12.3875 122.971 12.4002 122.646V121.152C12.4866 121.119 12.573 121.085 12.6575 121.044L13.8901 122.106C14.1439 122.323 14.4737 122.431 14.8067 122.405C15.1398 122.379 15.4489 122.222 15.6661 121.968C15.8833 121.714 15.9907 121.384 15.9648 121.051C15.9389 120.718 15.7817 120.409 15.5279 120.192L14.4335 119.247C14.4719 119.161 14.5064 119.072 14.5391 118.984H16.1538C16.4878 118.984 16.8082 118.851 17.0444 118.615C17.2806 118.379 17.4133 118.059 17.4133 117.725C17.4128 117.391 17.2799 117.071 17.0437 116.835C16.8076 116.599 16.4875 116.467 16.1538 116.467Z" fill="#C7B8F8"/>
<path d="M16.1538 116.467H14.516C14.4853 116.383 14.4507 116.3 14.4143 116.219L15.6066 115.163C15.7328 115.055 15.8362 114.922 15.9107 114.773C15.9853 114.624 16.0295 114.462 16.0408 114.295C16.0521 114.129 16.0302 113.963 15.9765 113.805C15.9228 113.647 15.8383 113.502 15.7279 113.377C15.6175 113.252 15.4834 113.151 15.3335 113.078C15.1835 113.006 15.0206 112.964 14.8543 112.955C14.6879 112.945 14.5214 112.97 14.3645 113.025C14.2076 113.081 14.0633 113.168 13.94 113.28L12.6843 114.391C12.6651 114.409 12.6498 114.43 12.6306 114.449C12.5519 114.413 12.4712 114.38 12.3887 114.349V112.827C12.3759 112.501 12.2378 112.194 12.0032 111.968C11.7685 111.742 11.4556 111.616 11.1301 111.616C10.8046 111.616 10.4917 111.742 10.257 111.968C10.0224 112.194 9.88424 112.501 9.87154 112.827V114.349C9.75517 114.392 9.64109 114.441 9.52978 114.495C9.49443 114.451 9.45592 114.41 9.41458 114.372L8.1493 113.28C7.89464 113.077 7.57127 112.98 7.24705 113.011C6.92283 113.041 6.62295 113.196 6.41033 113.442C6.19771 113.689 6.08888 114.008 6.10668 114.334C6.12448 114.659 6.26751 114.964 6.50578 115.186L7.77682 116.283C7.78686 116.291 7.7978 116.299 7.80946 116.306C7.78642 116.359 7.76722 116.415 7.7461 116.471H6.16786C5.83598 116.472 5.51816 116.605 5.28367 116.84C5.04918 117.075 4.91703 117.393 4.91602 117.725C4.91602 118.058 5.04845 118.378 5.28424 118.615C5.52003 118.851 5.8399 118.984 6.17362 118.984H7.7365L7.7749 119.088H7.76338L6.50578 120.199C6.26823 120.424 6.1273 120.732 6.11274 121.059C6.09819 121.385 6.21116 121.705 6.42778 121.949C6.64441 122.194 6.94772 122.345 7.27362 122.371C7.59951 122.396 7.92248 122.293 8.17426 122.085L9.42994 120.973L9.45682 120.944C9.59412 121.019 9.73657 121.083 9.88306 121.136V122.646C9.89576 122.971 10.0339 123.279 10.2686 123.504C10.5032 123.73 10.8161 123.856 11.1416 123.856C11.4671 123.856 11.78 123.73 12.0147 123.504C12.2493 123.279 12.3875 122.971 12.4002 122.646V121.152C12.4866 121.119 12.573 121.085 12.6575 121.044L13.8901 122.106C14.1439 122.323 14.4737 122.431 14.8067 122.405C15.1398 122.379 15.4489 122.222 15.6661 121.968C15.8833 121.714 15.9907 121.384 15.9648 121.051C15.9389 120.718 15.7817 120.409 15.5279 120.192L14.4335 119.247C14.4719 119.161 14.5064 119.072 14.5391 118.984H16.1538C16.4878 118.984 16.8082 118.851 17.0444 118.615C17.2806 118.379 17.4133 118.059 17.4133 117.725C17.4128 117.391 17.2799 117.071 17.0437 116.835C16.8076 116.599 16.4875 116.467 16.1538 116.467Z" fill="#C7B8F8"/>
<path d="M16.1538 116.467H14.516C14.4853 116.383 14.4507 116.3 14.4143 116.219L15.6066 115.163C15.7328 115.055 15.8362 114.922 15.9107 114.773C15.9853 114.624 16.0295 114.462 16.0408 114.295C16.0521 114.129 16.0302 113.963 15.9765 113.805C15.9228 113.647 15.8383 113.502 15.7279 113.377C15.6175 113.252 15.4834 113.151 15.3335 113.078C15.1835 113.006 15.0206 112.964 14.8543 112.955C14.6879 112.945 14.5214 112.97 14.3645 113.025C14.2076 113.081 14.0633 113.168 13.94 113.28L12.6843 114.391C12.6651 114.409 12.6498 114.43 12.6306 114.449C12.5519 114.413 12.4712 114.38 12.3887 114.349V112.827C12.3759 112.501 12.2378 112.194 12.0032 111.968C11.7685 111.742 11.4556 111.616 11.1301 111.616C10.8046 111.616 10.4917 111.742 10.257 111.968C10.0224 112.194 9.88424 112.501 9.87154 112.827V114.349C9.75517 114.392 9.64109 114.441 9.52978 114.495C9.49443 114.451 9.45592 114.41 9.41458 114.372L8.1493 113.28C7.89464 113.077 7.57127 112.98 7.24705 113.011C6.92283 113.041 6.62295 113.196 6.41033 113.442C6.19771 113.689 6.08888 114.008 6.10668 114.334C6.12448 114.659 6.26751 114.964 6.50578 115.186L7.77682 116.283C7.78686 116.291 7.7978 116.299 7.80946 116.306C7.78642 116.359 7.76722 116.415 7.7461 116.471H6.16786C5.83598 116.472 5.51816 116.605 5.28367 116.84C5.04918 117.075 4.91703 117.393 4.91602 117.725C4.91602 118.058 5.04845 118.378 5.28424 118.615C5.52003 118.851 5.8399 118.984 6.17362 118.984H7.7365L7.7749 119.088H7.76338L6.50578 120.199C6.26823 120.424 6.1273 120.732 6.11274 121.059C6.09819 121.385 6.21116 121.705 6.42778 121.949C6.64441 122.194 6.94772 122.345 7.27362 122.371C7.59951 122.396 7.92248 122.293 8.17426 122.085L9.42994 120.973L9.45682 120.944C9.59412 121.019 9.73657 121.083 9.88306 121.136V122.646C9.89576 122.971 10.0339 123.279 10.2686 123.504C10.5032 123.73 10.8161 123.856 11.1416 123.856C11.4671 123.856 11.78 123.73 12.0147 123.504C12.2493 123.279 12.3875 122.971 12.4002 122.646V121.152C12.4866 121.119 12.573 121.085 12.6575 121.044L13.8901 122.106C14.1439 122.323 14.4737 122.431 14.8067 122.405C15.1398 122.379 15.4489 122.222 15.6661 121.968C15.8833 121.714 15.9907 121.384 15.9648 121.051C15.9389 120.718 15.7817 120.409 15.5279 120.192L14.4335 119.247C14.4719 119.161 14.5064 119.072 14.5391 118.984H16.1538C16.4878 118.984 16.8082 118.851 17.0444 118.615C17.2806 118.379 17.4133 118.059 17.4133 117.725C17.4128 117.391 17.2799 117.071 17.0437 116.835C16.8076 116.599 16.4875 116.467 16.1538 116.467Z" fill="#C7B8F8"/>
<path d="M16.1538 116.467H14.516C14.4853 116.383 14.4507 116.3 14.4143 116.219L15.6066 115.163C15.7328 115.055 15.8362 114.922 15.9107 114.773C15.9853 114.624 16.0295 114.462 16.0408 114.295C16.0521 114.129 16.0302 113.963 15.9765 113.805C15.9228 113.647 15.8383 113.502 15.7279 113.377C15.6175 113.252 15.4834 113.151 15.3335 113.078C15.1835 113.006 15.0206 112.964 14.8543 112.955C14.6879 112.945 14.5214 112.97 14.3645 113.025C14.2076 113.081 14.0633 113.168 13.94 113.28L12.6843 114.391C12.6651 114.409 12.6498 114.43 12.6306 114.449C12.5519 114.413 12.4712 114.38 12.3887 114.349V112.827C12.3759 112.501 12.2378 112.194 12.0032 111.968C11.7685 111.742 11.4556 111.616 11.1301 111.616C10.8046 111.616 10.4917 111.742 10.257 111.968C10.0224 112.194 9.88424 112.501 9.87154 112.827V114.349C9.75517 114.392 9.64109 114.441 9.52978 114.495C9.49443 114.451 9.45592 114.41 9.41458 114.372L8.1493 113.28C7.89464 113.077 7.57127 112.98 7.24705 113.011C6.92283 113.041 6.62295 113.196 6.41033 113.442C6.19771 113.689 6.08888 114.008 6.10668 114.334C6.12448 114.659 6.26751 114.964 6.50578 115.186L7.77682 116.283C7.78686 116.291 7.7978 116.299 7.80946 116.306C7.78642 116.359 7.76722 116.415 7.7461 116.471H6.16786C5.83598 116.472 5.51816 116.605 5.28367 116.84C5.04918 117.075 4.91703 117.393 4.91602 117.725C4.91602 118.058 5.04845 118.378 5.28424 118.615C5.52003 118.851 5.8399 118.984 6.17362 118.984H7.7365L7.7749 119.088H7.76338L6.50578 120.199C6.26823 120.424 6.1273 120.732 6.11274 121.059C6.09819 121.385 6.21116 121.705 6.42778 121.949C6.64441 122.194 6.94772 122.345 7.27362 122.371C7.59951 122.396 7.92248 122.293 8.17426 122.085L9.42994 120.973L9.45682 120.944C9.59412 121.019 9.73657 121.083 9.88306 121.136V122.646C9.89576 122.971 10.0339 123.279 10.2686 123.504C10.5032 123.73 10.8161 123.856 11.1416 123.856C11.4671 123.856 11.78 123.73 12.0147 123.504C12.2493 123.279 12.3875 122.971 12.4002 122.646V121.152C12.4866 121.119 12.573 121.085 12.6575 121.044L13.8901 122.106C14.1439 122.323 14.4737 122.431 14.8067 122.405C15.1398 122.379 15.4489 122.222 15.6661 121.968C15.8833 121.714 15.9907 121.384 15.9648 121.051C15.9389 120.718 15.7817 120.409 15.5279 120.192L14.4335 119.247C14.4719 119.161 14.5064 119.072 14.5391 118.984H16.1538C16.4878 118.984 16.8082 118.851 17.0444 118.615C17.2806 118.379 17.4133 118.059 17.4133 117.725C17.4128 117.391 17.2799 117.071 17.0437 116.835C16.8076 116.599 16.4875 116.467 16.1538 116.467Z" fill="#C7B8F8"/>
<path d="M16.1538 116.467H14.516C14.4853 116.383 14.4507 116.3 14.4143 116.219L15.6066 115.163C15.7328 115.055 15.8362 114.922 15.9107 114.773C15.9853 114.624 16.0295 114.462 16.0408 114.295C16.0521 114.129 16.0302 113.963 15.9765 113.805C15.9228 113.647 15.8383 113.502 15.7279 113.377C15.6175 113.252 15.4834 113.151 15.3335 113.078C15.1835 113.006 15.0206 112.964 14.8543 112.955C14.6879 112.945 14.5214 112.97 14.3645 113.025C14.2076 113.081 14.0633 113.168 13.94 113.28L12.6843 114.391C12.6651 114.409 12.6498 114.43 12.6306 114.449C12.5519 114.413 12.4712 114.38 12.3887 114.349V112.827C12.3759 112.501 12.2378 112.194 12.0032 111.968C11.7685 111.742 11.4556 111.616 11.1301 111.616C10.8046 111.616 10.4917 111.742 10.257 111.968C10.0224 112.194 9.88424 112.501 9.87154 112.827V114.349C9.75517 114.392 9.64109 114.441 9.52978 114.495C9.49443 114.451 9.45592 114.41 9.41458 114.372L8.1493 113.28C7.89464 113.077 7.57127 112.98 7.24705 113.011C6.92283 113.041 6.62295 113.196 6.41033 113.442C6.19771 113.689 6.08888 114.008 6.10668 114.334C6.12448 114.659 6.26751 114.964 6.50578 115.186L7.77682 116.283C7.78686 116.291 7.7978 116.299 7.80946 116.306C7.78642 116.359 7.76722 116.415 7.7461 116.471H6.16786C5.83598 116.472 5.51816 116.605 5.28367 116.84C5.04918 117.075 4.91703 117.393 4.91602 117.725C4.91602 118.058 5.04845 118.378 5.28424 118.615C5.52003 118.851 5.8399 118.984 6.17362 118.984H7.7365L7.7749 119.088H7.76338L6.50578 120.199C6.26823 120.424 6.1273 120.732 6.11274 121.059C6.09819 121.385 6.21116 121.705 6.42778 121.949C6.64441 122.194 6.94772 122.345 7.27362 122.371C7.59951 122.396 7.92248 122.293 8.17426 122.085L9.42994 120.973L9.45682 120.944C9.59412 121.019 9.73657 121.083 9.88306 121.136V122.646C9.89576 122.971 10.0339 123.279 10.2686 123.504C10.5032 123.73 10.8161 123.856 11.1416 123.856C11.4671 123.856 11.78 123.73 12.0147 123.504C12.2493 123.279 12.3875 122.971 12.4002 122.646V121.152C12.4866 121.119 12.573 121.085 12.6575 121.044L13.8901 122.106C14.1439 122.323 14.4737 122.431 14.8067 122.405C15.1398 122.379 15.4489 122.222 15.6661 121.968C15.8833 121.714 15.9907 121.384 15.9648 121.051C15.9389 120.718 15.7817 120.409 15.5279 120.192L14.4335 119.247C14.4719 119.161 14.5064 119.072 14.5391 118.984H16.1538C16.4878 118.984 16.8082 118.851 17.0444 118.615C17.2806 118.379 17.4133 118.059 17.4133 117.725C17.4128 117.391 17.2799 117.071 17.0437 116.835C16.8076 116.599 16.4875 116.467 16.1538 116.467Z" fill="#C7B8F8"/>
<path d="M16.1538 116.467H14.516C14.4853 116.383 14.4507 116.3 14.4143 116.219L15.6066 115.163C15.7328 115.055 15.8362 114.922 15.9107 114.773C15.9853 114.624 16.0295 114.462 16.0408 114.295C16.0521 114.129 16.0302 113.963 15.9765 113.805C15.9228 113.647 15.8383 113.502 15.7279 113.377C15.6175 113.252 15.4834 113.151 15.3335 113.078C15.1835 113.006 15.0206 112.964 14.8543 112.955C14.6879 112.945 14.5214 112.97 14.3645 113.025C14.2076 113.081 14.0633 113.168 13.94 113.28L12.6843 114.391C12.6651 114.409 12.6498 114.43 12.6306 114.449C12.5519 114.413 12.4712 114.38 12.3887 114.349V112.827C12.3759 112.501 12.2378 112.194 12.0032 111.968C11.7685 111.742 11.4556 111.616 11.1301 111.616C10.8046 111.616 10.4917 111.742 10.257 111.968C10.0224 112.194 9.88424 112.501 9.87154 112.827V114.349C9.75517 114.392 9.64109 114.441 9.52978 114.495C9.49443 114.451 9.45592 114.41 9.41458 114.372L8.1493 113.28C7.89464 113.077 7.57127 112.98 7.24705 113.011C6.92283 113.041 6.62295 113.196 6.41033 113.442C6.19771 113.689 6.08888 114.008 6.10668 114.334C6.12448 114.659 6.26751 114.964 6.50578 115.186L7.77682 116.283C7.78686 116.291 7.7978 116.299 7.80946 116.306C7.78642 116.359 7.76722 116.415 7.7461 116.471H6.16786C5.83598 116.472 5.51816 116.605 5.28367 116.84C5.04918 117.075 4.91703 117.393 4.91602 117.725C4.91602 118.058 5.04845 118.378 5.28424 118.615C5.52003 118.851 5.8399 118.984 6.17362 118.984H7.7365L7.7749 119.088H7.76338L6.50578 120.199C6.26823 120.424 6.1273 120.732 6.11274 121.059C6.09819 121.385 6.21116 121.705 6.42778 121.949C6.64441 122.194 6.94772 122.345 7.27362 122.371C7.59951 122.396 7.92248 122.293 8.17426 122.085L9.42994 120.973L9.45682 120.944C9.59412 121.019 9.73657 121.083 9.88306 121.136V122.646C9.89576 122.971 10.0339 123.279 10.2686 123.504C10.5032 123.73 10.8161 123.856 11.1416 123.856C11.4671 123.856 11.78 123.73 12.0147 123.504C12.2493 123.279 12.3875 122.971 12.4002 122.646V121.152C12.4866 121.119 12.573 121.085 12.6575 121.044L13.8901 122.106C14.1439 122.323 14.4737 122.431 14.8067 122.405C15.1398 122.379 15.4489 122.222 15.6661 121.968C15.8833 121.714 15.9907 121.384 15.9648 121.051C15.9389 120.718 15.7817 120.409 15.5279 120.192L14.4335 119.247C14.4719 119.161 14.5064 119.072 14.5391 118.984H16.1538C16.4878 118.984 16.8082 118.851 17.0444 118.615C17.2806 118.379 17.4133 118.059 17.4133 117.725C17.4128 117.391 17.2799 117.071 17.0437 116.835C16.8076 116.599 16.4875 116.467 16.1538 116.467Z" fill="#6AAED9"/>
<path d="M29.5554 121.104H27.9253C27.8946 121.02 27.8601 120.939 27.8217 120.858L29.0159 119.802C29.2534 119.578 29.3944 119.27 29.4089 118.943C29.4235 118.617 29.3105 118.297 29.0939 118.052C28.8773 117.808 28.574 117.657 28.2481 117.631C27.9222 117.606 27.5992 117.708 27.3474 117.917L26.0917 119.029C26.0728 119.047 26.0549 119.066 26.038 119.086C25.9592 119.05 25.8767 119.017 25.7941 118.986V117.464C25.7814 117.139 25.6433 116.831 25.4086 116.605C25.174 116.38 24.8611 116.253 24.5356 116.253C24.21 116.253 23.8971 116.38 23.6625 116.605C23.4279 116.831 23.2897 117.139 23.277 117.464V118.986C23.1618 119.029 23.0485 119.079 22.9372 119.132C22.9013 119.089 22.8628 119.048 22.822 119.009L21.5509 117.913C21.4269 117.798 21.2809 117.708 21.1215 117.651C20.9622 117.593 20.7928 117.568 20.6236 117.577C20.4543 117.586 20.2887 117.63 20.1366 117.704C19.9845 117.779 19.8491 117.884 19.7384 118.012C19.6277 118.141 19.5441 118.29 19.4926 118.452C19.441 118.613 19.4226 118.783 19.4383 118.952C19.4541 119.121 19.5038 119.285 19.5844 119.434C19.665 119.583 19.7749 119.714 19.9074 119.82L21.1765 120.916C21.1876 120.924 21.1991 120.932 21.2111 120.939C21.1881 120.993 21.1669 121.048 21.1477 121.104H19.5695C19.236 121.104 18.9161 121.237 18.6802 121.472C18.4444 121.708 18.3119 122.028 18.3119 122.362C18.3119 122.695 18.4443 123.016 18.6801 123.252C18.9159 123.488 19.2358 123.621 19.5695 123.621H21.1324C21.1439 123.656 21.1573 123.692 21.1708 123.727C21.1708 123.727 21.1708 123.727 21.1592 123.727L19.9017 124.839C19.7716 124.946 19.6645 125.079 19.5867 125.229C19.509 125.379 19.4622 125.543 19.4491 125.711C19.4361 125.88 19.457 126.049 19.5107 126.209C19.5644 126.369 19.6497 126.517 19.7617 126.643C19.8736 126.77 20.0098 126.873 20.1622 126.945C20.3146 127.018 20.4801 127.059 20.6488 127.067C20.8175 127.074 20.986 127.048 21.1443 126.989C21.3026 126.93 21.4474 126.84 21.5701 126.724L22.8258 125.612L22.8527 125.585C22.9899 125.658 23.1316 125.723 23.277 125.777V127.296C23.2897 127.621 23.4279 127.929 23.6625 128.155C23.8971 128.38 24.21 128.506 24.5356 128.506C24.8611 128.506 25.174 128.38 25.4086 128.155C25.6433 127.929 25.7814 127.621 25.7941 127.296V125.779C25.8825 125.747 25.9688 125.712 26.0533 125.672L27.284 126.734C27.4091 126.842 27.5542 126.924 27.7111 126.976C27.868 127.028 28.0336 127.048 28.1984 127.036C28.3632 127.024 28.5241 126.98 28.6718 126.906C28.8194 126.832 28.951 126.729 29.0591 126.604C29.1671 126.479 29.2495 126.334 29.3014 126.177C29.3534 126.02 29.3739 125.854 29.3619 125.69C29.3499 125.525 29.3055 125.364 29.2313 125.216C29.1571 125.069 29.0546 124.937 28.9295 124.829L27.8332 123.884C27.8735 123.798 27.908 123.71 27.9407 123.621H29.5554C29.8891 123.621 30.209 123.488 30.4448 123.252C30.6806 123.016 30.813 122.695 30.813 122.362C30.813 122.197 30.7805 122.033 30.7173 121.88C30.6541 121.728 30.5614 121.589 30.4447 121.472C30.3279 121.356 30.1893 121.263 30.0367 121.2C29.8841 121.137 29.7206 121.104 29.5554 121.104Z" fill="#C7B8F8"/>
<path d="M29.5554 121.104H27.9253C27.8946 121.02 27.8601 120.939 27.8217 120.858L29.0159 119.802C29.2534 119.578 29.3944 119.27 29.4089 118.943C29.4235 118.617 29.3105 118.297 29.0939 118.052C28.8773 117.808 28.574 117.657 28.2481 117.631C27.9222 117.606 27.5992 117.708 27.3474 117.917L26.0917 119.029C26.0728 119.047 26.0549 119.066 26.038 119.086C25.9592 119.05 25.8767 119.017 25.7941 118.986V117.464C25.7814 117.139 25.6433 116.831 25.4086 116.605C25.174 116.38 24.8611 116.253 24.5356 116.253C24.21 116.253 23.8971 116.38 23.6625 116.605C23.4279 116.831 23.2897 117.139 23.277 117.464V118.986C23.1618 119.029 23.0485 119.079 22.9372 119.132C22.9013 119.089 22.8628 119.048 22.822 119.009L21.5509 117.913C21.4269 117.798 21.2809 117.708 21.1215 117.651C20.9622 117.593 20.7928 117.568 20.6236 117.577C20.4543 117.586 20.2887 117.63 20.1366 117.704C19.9845 117.779 19.8491 117.884 19.7384 118.012C19.6277 118.141 19.5441 118.29 19.4926 118.452C19.441 118.613 19.4226 118.783 19.4383 118.952C19.4541 119.121 19.5038 119.285 19.5844 119.434C19.665 119.583 19.7749 119.714 19.9074 119.82L21.1765 120.916C21.1876 120.924 21.1991 120.932 21.2111 120.939C21.1881 120.993 21.1669 121.048 21.1477 121.104H19.5695C19.236 121.104 18.9161 121.237 18.6802 121.472C18.4444 121.708 18.3119 122.028 18.3119 122.362C18.3119 122.695 18.4443 123.016 18.6801 123.252C18.9159 123.488 19.2358 123.621 19.5695 123.621H21.1324C21.1439 123.656 21.1573 123.692 21.1708 123.727C21.1708 123.727 21.1708 123.727 21.1592 123.727L19.9017 124.839C19.7716 124.946 19.6645 125.079 19.5867 125.229C19.509 125.379 19.4622 125.543 19.4491 125.711C19.4361 125.88 19.457 126.049 19.5107 126.209C19.5644 126.369 19.6497 126.517 19.7617 126.643C19.8736 126.77 20.0098 126.873 20.1622 126.945C20.3146 127.018 20.4801 127.059 20.6488 127.067C20.8175 127.074 20.986 127.048 21.1443 126.989C21.3026 126.93 21.4474 126.84 21.5701 126.724L22.8258 125.612L22.8527 125.585C22.9899 125.658 23.1316 125.723 23.277 125.777V127.296C23.2897 127.621 23.4279 127.929 23.6625 128.155C23.8971 128.38 24.21 128.506 24.5356 128.506C24.8611 128.506 25.174 128.38 25.4086 128.155C25.6433 127.929 25.7814 127.621 25.7941 127.296V125.779C25.8825 125.747 25.9688 125.712 26.0533 125.672L27.284 126.734C27.4091 126.842 27.5542 126.924 27.7111 126.976C27.868 127.028 28.0336 127.048 28.1984 127.036C28.3632 127.024 28.5241 126.98 28.6718 126.906C28.8194 126.832 28.951 126.729 29.0591 126.604C29.1671 126.479 29.2495 126.334 29.3014 126.177C29.3534 126.02 29.3739 125.854 29.3619 125.69C29.3499 125.525 29.3055 125.364 29.2313 125.216C29.1571 125.069 29.0546 124.937 28.9295 124.829L27.8332 123.884C27.8735 123.798 27.908 123.71 27.9407 123.621H29.5554C29.8891 123.621 30.209 123.488 30.4448 123.252C30.6806 123.016 30.813 122.695 30.813 122.362C30.813 122.197 30.7805 122.033 30.7173 121.88C30.6541 121.728 30.5614 121.589 30.4447 121.472C30.3279 121.356 30.1893 121.263 30.0367 121.2C29.8841 121.137 29.7206 121.104 29.5554 121.104Z" fill="#C7B8F8"/>
<path d="M29.5554 121.104H27.9253C27.8946 121.02 27.8601 120.939 27.8217 120.858L29.0159 119.802C29.2534 119.578 29.3944 119.27 29.4089 118.943C29.4235 118.617 29.3105 118.297 29.0939 118.052C28.8773 117.808 28.574 117.657 28.2481 117.631C27.9222 117.606 27.5992 117.708 27.3474 117.917L26.0917 119.029C26.0728 119.047 26.0549 119.066 26.038 119.086C25.9592 119.05 25.8767 119.017 25.7941 118.986V117.464C25.7814 117.139 25.6433 116.831 25.4086 116.605C25.174 116.38 24.8611 116.253 24.5356 116.253C24.21 116.253 23.8971 116.38 23.6625 116.605C23.4279 116.831 23.2897 117.139 23.277 117.464V118.986C23.1618 119.029 23.0485 119.079 22.9372 119.132C22.9013 119.089 22.8628 119.048 22.822 119.009L21.5509 117.913C21.4269 117.798 21.2809 117.708 21.1215 117.651C20.9622 117.593 20.7928 117.568 20.6236 117.577C20.4543 117.586 20.2887 117.63 20.1366 117.704C19.9845 117.779 19.8491 117.884 19.7384 118.012C19.6277 118.141 19.5441 118.29 19.4926 118.452C19.441 118.613 19.4226 118.783 19.4383 118.952C19.4541 119.121 19.5038 119.285 19.5844 119.434C19.665 119.583 19.7749 119.714 19.9074 119.82L21.1765 120.916C21.1876 120.924 21.1991 120.932 21.2111 120.939C21.1881 120.993 21.1669 121.048 21.1477 121.104H19.5695C19.236 121.104 18.9161 121.237 18.6802 121.472C18.4444 121.708 18.3119 122.028 18.3119 122.362C18.3119 122.695 18.4443 123.016 18.6801 123.252C18.9159 123.488 19.2358 123.621 19.5695 123.621H21.1324C21.1439 123.656 21.1573 123.692 21.1708 123.727C21.1708 123.727 21.1708 123.727 21.1592 123.727L19.9017 124.839C19.7716 124.946 19.6645 125.079 19.5867 125.229C19.509 125.379 19.4622 125.543 19.4491 125.711C19.4361 125.88 19.457 126.049 19.5107 126.209C19.5644 126.369 19.6497 126.517 19.7617 126.643C19.8736 126.77 20.0098 126.873 20.1622 126.945C20.3146 127.018 20.4801 127.059 20.6488 127.067C20.8175 127.074 20.986 127.048 21.1443 126.989C21.3026 126.93 21.4474 126.84 21.5701 126.724L22.8258 125.612L22.8527 125.585C22.9899 125.658 23.1316 125.723 23.277 125.777V127.296C23.2897 127.621 23.4279 127.929 23.6625 128.155C23.8971 128.38 24.21 128.506 24.5356 128.506C24.8611 128.506 25.174 128.38 25.4086 128.155C25.6433 127.929 25.7814 127.621 25.7941 127.296V125.779C25.8825 125.747 25.9688 125.712 26.0533 125.672L27.284 126.734C27.4091 126.842 27.5542 126.924 27.7111 126.976C27.868 127.028 28.0336 127.048 28.1984 127.036C28.3632 127.024 28.5241 126.98 28.6718 126.906C28.8194 126.832 28.951 126.729 29.0591 126.604C29.1671 126.479 29.2495 126.334 29.3014 126.177C29.3534 126.02 29.3739 125.854 29.3619 125.69C29.3499 125.525 29.3055 125.364 29.2313 125.216C29.1571 125.069 29.0546 124.937 28.9295 124.829L27.8332 123.884C27.8735 123.798 27.908 123.71 27.9407 123.621H29.5554C29.8891 123.621 30.209 123.488 30.4448 123.252C30.6806 123.016 30.813 122.695 30.813 122.362C30.813 122.197 30.7805 122.033 30.7173 121.88C30.6541 121.728 30.5614 121.589 30.4447 121.472C30.3279 121.356 30.1893 121.263 30.0367 121.2C29.8841 121.137 29.7206 121.104 29.5554 121.104Z" fill="#C7B8F8"/>
<path d="M29.5554 121.104H27.9253C27.8946 121.02 27.8601 120.939 27.8217 120.858L29.0159 119.802C29.2534 119.578 29.3944 119.27 29.4089 118.943C29.4235 118.617 29.3105 118.297 29.0939 118.052C28.8773 117.808 28.574 117.657 28.2481 117.631C27.9222 117.606 27.5992 117.708 27.3474 117.917L26.0917 119.029C26.0728 119.047 26.0549 119.066 26.038 119.086C25.9592 119.05 25.8767 119.017 25.7941 118.986V117.464C25.7814 117.139 25.6433 116.831 25.4086 116.605C25.174 116.38 24.8611 116.253 24.5356 116.253C24.21 116.253 23.8971 116.38 23.6625 116.605C23.4279 116.831 23.2897 117.139 23.277 117.464V118.986C23.1618 119.029 23.0485 119.079 22.9372 119.132C22.9013 119.089 22.8628 119.048 22.822 119.009L21.5509 117.913C21.4269 117.798 21.2809 117.708 21.1215 117.651C20.9622 117.593 20.7928 117.568 20.6236 117.577C20.4543 117.586 20.2887 117.63 20.1366 117.704C19.9845 117.779 19.8491 117.884 19.7384 118.012C19.6277 118.141 19.5441 118.29 19.4926 118.452C19.441 118.613 19.4226 118.783 19.4383 118.952C19.4541 119.121 19.5038 119.285 19.5844 119.434C19.665 119.583 19.7749 119.714 19.9074 119.82L21.1765 120.916C21.1876 120.924 21.1991 120.932 21.2111 120.939C21.1881 120.993 21.1669 121.048 21.1477 121.104H19.5695C19.236 121.104 18.9161 121.237 18.6802 121.472C18.4444 121.708 18.3119 122.028 18.3119 122.362C18.3119 122.695 18.4443 123.016 18.6801 123.252C18.9159 123.488 19.2358 123.621 19.5695 123.621H21.1324C21.1439 123.656 21.1573 123.692 21.1708 123.727C21.1708 123.727 21.1708 123.727 21.1592 123.727L19.9017 124.839C19.7716 124.946 19.6645 125.079 19.5867 125.229C19.509 125.379 19.4622 125.543 19.4491 125.711C19.4361 125.88 19.457 126.049 19.5107 126.209C19.5644 126.369 19.6497 126.517 19.7617 126.643C19.8736 126.77 20.0098 126.873 20.1622 126.945C20.3146 127.018 20.4801 127.059 20.6488 127.067C20.8175 127.074 20.986 127.048 21.1443 126.989C21.3026 126.93 21.4474 126.84 21.5701 126.724L22.8258 125.612L22.8527 125.585C22.9899 125.658 23.1316 125.723 23.277 125.777V127.296C23.2897 127.621 23.4279 127.929 23.6625 128.155C23.8971 128.38 24.21 128.506 24.5356 128.506C24.8611 128.506 25.174 128.38 25.4086 128.155C25.6433 127.929 25.7814 127.621 25.7941 127.296V125.779C25.8825 125.747 25.9688 125.712 26.0533 125.672L27.284 126.734C27.4091 126.842 27.5542 126.924 27.7111 126.976C27.868 127.028 28.0336 127.048 28.1984 127.036C28.3632 127.024 28.5241 126.98 28.6718 126.906C28.8194 126.832 28.951 126.729 29.0591 126.604C29.1671 126.479 29.2495 126.334 29.3014 126.177C29.3534 126.02 29.3739 125.854 29.3619 125.69C29.3499 125.525 29.3055 125.364 29.2313 125.216C29.1571 125.069 29.0546 124.937 28.9295 124.829L27.8332 123.884C27.8735 123.798 27.908 123.71 27.9407 123.621H29.5554C29.8891 123.621 30.209 123.488 30.4448 123.252C30.6806 123.016 30.813 122.695 30.813 122.362C30.813 122.197 30.7805 122.033 30.7173 121.88C30.6541 121.728 30.5614 121.589 30.4447 121.472C30.3279 121.356 30.1893 121.263 30.0367 121.2C29.8841 121.137 29.7206 121.104 29.5554 121.104Z" fill="#C7B8F8"/>
<path d="M29.5554 121.104H27.9253C27.8946 121.02 27.8601 120.939 27.8217 120.858L29.0159 119.802C29.2534 119.578 29.3944 119.27 29.4089 118.943C29.4235 118.617 29.3105 118.297 29.0939 118.052C28.8773 117.808 28.574 117.657 28.2481 117.631C27.9222 117.606 27.5992 117.708 27.3474 117.917L26.0917 119.029C26.0728 119.047 26.0549 119.066 26.038 119.086C25.9592 119.05 25.8767 119.017 25.7941 118.986V117.464C25.7814 117.139 25.6433 116.831 25.4086 116.605C25.174 116.38 24.8611 116.253 24.5356 116.253C24.21 116.253 23.8971 116.38 23.6625 116.605C23.4279 116.831 23.2897 117.139 23.277 117.464V118.986C23.1618 119.029 23.0485 119.079 22.9372 119.132C22.9013 119.089 22.8628 119.048 22.822 119.009L21.5509 117.913C21.4269 117.798 21.2809 117.708 21.1215 117.651C20.9622 117.593 20.7928 117.568 20.6236 117.577C20.4543 117.586 20.2887 117.63 20.1366 117.704C19.9845 117.779 19.8491 117.884 19.7384 118.012C19.6277 118.141 19.5441 118.29 19.4926 118.452C19.441 118.613 19.4226 118.783 19.4383 118.952C19.4541 119.121 19.5038 119.285 19.5844 119.434C19.665 119.583 19.7749 119.714 19.9074 119.82L21.1765 120.916C21.1876 120.924 21.1991 120.932 21.2111 120.939C21.1881 120.993 21.1669 121.048 21.1477 121.104H19.5695C19.236 121.104 18.9161 121.237 18.6802 121.472C18.4444 121.708 18.3119 122.028 18.3119 122.362C18.3119 122.695 18.4443 123.016 18.6801 123.252C18.9159 123.488 19.2358 123.621 19.5695 123.621H21.1324C21.1439 123.656 21.1573 123.692 21.1708 123.727C21.1708 123.727 21.1708 123.727 21.1592 123.727L19.9017 124.839C19.7716 124.946 19.6645 125.079 19.5867 125.229C19.509 125.379 19.4622 125.543 19.4491 125.711C19.4361 125.88 19.457 126.049 19.5107 126.209C19.5644 126.369 19.6497 126.517 19.7617 126.643C19.8736 126.77 20.0098 126.873 20.1622 126.945C20.3146 127.018 20.4801 127.059 20.6488 127.067C20.8175 127.074 20.986 127.048 21.1443 126.989C21.3026 126.93 21.4474 126.84 21.5701 126.724L22.8258 125.612L22.8527 125.585C22.9899 125.658 23.1316 125.723 23.277 125.777V127.296C23.2897 127.621 23.4279 127.929 23.6625 128.155C23.8971 128.38 24.21 128.506 24.5356 128.506C24.8611 128.506 25.174 128.38 25.4086 128.155C25.6433 127.929 25.7814 127.621 25.7941 127.296V125.779C25.8825 125.747 25.9688 125.712 26.0533 125.672L27.284 126.734C27.4091 126.842 27.5542 126.924 27.7111 126.976C27.868 127.028 28.0336 127.048 28.1984 127.036C28.3632 127.024 28.5241 126.98 28.6718 126.906C28.8194 126.832 28.951 126.729 29.0591 126.604C29.1671 126.479 29.2495 126.334 29.3014 126.177C29.3534 126.02 29.3739 125.854 29.3619 125.69C29.3499 125.525 29.3055 125.364 29.2313 125.216C29.1571 125.069 29.0546 124.937 28.9295 124.829L27.8332 123.884C27.8735 123.798 27.908 123.71 27.9407 123.621H29.5554C29.8891 123.621 30.209 123.488 30.4448 123.252C30.6806 123.016 30.813 122.695 30.813 122.362C30.813 122.197 30.7805 122.033 30.7173 121.88C30.6541 121.728 30.5614 121.589 30.4447 121.472C30.3279 121.356 30.1893 121.263 30.0367 121.2C29.8841 121.137 29.7206 121.104 29.5554 121.104Z" fill="#C7B8F8"/>
<path d="M29.5554 121.104H27.9253C27.8946 121.02 27.8601 120.939 27.8217 120.858L29.0159 119.802C29.2534 119.578 29.3944 119.27 29.4089 118.943C29.4235 118.617 29.3105 118.297 29.0939 118.052C28.8773 117.808 28.574 117.657 28.2481 117.631C27.9222 117.606 27.5992 117.708 27.3474 117.917L26.0917 119.029C26.0728 119.047 26.0549 119.066 26.038 119.086C25.9592 119.05 25.8767 119.017 25.7941 118.986V117.464C25.7814 117.139 25.6433 116.831 25.4086 116.605C25.174 116.38 24.8611 116.253 24.5356 116.253C24.21 116.253 23.8971 116.38 23.6625 116.605C23.4279 116.831 23.2897 117.139 23.277 117.464V118.986C23.1618 119.029 23.0485 119.079 22.9372 119.132C22.9013 119.089 22.8628 119.048 22.822 119.009L21.5509 117.913C21.4269 117.798 21.2809 117.708 21.1215 117.651C20.9622 117.593 20.7928 117.568 20.6236 117.577C20.4543 117.586 20.2887 117.63 20.1366 117.704C19.9845 117.779 19.8491 117.884 19.7384 118.012C19.6277 118.141 19.5441 118.29 19.4926 118.452C19.441 118.613 19.4226 118.783 19.4383 118.952C19.4541 119.121 19.5038 119.285 19.5844 119.434C19.665 119.583 19.7749 119.714 19.9074 119.82L21.1765 120.916C21.1876 120.924 21.1991 120.932 21.2111 120.939C21.1881 120.993 21.1669 121.048 21.1477 121.104H19.5695C19.236 121.104 18.9161 121.237 18.6802 121.472C18.4444 121.708 18.3119 122.028 18.3119 122.362C18.3119 122.695 18.4443 123.016 18.6801 123.252C18.9159 123.488 19.2358 123.621 19.5695 123.621H21.1324C21.1439 123.656 21.1573 123.692 21.1708 123.727C21.1708 123.727 21.1708 123.727 21.1592 123.727L19.9017 124.839C19.7716 124.946 19.6645 125.079 19.5867 125.229C19.509 125.379 19.4622 125.543 19.4491 125.711C19.4361 125.88 19.457 126.049 19.5107 126.209C19.5644 126.369 19.6497 126.517 19.7617 126.643C19.8736 126.77 20.0098 126.873 20.1622 126.945C20.3146 127.018 20.4801 127.059 20.6488 127.067C20.8175 127.074 20.986 127.048 21.1443 126.989C21.3026 126.93 21.4474 126.84 21.5701 126.724L22.8258 125.612L22.8527 125.585C22.9899 125.658 23.1316 125.723 23.277 125.777V127.296C23.2897 127.621 23.4279 127.929 23.6625 128.155C23.8971 128.38 24.21 128.506 24.5356 128.506C24.8611 128.506 25.174 128.38 25.4086 128.155C25.6433 127.929 25.7814 127.621 25.7941 127.296V125.779C25.8825 125.747 25.9688 125.712 26.0533 125.672L27.284 126.734C27.4091 126.842 27.5542 126.924 27.7111 126.976C27.868 127.028 28.0336 127.048 28.1984 127.036C28.3632 127.024 28.5241 126.98 28.6718 126.906C28.8194 126.832 28.951 126.729 29.0591 126.604C29.1671 126.479 29.2495 126.334 29.3014 126.177C29.3534 126.02 29.3739 125.854 29.3619 125.69C29.3499 125.525 29.3055 125.364 29.2313 125.216C29.1571 125.069 29.0546 124.937 28.9295 124.829L27.8332 123.884C27.8735 123.798 27.908 123.71 27.9407 123.621H29.5554C29.8891 123.621 30.209 123.488 30.4448 123.252C30.6806 123.016 30.813 122.695 30.813 122.362C30.813 122.197 30.7805 122.033 30.7173 121.88C30.6541 121.728 30.5614 121.589 30.4447 121.472C30.3279 121.356 30.1893 121.263 30.0367 121.2C29.8841 121.137 29.7206 121.104 29.5554 121.104Z" fill="#C7B8F8"/>
<path d="M29.5554 121.104H27.9253C27.8946 121.02 27.8601 120.939 27.8217 120.858L29.0159 119.802C29.2534 119.578 29.3944 119.27 29.4089 118.943C29.4235 118.617 29.3105 118.297 29.0939 118.052C28.8773 117.808 28.574 117.657 28.2481 117.631C27.9222 117.606 27.5992 117.708 27.3474 117.917L26.0917 119.029C26.0728 119.047 26.0549 119.066 26.038 119.086C25.9592 119.05 25.8767 119.017 25.7941 118.986V117.464C25.7814 117.139 25.6433 116.831 25.4086 116.605C25.174 116.38 24.8611 116.253 24.5356 116.253C24.21 116.253 23.8971 116.38 23.6625 116.605C23.4279 116.831 23.2897 117.139 23.277 117.464V118.986C23.1618 119.029 23.0485 119.079 22.9372 119.132C22.9013 119.089 22.8628 119.048 22.822 119.009L21.5509 117.913C21.4269 117.798 21.2809 117.708 21.1215 117.651C20.9622 117.593 20.7928 117.568 20.6236 117.577C20.4543 117.586 20.2887 117.63 20.1366 117.704C19.9845 117.779 19.8491 117.884 19.7384 118.012C19.6277 118.141 19.5441 118.29 19.4926 118.452C19.441 118.613 19.4226 118.783 19.4383 118.952C19.4541 119.121 19.5038 119.285 19.5844 119.434C19.665 119.583 19.7749 119.714 19.9074 119.82L21.1765 120.916C21.1876 120.924 21.1991 120.932 21.2111 120.939C21.1881 120.993 21.1669 121.048 21.1477 121.104H19.5695C19.236 121.104 18.9161 121.237 18.6802 121.472C18.4444 121.708 18.3119 122.028 18.3119 122.362C18.3119 122.695 18.4443 123.016 18.6801 123.252C18.9159 123.488 19.2358 123.621 19.5695 123.621H21.1324C21.1439 123.656 21.1573 123.692 21.1708 123.727C21.1708 123.727 21.1708 123.727 21.1592 123.727L19.9017 124.839C19.7716 124.946 19.6645 125.079 19.5867 125.229C19.509 125.379 19.4622 125.543 19.4491 125.711C19.4361 125.88 19.457 126.049 19.5107 126.209C19.5644 126.369 19.6497 126.517 19.7617 126.643C19.8736 126.77 20.0098 126.873 20.1622 126.945C20.3146 127.018 20.4801 127.059 20.6488 127.067C20.8175 127.074 20.986 127.048 21.1443 126.989C21.3026 126.93 21.4474 126.84 21.5701 126.724L22.8258 125.612L22.8527 125.585C22.9899 125.658 23.1316 125.723 23.277 125.777V127.296C23.2897 127.621 23.4279 127.929 23.6625 128.155C23.8971 128.38 24.21 128.506 24.5356 128.506C24.8611 128.506 25.174 128.38 25.4086 128.155C25.6433 127.929 25.7814 127.621 25.7941 127.296V125.779C25.8825 125.747 25.9688 125.712 26.0533 125.672L27.284 126.734C27.4091 126.842 27.5542 126.924 27.7111 126.976C27.868 127.028 28.0336 127.048 28.1984 127.036C28.3632 127.024 28.5241 126.98 28.6718 126.906C28.8194 126.832 28.951 126.729 29.0591 126.604C29.1671 126.479 29.2495 126.334 29.3014 126.177C29.3534 126.02 29.3739 125.854 29.3619 125.69C29.3499 125.525 29.3055 125.364 29.2313 125.216C29.1571 125.069 29.0546 124.937 28.9295 124.829L27.8332 123.884C27.8735 123.798 27.908 123.71 27.9407 123.621H29.5554C29.8891 123.621 30.209 123.488 30.4448 123.252C30.6806 123.016 30.813 122.695 30.813 122.362C30.813 122.197 30.7805 122.033 30.7173 121.88C30.6541 121.728 30.5614 121.589 30.4447 121.472C30.3279 121.356 30.1893 121.263 30.0367 121.2C29.8841 121.137 29.7206 121.104 29.5554 121.104Z" fill="#6AAED9"/>
<path d="M11.1617 119.405C12.0821 119.405 12.8282 118.659 12.8282 117.738C12.8282 116.818 12.0821 116.072 11.1617 116.072C10.2413 116.072 9.49512 116.818 9.49512 117.738C9.49512 118.659 10.2413 119.405 11.1617 119.405Z" fill="white"/>
<path d="M24.5634 124.132C25.4838 124.132 26.23 123.386 26.23 122.465C26.23 121.545 25.4838 120.799 24.5634 120.799C23.643 120.799 22.8969 121.545 22.8969 122.465C22.8969 123.386 23.643 124.132 24.5634 124.132Z" fill="white"/>
<path d="M26.7522 152.592C26.1279 152.592 25.5176 152.407 24.9985 152.06C24.4795 151.713 24.0749 151.22 23.836 150.643C23.5971 150.067 23.5346 149.432 23.6564 148.82C23.7781 148.207 24.0788 147.645 24.5202 147.203C24.9617 146.762 25.5241 146.461 26.1364 146.34C26.7487 146.218 27.3833 146.28 27.9601 146.519C28.5369 146.758 29.0299 147.163 29.3767 147.682C29.7235 148.201 29.9087 148.811 29.9087 149.435C29.9076 150.272 29.5748 151.075 28.983 151.666C28.3913 152.258 27.589 152.591 26.7522 152.592ZM26.7522 147.047C26.2798 147.047 25.818 147.187 25.4252 147.449C25.0324 147.712 24.7263 148.085 24.5455 148.521C24.3647 148.958 24.3174 149.438 24.4096 149.901C24.5018 150.365 24.7292 150.79 25.0633 151.124C25.3973 151.458 25.8229 151.686 26.2862 151.778C26.7495 151.87 27.2298 151.823 27.6662 151.642C28.1027 151.461 28.4757 151.155 28.7381 150.762C29.0006 150.37 29.1407 149.908 29.1407 149.435C29.1391 148.802 28.887 148.196 28.4394 147.748C27.9918 147.301 27.3852 147.048 26.7522 147.047Z" fill="#343434"/>
<path d="M21.7793 157.843C21.3468 157.843 20.924 157.715 20.5643 157.475C20.2047 157.234 19.9244 156.893 19.7589 156.493C19.5934 156.094 19.55 155.654 19.6344 155.23C19.7188 154.805 19.9271 154.416 20.2329 154.11C20.5388 153.804 20.9284 153.596 21.3526 153.511C21.7769 153.427 22.2166 153.47 22.6162 153.636C23.0158 153.801 23.3573 154.082 23.5976 154.441C23.8379 154.801 23.9662 155.224 23.9662 155.656C23.9657 156.236 23.7351 156.792 23.3251 157.202C22.9151 157.612 22.3591 157.843 21.7793 157.843ZM21.7793 154.237C21.4987 154.237 21.2243 154.321 20.991 154.477C20.7577 154.632 20.5758 154.854 20.4684 155.113C20.361 155.373 20.3329 155.658 20.3877 155.933C20.4424 156.208 20.5776 156.461 20.776 156.66C20.9744 156.858 21.2272 156.993 21.5025 157.048C21.7777 157.103 22.063 157.075 22.3223 156.967C22.5815 156.86 22.8031 156.678 22.959 156.445C23.115 156.211 23.1982 155.937 23.1982 155.656C23.1977 155.28 23.048 154.92 22.782 154.654C22.516 154.388 22.1554 154.238 21.7793 154.237Z" fill="#343434"/>
<path d="M66.3579 72.9601H31.435C29.0895 72.9601 27.188 74.8615 27.188 77.2071V98.5345C27.188 100.88 29.0895 102.782 31.435 102.782H66.3579C68.7035 102.782 70.6049 100.88 70.6049 98.5345V77.2071C70.6049 74.8615 68.7035 72.9601 66.3579 72.9601Z" fill="white"/>
<path d="M66.3579 103.165H31.435C30.2072 103.164 29.0302 102.675 28.162 101.807C27.2939 100.939 26.8055 99.762 26.804 98.5343V77.2069C26.8055 75.9791 27.2939 74.8021 28.162 73.9339C29.0302 73.0658 30.2072 72.5774 31.435 72.5759H66.3579C67.5856 72.5774 68.7627 73.0658 69.6308 73.9339C70.499 74.8021 70.9874 75.9791 70.9889 77.2069V98.5343C70.9874 99.762 70.499 100.939 69.6308 101.807C68.7627 102.675 67.5856 103.164 66.3579 103.165ZM31.435 73.3439C30.4108 73.3449 29.4288 73.7522 28.7045 74.4764C27.9803 75.2007 27.573 76.1827 27.572 77.2069V98.5343C27.573 99.5585 27.9803 100.54 28.7045 101.265C29.4288 101.989 30.4108 102.396 31.435 102.397H66.3579C67.3819 102.396 68.3636 101.988 69.0878 101.264C69.8119 100.54 70.2194 99.5583 70.2209 98.5343V77.2069C70.2199 76.1827 69.8126 75.2007 69.0883 74.4764C68.3641 73.7522 67.3821 73.3449 66.3579 73.3439H31.435Z" fill="#343434"/>
<path d="M50.8616 83.8635C51.5773 83.8635 52.1576 83.2833 52.1576 82.5675C52.1576 81.8518 51.5773 81.2715 50.8616 81.2715C50.1458 81.2715 49.5656 81.8518 49.5656 82.5675C49.5656 83.2833 50.1458 83.8635 50.8616 83.8635Z" fill="#FFC1EB"/>
<path d="M55.3506 83.8635C56.0663 83.8635 56.6466 83.2833 56.6466 82.5675C56.6466 81.8518 56.0663 81.2715 55.3506 81.2715C54.6348 81.2715 54.0546 81.8518 54.0546 82.5675C54.0546 83.2833 54.6348 83.8635 55.3506 83.8635Z" fill="#FFC1EB"/>
<path d="M59.8414 83.8635C60.5572 83.8635 61.1374 83.2833 61.1374 82.5675C61.1374 81.8518 60.5572 81.2715 59.8414 81.2715C59.1256 81.2715 58.5454 81.8518 58.5454 82.5675C58.5454 83.2833 59.1256 83.8635 59.8414 83.8635Z" fill="#FFC1EB"/>
<path d="M64.3323 83.8635C65.048 83.8635 65.6283 83.2833 65.6283 82.5675C65.6283 81.8518 65.048 81.2715 64.3323 81.2715C63.6165 81.2715 63.0363 81.8518 63.0363 82.5675C63.0363 83.2833 63.6165 83.8635 64.3323 83.8635Z" fill="#FFC1EB"/>
<path d="M38.3355 88.8978C39.7256 88.8978 40.8526 87.7709 40.8526 86.3807C40.8526 84.9905 39.7256 83.8636 38.3355 83.8636C36.9453 83.8636 35.8184 84.9905 35.8184 86.3807C35.8184 87.7709 36.9453 88.8978 38.3355 88.8978Z" fill="#6AAED9"/>
<path d="M38.1127 90.1841C37.274 90.1785 36.4475 90.3859 35.7107 90.7868C34.9739 91.1878 34.351 91.7692 33.9003 92.4766C35.1114 93.4351 36.6 93.9763 38.1439 94.0196C39.6878 94.0628 41.2044 93.6058 42.4673 92.7166C42.0351 91.9429 41.4028 91.2997 40.6368 90.8542C39.8707 90.4086 38.9989 90.1772 38.1127 90.1841Z" fill="#6AAED9"/>
<path d="M65.6283 87.7956H49.3083C49.2065 87.7956 49.1088 87.7552 49.0368 87.6832C48.9648 87.6112 48.9243 87.5135 48.9243 87.4116C48.9243 87.3098 48.9648 87.2121 49.0368 87.1401C49.1088 87.0681 49.2065 87.0276 49.3083 87.0276H65.6283C65.7302 87.0276 65.8278 87.0681 65.8998 87.1401C65.9719 87.2121 66.0123 87.3098 66.0123 87.4116C66.0123 87.5135 65.9719 87.6112 65.8998 87.6832C65.8278 87.7552 65.7302 87.7956 65.6283 87.7956Z" fill="#343434"/>
<path d="M65.6283 90.81H49.3083C49.2065 90.81 49.1088 90.7695 49.0368 90.6975C48.9648 90.6255 48.9243 90.5278 48.9243 90.426C48.9243 90.3241 48.9648 90.2265 49.0368 90.1545C49.1088 90.0824 49.2065 90.042 49.3083 90.042H65.6283C65.7302 90.042 65.8278 90.0824 65.8998 90.1545C65.9719 90.2265 66.0123 90.3241 66.0123 90.426C66.0123 90.5278 65.9719 90.6255 65.8998 90.6975C65.8278 90.7695 65.7302 90.81 65.6283 90.81Z" fill="#343434"/>
<path d="M59.5668 93.8284H49.3159C49.214 93.8284 49.1164 93.7879 49.0444 93.7159C48.9723 93.6439 48.9319 93.5462 48.9319 93.4444C48.9319 93.3425 48.9723 93.2448 49.0444 93.1728C49.1164 93.1008 49.214 93.0604 49.3159 93.0604H59.5668C59.6686 93.0604 59.7663 93.1008 59.8383 93.1728C59.9103 93.2448 59.9508 93.3425 59.9508 93.4444C59.9508 93.5462 59.9103 93.6439 59.8383 93.7159C59.7663 93.7879 59.6686 93.8284 59.5668 93.8284Z" fill="#343434"/>
<path d="M38.1837 94.2008C36.8444 94.2008 35.5351 93.8036 34.4215 93.0595C33.3079 92.3154 32.4399 91.2578 31.9273 90.0204C31.4148 88.783 31.2807 87.4214 31.542 86.1078C31.8033 84.7942 32.4482 83.5876 33.3953 82.6405C34.3424 81.6935 35.549 81.0485 36.8626 80.7872C38.1762 80.5259 39.5378 80.66 40.7752 81.1726C42.0126 81.6851 43.0702 82.5531 43.8143 83.6667C44.5584 84.7803 44.9556 86.0896 44.9556 87.4289C44.9535 89.2243 44.2394 90.9456 42.9699 92.2151C41.7004 93.4846 39.9791 94.1988 38.1837 94.2008ZM38.1837 81.427C36.9962 81.427 35.8353 81.7792 34.848 82.439C33.8606 83.0988 33.0911 84.0366 32.6367 85.1337C32.1823 86.2309 32.0635 87.4382 32.2954 88.6029C32.5272 89.7675 33.0992 90.8373 33.939 91.6769C34.7789 92.5165 35.8488 93.0881 37.0136 93.3196C38.1783 93.551 39.3856 93.4319 40.4826 92.9771C41.5796 92.5224 42.5172 91.7526 43.1766 90.765C43.8361 89.7774 44.1879 88.6165 44.1876 87.4289C44.1855 85.8374 43.5523 84.3117 42.4267 83.1865C41.3012 82.0613 39.7752 81.4285 38.1837 81.427Z" fill="#343434"/>
</svg>
