<svg width="294" height="134" viewBox="0 0 294 134" fill="none" xmlns="http://www.w3.org/2000/svg">
<path d="M34.364 129.194C33.2882 129.194 32.3743 129 31.6225 128.611C30.8707 128.222 30.1967 127.652 29.6005 126.9L31.117 125.384C31.4929 125.928 31.9401 126.356 32.4586 126.667C32.9771 126.965 33.6381 127.114 34.4418 127.114C35.1936 127.114 35.7898 126.958 36.2305 126.647C36.6842 126.336 36.911 125.909 36.911 125.364C36.911 124.91 36.7944 124.541 36.5611 124.256C36.3278 123.971 36.0167 123.737 35.6278 123.556C35.2519 123.362 34.8306 123.193 34.364 123.05C33.9103 122.895 33.4502 122.726 32.9835 122.545C32.5299 122.35 32.1086 122.111 31.7198 121.826C31.3439 121.54 31.0392 121.171 30.8059 120.717C30.5726 120.264 30.456 119.687 30.456 118.987C30.456 118.183 30.6504 117.503 31.0392 116.945C31.4411 116.375 31.979 115.941 32.653 115.643C33.327 115.345 34.0788 115.195 34.9084 115.195C35.8028 115.195 36.6 115.37 37.2999 115.72C38.0128 116.07 38.5896 116.518 39.0303 117.062L37.5138 118.579C37.1249 118.138 36.7166 117.814 36.2889 117.606C35.8741 117.386 35.3945 117.276 34.8501 117.276C34.1761 117.276 33.6446 117.412 33.2558 117.684C32.8799 117.956 32.6919 118.339 32.6919 118.831C32.6919 119.246 32.8086 119.583 33.0419 119.842C33.2752 120.089 33.5798 120.302 33.9557 120.484C34.3446 120.652 34.7658 120.814 35.2195 120.97C35.6861 121.126 36.1463 121.301 36.6 121.495C37.0666 121.689 37.4879 121.942 37.8638 122.253C38.2526 122.551 38.5637 122.94 38.797 123.42C39.0303 123.899 39.147 124.502 39.147 125.228C39.147 126.446 38.7128 127.412 37.8443 128.125C36.9888 128.838 35.8287 129.194 34.364 129.194ZM41.1042 129V119.667H43.2429V129H41.1042ZM42.1736 117.956C41.8106 117.956 41.506 117.833 41.2597 117.587C41.0264 117.341 40.9098 117.036 40.9098 116.673C40.9098 116.31 41.0264 116.006 41.2597 115.759C41.506 115.513 41.8106 115.39 42.1736 115.39C42.5495 115.39 42.8541 115.513 43.0874 115.759C43.3207 116.006 43.4374 116.31 43.4374 116.673C43.4374 117.036 43.3207 117.341 43.0874 117.587C42.8541 117.833 42.5495 117.956 42.1736 117.956ZM48.6943 129.194C48.1758 129.194 47.6768 129.13 47.1972 129C46.7176 128.857 46.2769 128.663 45.875 128.417C45.4732 128.157 45.1232 127.846 44.8251 127.483L46.1861 126.122C46.5102 126.498 46.8796 126.783 47.2944 126.978C47.7221 127.159 48.2017 127.25 48.7332 127.25C49.2128 127.25 49.5757 127.179 49.822 127.036C50.0683 126.894 50.1914 126.686 50.1914 126.414C50.1914 126.129 50.0747 125.909 49.8414 125.753C49.6081 125.597 49.3035 125.468 48.9276 125.364C48.5647 125.247 48.1758 125.131 47.761 125.014C47.3592 124.898 46.9703 124.742 46.5944 124.548C46.2315 124.34 45.9334 124.061 45.7001 123.711C45.4667 123.362 45.3501 122.908 45.3501 122.35C45.3501 121.754 45.4862 121.242 45.7584 120.814C46.0435 120.387 46.4389 120.056 46.9444 119.823C47.4629 119.59 48.0786 119.473 48.7915 119.473C49.5433 119.473 50.2044 119.609 50.7747 119.881C51.358 120.14 51.8441 120.536 52.2329 121.067L50.8719 122.428C50.5997 122.091 50.2886 121.838 49.9386 121.67C49.5887 121.501 49.1868 121.417 48.7332 121.417C48.3054 121.417 47.9749 121.482 47.7416 121.612C47.5083 121.741 47.3916 121.929 47.3916 122.175C47.3916 122.435 47.5083 122.636 47.7416 122.778C47.9749 122.921 48.273 123.044 48.636 123.148C49.0119 123.251 49.4007 123.368 49.8025 123.498C50.2173 123.614 50.6062 123.783 50.9691 124.003C51.345 124.211 51.6496 124.496 51.8829 124.859C52.1163 125.209 52.2329 125.669 52.2329 126.239C52.2329 127.146 51.9153 127.866 51.2802 128.397C50.6451 128.929 49.7831 129.194 48.6943 129.194ZM55.4155 129V115.779H57.5542V129H55.4155ZM53.1795 121.612V119.667H59.7902V121.612H53.1795ZM65.4142 129.194C64.481 129.194 63.6384 128.987 62.8866 128.572C62.1478 128.145 61.558 127.561 61.1173 126.822C60.6896 126.084 60.4757 125.254 60.4757 124.334C60.4757 123.413 60.6896 122.59 61.1173 121.864C61.5451 121.126 62.1219 120.542 62.8477 120.115C63.5866 119.687 64.4032 119.473 65.2976 119.473C66.166 119.473 66.9308 119.674 67.5918 120.076C68.2659 120.477 68.7908 121.028 69.1667 121.728C69.5556 122.428 69.75 123.225 69.75 124.12C69.75 124.275 69.7371 124.437 69.7111 124.606C69.6982 124.761 69.6723 124.936 69.6334 125.131H61.9728V123.381H68.5251L67.728 124.081C67.702 123.511 67.5918 123.031 67.3974 122.642C67.203 122.253 66.9243 121.955 66.5614 121.748C66.2114 121.54 65.7772 121.437 65.2587 121.437C64.7143 121.437 64.2412 121.553 63.8393 121.787C63.4375 122.02 63.1264 122.35 62.9061 122.778C62.6857 123.193 62.5755 123.692 62.5755 124.275C62.5755 124.859 62.6922 125.371 62.9255 125.811C63.1588 126.252 63.4894 126.596 63.9171 126.842C64.3449 127.075 64.8374 127.192 65.3948 127.192C65.8744 127.192 66.3151 127.108 66.7169 126.939C67.1317 126.771 67.4817 126.524 67.7668 126.2L69.1278 127.581C68.6742 128.112 68.1233 128.514 67.4752 128.786C66.8271 129.058 66.1401 129.194 65.4142 129.194ZM71.4645 129V119.667H73.6032V129H71.4645ZM77.6668 129V123.439C77.6668 122.817 77.4724 122.338 77.0835 122.001C76.6947 121.651 76.2151 121.476 75.6448 121.476C75.2559 121.476 74.9059 121.553 74.5948 121.709C74.2967 121.864 74.0569 122.091 73.8754 122.389C73.694 122.675 73.6032 123.025 73.6032 123.439L72.7672 122.973C72.7672 122.26 72.9227 121.644 73.2338 121.126C73.5449 120.607 73.9662 120.205 74.4976 119.92C75.0291 119.622 75.6253 119.473 76.2864 119.473C76.9474 119.473 77.5437 119.615 78.0751 119.901C78.6066 120.186 79.0278 120.588 79.3389 121.106C79.65 121.625 79.8056 122.247 79.8056 122.973V129H77.6668ZM83.8692 129V123.439C83.8692 122.817 83.6747 122.338 83.2859 122.001C82.897 121.651 82.4174 121.476 81.8471 121.476C81.4712 121.476 81.1277 121.553 80.8166 121.709C80.5055 121.864 80.2592 122.091 80.0778 122.389C79.8963 122.675 79.8056 123.025 79.8056 123.439L78.6001 122.973C78.6649 122.26 78.8723 121.644 79.2223 121.126C79.5723 120.607 80.0194 120.205 80.5638 119.92C81.1212 119.622 81.7304 119.473 82.3915 119.473C83.0655 119.473 83.6747 119.615 84.2191 119.901C84.7635 120.186 85.1978 120.588 85.5218 121.106C85.8459 121.625 86.0079 122.247 86.0079 122.973V129H83.8692ZM92.1194 129.194C91.2769 129.194 90.5121 128.981 89.8251 128.553C89.1511 128.125 88.6132 127.548 88.2113 126.822C87.8225 126.084 87.628 125.26 87.628 124.353C87.628 123.433 87.8225 122.61 88.2113 121.884C88.6132 121.145 89.1511 120.562 89.8251 120.134C90.5121 119.693 91.2769 119.473 92.1194 119.473C92.8323 119.473 93.461 119.628 94.0054 119.94C94.5627 120.238 95.0034 120.652 95.3275 121.184C95.6515 121.715 95.8136 122.318 95.8136 122.992V125.675C95.8136 126.349 95.6515 126.952 95.3275 127.483C95.0164 128.015 94.5822 128.436 94.0248 128.747C93.4674 129.045 92.8323 129.194 92.1194 129.194ZM92.4694 127.172C93.26 127.172 93.8952 126.907 94.3748 126.375C94.8673 125.844 95.1136 125.163 95.1136 124.334C95.1136 123.776 95.0034 123.284 94.7831 122.856C94.5627 122.428 94.2516 122.098 93.8498 121.864C93.461 121.618 93.0008 121.495 92.4694 121.495C91.9509 121.495 91.4907 121.618 91.0889 121.864C90.7 122.098 90.389 122.428 90.1556 122.856C89.9353 123.284 89.8251 123.776 89.8251 124.334C89.8251 124.891 89.9353 125.384 90.1556 125.811C90.389 126.239 90.7 126.576 91.0889 126.822C91.4907 127.056 91.9509 127.172 92.4694 127.172ZM94.9775 129V126.492L95.3469 124.217L94.9775 121.962V119.667H97.1163V129H94.9775ZM107.29 129.194C106.448 129.194 105.683 128.981 104.996 128.553C104.322 128.125 103.784 127.548 103.382 126.822C102.993 126.084 102.799 125.26 102.799 124.353C102.799 123.433 102.993 122.61 103.382 121.884C103.784 121.145 104.322 120.562 104.996 120.134C105.683 119.693 106.448 119.473 107.29 119.473C108.003 119.473 108.632 119.628 109.176 119.94C109.734 120.238 110.174 120.652 110.498 121.184C110.822 121.715 110.984 122.318 110.984 122.992V125.675C110.984 126.349 110.822 126.952 110.498 127.483C110.187 128.015 109.753 128.436 109.196 128.747C108.638 129.045 108.003 129.194 107.29 129.194ZM107.64 127.172C108.172 127.172 108.632 127.056 109.021 126.822C109.423 126.576 109.734 126.239 109.954 125.811C110.174 125.384 110.285 124.891 110.285 124.334C110.285 123.776 110.174 123.284 109.954 122.856C109.734 122.428 109.423 122.098 109.021 121.864C108.632 121.618 108.172 121.495 107.64 121.495C107.122 121.495 106.662 121.618 106.26 121.864C105.871 122.098 105.56 122.428 105.327 122.856C105.106 123.284 104.996 123.776 104.996 124.334C104.996 124.891 105.106 125.384 105.327 125.811C105.56 126.239 105.871 126.576 106.26 126.822C106.662 127.056 107.122 127.172 107.64 127.172ZM112.287 129H110.148V126.492L110.518 124.217L110.148 121.962V115.001H112.287V129ZM118.997 129.194C118.063 129.194 117.221 128.987 116.469 128.572C115.73 128.145 115.14 127.561 114.7 126.822C114.272 126.084 114.058 125.254 114.058 124.334C114.058 123.413 114.272 122.59 114.7 121.864C115.127 121.126 115.704 120.542 116.43 120.115C117.169 119.687 117.985 119.473 118.88 119.473C119.748 119.473 120.513 119.674 121.174 120.076C121.848 120.477 122.373 121.028 122.749 121.728C123.138 122.428 123.332 123.225 123.332 124.12C123.332 124.275 123.319 124.437 123.293 124.606C123.28 124.761 123.255 124.936 123.216 125.131H115.555V123.381H122.107L121.31 124.081C121.284 123.511 121.174 123.031 120.98 122.642C120.785 122.253 120.507 121.955 120.144 121.748C119.794 121.54 119.359 121.437 118.841 121.437C118.297 121.437 117.823 121.553 117.422 121.787C117.02 122.02 116.709 122.35 116.488 122.778C116.268 123.193 116.158 123.692 116.158 124.275C116.158 124.859 116.274 125.371 116.508 125.811C116.741 126.252 117.072 126.596 117.499 126.842C117.927 127.075 118.42 127.192 118.977 127.192C119.457 127.192 119.897 127.108 120.299 126.939C120.714 126.771 121.064 126.524 121.349 126.2L122.71 127.581C122.256 128.112 121.706 128.514 121.057 128.786C120.409 129.058 119.722 129.194 118.997 129.194ZM127.669 129L133.269 115.39H134.824L140.385 129H137.974L133.619 117.976H134.435L130.041 129H127.669ZM130.43 126.375V124.431H137.643V126.375H130.43ZM145.378 133.083C144.393 133.083 143.531 132.902 142.793 132.539C142.054 132.189 141.457 131.69 141.004 131.042L142.404 129.642C142.78 130.108 143.207 130.458 143.687 130.692C144.166 130.925 144.743 131.042 145.417 131.042C146.26 131.042 146.927 130.821 147.42 130.38C147.913 129.953 148.159 129.363 148.159 128.611V126.317L148.528 124.256L148.159 122.175V119.667H150.298V128.611C150.298 129.506 150.09 130.283 149.675 130.944C149.261 131.618 148.684 132.143 147.945 132.519C147.206 132.895 146.351 133.083 145.378 133.083ZM145.281 128.806C144.452 128.806 143.7 128.605 143.026 128.203C142.365 127.788 141.84 127.224 141.451 126.511C141.075 125.798 140.887 125.001 140.887 124.12C140.887 123.238 141.075 122.448 141.451 121.748C141.84 121.048 142.365 120.497 143.026 120.095C143.7 119.68 144.452 119.473 145.281 119.473C146.02 119.473 146.668 119.622 147.226 119.92C147.783 120.218 148.217 120.633 148.528 121.164C148.839 121.683 148.995 122.292 148.995 122.992V125.286C148.995 125.973 148.833 126.583 148.509 127.114C148.198 127.645 147.763 128.06 147.206 128.358C146.649 128.657 146.007 128.806 145.281 128.806ZM145.709 126.783C146.227 126.783 146.681 126.673 147.07 126.453C147.459 126.233 147.757 125.928 147.964 125.539C148.185 125.137 148.295 124.671 148.295 124.139C148.295 123.608 148.185 123.148 147.964 122.759C147.757 122.357 147.459 122.046 147.07 121.826C146.681 121.605 146.227 121.495 145.709 121.495C145.19 121.495 144.73 121.605 144.329 121.826C143.94 122.046 143.635 122.357 143.415 122.759C143.194 123.148 143.084 123.608 143.084 124.139C143.084 124.658 143.194 125.118 143.415 125.52C143.635 125.922 143.94 126.233 144.329 126.453C144.73 126.673 145.19 126.783 145.709 126.783ZM157.009 129.194C156.076 129.194 155.233 128.987 154.482 128.572C153.743 128.145 153.153 127.561 152.712 126.822C152.284 126.084 152.071 125.254 152.071 124.334C152.071 123.413 152.284 122.59 152.712 121.864C153.14 121.126 153.717 120.542 154.443 120.115C155.182 119.687 155.998 119.473 156.893 119.473C157.761 119.473 158.526 119.674 159.187 120.076C159.861 120.477 160.386 121.028 160.762 121.728C161.151 122.428 161.345 123.225 161.345 124.12C161.345 124.275 161.332 124.437 161.306 124.606C161.293 124.761 161.267 124.936 161.228 125.131H153.568V123.381H160.12L159.323 124.081C159.297 123.511 159.187 123.031 158.992 122.642C158.798 122.253 158.519 121.955 158.156 121.748C157.806 121.54 157.372 121.437 156.854 121.437C156.309 121.437 155.836 121.553 155.434 121.787C155.032 122.02 154.721 122.35 154.501 122.778C154.281 123.193 154.17 123.692 154.17 124.275C154.17 124.859 154.287 125.371 154.52 125.811C154.754 126.252 155.084 126.596 155.512 126.842C155.94 127.075 156.432 127.192 156.99 127.192C157.469 127.192 157.91 127.108 158.312 126.939C158.727 126.771 159.077 126.524 159.362 126.2L160.723 127.581C160.269 128.112 159.718 128.514 159.07 128.786C158.422 129.058 157.735 129.194 157.009 129.194ZM169.456 129V123.614C169.456 122.992 169.255 122.48 168.853 122.078C168.465 121.676 167.959 121.476 167.337 121.476C166.922 121.476 166.553 121.566 166.229 121.748C165.905 121.929 165.652 122.182 165.47 122.506C165.289 122.83 165.198 123.199 165.198 123.614L164.362 123.148C164.362 122.435 164.518 121.806 164.829 121.262C165.14 120.704 165.568 120.27 166.112 119.959C166.669 119.635 167.292 119.473 167.979 119.473C168.678 119.473 169.301 119.654 169.845 120.017C170.389 120.367 170.817 120.827 171.128 121.398C171.439 121.955 171.595 122.538 171.595 123.148V129H169.456ZM163.059 129V119.667H165.198V129H163.059ZM177.676 129.194C176.834 129.194 176.069 128.981 175.382 128.553C174.708 128.125 174.17 127.548 173.768 126.822C173.379 126.084 173.185 125.26 173.185 124.353C173.185 123.433 173.379 122.61 173.768 121.884C174.17 121.145 174.708 120.562 175.382 120.134C176.069 119.693 176.834 119.473 177.676 119.473C178.389 119.473 179.018 119.628 179.562 119.94C180.12 120.238 180.56 120.652 180.884 121.184C181.209 121.715 181.371 122.318 181.371 122.992V125.675C181.371 126.349 181.209 126.952 180.884 127.483C180.573 128.015 180.139 128.436 179.582 128.747C179.024 129.045 178.389 129.194 177.676 129.194ZM178.026 127.172C178.558 127.172 179.018 127.056 179.407 126.822C179.809 126.576 180.12 126.239 180.34 125.811C180.56 125.384 180.671 124.891 180.671 124.334C180.671 123.776 180.56 123.284 180.34 122.856C180.12 122.428 179.809 122.098 179.407 121.864C179.018 121.618 178.558 121.495 178.026 121.495C177.508 121.495 177.048 121.618 176.646 121.864C176.257 122.098 175.946 122.428 175.713 122.856C175.492 123.284 175.382 123.776 175.382 124.334C175.382 124.891 175.492 125.384 175.713 125.811C175.946 126.239 176.257 126.576 176.646 126.822C177.048 127.056 177.508 127.172 178.026 127.172ZM182.673 129H180.534V126.492L180.904 124.217L180.534 121.962V115.001H182.673V129ZM188.955 129.194C188.112 129.194 187.348 128.981 186.661 128.553C185.987 128.125 185.449 127.548 185.047 126.822C184.658 126.084 184.463 125.26 184.463 124.353C184.463 123.433 184.658 122.61 185.047 121.884C185.449 121.145 185.987 120.562 186.661 120.134C187.348 119.693 188.112 119.473 188.955 119.473C189.668 119.473 190.296 119.628 190.841 119.94C191.398 120.238 191.839 120.652 192.163 121.184C192.487 121.715 192.649 122.318 192.649 122.992V125.675C192.649 126.349 192.487 126.952 192.163 127.483C191.852 128.015 191.418 128.436 190.86 128.747C190.303 129.045 189.668 129.194 188.955 129.194ZM189.305 127.172C190.095 127.172 190.731 126.907 191.21 126.375C191.703 125.844 191.949 125.163 191.949 124.334C191.949 123.776 191.839 123.284 191.619 122.856C191.398 122.428 191.087 122.098 190.685 121.864C190.296 121.618 189.836 121.495 189.305 121.495C188.786 121.495 188.326 121.618 187.924 121.864C187.535 122.098 187.224 122.428 186.991 122.856C186.771 123.284 186.661 123.776 186.661 124.334C186.661 124.891 186.771 125.384 186.991 125.811C187.224 126.239 187.535 126.576 187.924 126.822C188.326 127.056 188.786 127.172 189.305 127.172ZM191.813 129V126.492L192.182 124.217L191.813 121.962V119.667H193.952V129H191.813ZM196.325 129V119.667H198.464V129H196.325ZM202.528 129V123.439C202.528 122.817 202.333 122.338 201.944 122.001C201.555 121.651 201.076 121.476 200.506 121.476C200.117 121.476 199.767 121.553 199.456 121.709C199.157 121.864 198.918 122.091 198.736 122.389C198.555 122.675 198.464 123.025 198.464 123.439L197.628 122.973C197.628 122.26 197.783 121.644 198.095 121.126C198.406 120.607 198.827 120.205 199.358 119.92C199.89 119.622 200.486 119.473 201.147 119.473C201.808 119.473 202.404 119.615 202.936 119.901C203.467 120.186 203.889 120.588 204.2 121.106C204.511 121.625 204.666 122.247 204.666 122.973V129H202.528ZM208.73 129V123.439C208.73 122.817 208.535 122.338 208.147 122.001C207.758 121.651 207.278 121.476 206.708 121.476C206.332 121.476 205.988 121.553 205.677 121.709C205.366 121.864 205.12 122.091 204.939 122.389C204.757 122.675 204.666 123.025 204.666 123.439L203.461 122.973C203.526 122.26 203.733 121.644 204.083 121.126C204.433 120.607 204.88 120.205 205.425 119.92C205.982 119.622 206.591 119.473 207.252 119.473C207.926 119.473 208.535 119.615 209.08 119.901C209.624 120.186 210.059 120.588 210.383 121.106C210.707 121.625 210.869 122.247 210.869 122.973V129H208.73ZM217.408 129.194C216.475 129.194 215.632 128.987 214.88 128.572C214.141 128.145 213.552 127.561 213.111 126.822C212.683 126.084 212.469 125.254 212.469 124.334C212.469 123.413 212.683 122.59 213.111 121.864C213.539 121.126 214.116 120.542 214.841 120.115C215.58 119.687 216.397 119.473 217.291 119.473C218.16 119.473 218.924 119.674 219.586 120.076C220.26 120.477 220.784 121.028 221.16 121.728C221.549 122.428 221.744 123.225 221.744 124.12C221.744 124.275 221.731 124.437 221.705 124.606C221.692 124.761 221.666 124.936 221.627 125.131H213.966V123.381H220.519L219.722 124.081C219.696 123.511 219.586 123.031 219.391 122.642C219.197 122.253 218.918 121.955 218.555 121.748C218.205 121.54 217.771 121.437 217.252 121.437C216.708 121.437 216.235 121.553 215.833 121.787C215.431 122.02 215.12 122.35 214.9 122.778C214.679 123.193 214.569 123.692 214.569 124.275C214.569 124.859 214.686 125.371 214.919 125.811C215.152 126.252 215.483 126.596 215.911 126.842C216.339 127.075 216.831 127.192 217.388 127.192C217.868 127.192 218.309 127.108 218.711 126.939C219.125 126.771 219.475 126.524 219.76 126.2L221.122 127.581C220.668 128.112 220.117 128.514 219.469 128.786C218.821 129.058 218.134 129.194 217.408 129.194ZM229.855 129V123.614C229.855 122.992 229.654 122.48 229.252 122.078C228.863 121.676 228.358 121.476 227.736 121.476C227.321 121.476 226.951 121.566 226.627 121.748C226.303 121.929 226.051 122.182 225.869 122.506C225.688 122.83 225.597 123.199 225.597 123.614L224.761 123.148C224.761 122.435 224.916 121.806 225.227 121.262C225.539 120.704 225.966 120.27 226.511 119.959C227.068 119.635 227.69 119.473 228.377 119.473C229.077 119.473 229.699 119.654 230.244 120.017C230.788 120.367 231.216 120.827 231.527 121.398C231.838 121.955 231.994 122.538 231.994 123.148V129H229.855ZM223.458 129V119.667H225.597V129H223.458ZM235.472 129V115.779H237.611V129H235.472ZM233.236 121.612V119.667H239.847V121.612H233.236ZM245.413 129.194C244.506 129.194 243.682 128.981 242.944 128.553C242.205 128.112 241.615 127.522 241.174 126.783C240.747 126.045 240.533 125.222 240.533 124.314C240.533 123.407 240.747 122.59 241.174 121.864C241.615 121.139 242.205 120.562 242.944 120.134C243.682 119.693 244.506 119.473 245.413 119.473C246.333 119.473 247.163 119.687 247.902 120.115C248.64 120.542 249.224 121.126 249.651 121.864C250.092 122.59 250.312 123.407 250.312 124.314C250.312 125.222 250.092 126.045 249.651 126.783C249.224 127.522 248.64 128.112 247.902 128.553C247.163 128.981 246.333 129.194 245.413 129.194ZM245.413 127.133C245.944 127.133 246.411 127.017 246.813 126.783C247.228 126.537 247.545 126.2 247.765 125.772C247.999 125.345 248.115 124.859 248.115 124.314C248.115 123.77 247.999 123.29 247.765 122.875C247.532 122.461 247.215 122.137 246.813 121.903C246.411 121.657 245.944 121.534 245.413 121.534C244.894 121.534 244.428 121.657 244.013 121.903C243.611 122.137 243.294 122.461 243.06 122.875C242.84 123.29 242.73 123.77 242.73 124.314C242.73 124.859 242.84 125.345 243.06 125.772C243.294 126.2 243.611 126.537 244.013 126.783C244.428 127.017 244.894 127.133 245.413 127.133Z" fill="#0F152B"/>
<rect x="256.399" width="19.0691" height="55.0886" rx="9.53457" fill="#ADD8FF"/>
<rect x="293.266" y="18.2214" width="18.6454" height="55.0886" rx="9.32269" transform="rotate(90 293.266 18.2214)" fill="#ADD8FF"/>
<path d="M275.181 18.0754C272.093 19.5664 269.794 22.276 268.559 25.4004C268.318 25.9326 268.114 26.646 267.924 27.1982C266.679 31.6447 263.026 35.819 258.332 36.6087C261.984 34.5488 264.766 31.0077 265.996 27.0432C266.057 26.8525 266.187 26.4668 266.254 26.2774C266.307 26.1288 266.56 25.4027 266.61 25.2716C266.816 24.8281 267.023 24.3462 267.25 23.9137C267.406 23.6656 267.75 23.0411 267.913 22.8063C268.04 22.6344 268.297 22.2826 268.424 22.1105C270.05 20.0163 272.499 18.3206 275.181 18.0754Z" fill="#0F152B"/>
<path d="M19.9142 26.3538H28.2747L47.64 77.6834H38.9295L34.6909 65.9398H13.5369L9.2594 77.6834H0.510037L19.9142 26.3538ZM16.1811 58.6681H32.0466L24.1528 36.3086H24.0361L16.1811 58.6681ZM68.3255 94.7544C65.8887 94.7544 63.6203 94.5081 61.5205 94.0156C59.4465 93.5489 57.593 92.836 55.9598 91.8768C54.3265 90.9436 53.0044 89.7899 51.9934 88.416L57.1652 83.283C57.7096 83.957 58.4096 84.657 59.2651 85.3829C60.1206 86.1347 61.2483 86.7568 62.6482 87.2494C64.0481 87.7679 65.8239 88.0271 67.9756 88.0271C70.0754 88.0271 71.8642 87.5994 73.3418 86.7439C74.8454 85.8884 75.9861 84.7088 76.7638 83.2052C77.5675 81.7276 77.9693 80.0166 77.9693 78.0723V77.1001H86.1353V78.5778C86.1353 82.1035 85.3447 85.0588 83.7633 87.4438C82.1819 89.8548 80.0432 91.6694 77.3471 92.8879C74.651 94.1322 71.6438 94.7544 68.3255 94.7544ZM77.9693 77.6834V71.7727C77.7619 72.3949 77.1656 73.2504 76.1805 74.3392C75.2213 75.428 73.8992 76.4131 72.2141 77.2945C70.555 78.176 68.5848 78.6167 66.3035 78.6167C63.3222 78.6167 60.639 77.9038 58.254 76.4779C55.869 75.0521 53.9895 73.0689 52.6156 70.5284C51.2416 67.9878 50.5546 65.0584 50.5546 61.7401C50.5546 58.4218 51.2416 55.4924 52.6156 52.9519C53.9895 50.4113 55.869 48.4281 58.254 47.0023C60.639 45.5506 63.3222 44.8247 66.3035 44.8247C68.5329 44.8247 70.4643 45.2135 72.0975 45.9913C73.7307 46.769 75.0399 47.6634 76.025 48.6744C77.036 49.6854 77.6582 50.5669 77.8915 51.3187V45.7579H86.1353V77.6834H77.9693ZM58.7596 61.7401C58.7596 63.7881 59.2132 65.5769 60.1206 67.1064C61.0279 68.6359 62.2075 69.8155 63.6592 70.645C65.1369 71.4746 66.7182 71.8894 68.4033 71.8894C70.218 71.8894 71.8253 71.4616 73.2252 70.6061C74.651 69.7507 75.7657 68.5711 76.5694 67.0675C77.3989 65.538 77.8137 63.7622 77.8137 61.7401C77.8137 59.718 77.3989 57.9552 76.5694 56.4516C75.7657 54.9221 74.651 53.7296 73.2252 52.8741C71.8253 51.9927 70.218 51.552 68.4033 51.552C66.7182 51.552 65.1369 51.9797 63.6592 52.8352C62.2075 53.6648 61.0279 54.8443 60.1206 56.3738C59.2132 57.9034 58.7596 59.6921 58.7596 61.7401ZM100.712 63.6844C100.763 65.3695 101.165 66.886 101.917 68.2341C102.669 69.5821 103.771 70.645 105.222 71.4228C106.7 72.1745 108.502 72.5504 110.628 72.5504C112.468 72.5504 114.049 72.3042 115.372 71.8116C116.72 71.2931 117.834 70.6839 118.716 69.984C119.597 69.2581 120.245 68.5841 120.66 67.9619L124.354 72.9782C123.551 74.067 122.54 75.0392 121.321 75.8947C120.103 76.7501 118.586 77.4112 116.772 77.8778C114.983 78.3704 112.766 78.6167 110.122 78.6167C106.648 78.6167 103.628 77.9038 101.062 76.4779C98.495 75.0521 96.4989 73.043 95.0731 70.4506C93.6732 67.8582 92.9732 64.8251 92.9732 61.3513C92.9732 58.2404 93.6213 55.4406 94.9175 52.9519C96.2137 50.4372 98.0932 48.454 100.556 47.0023C103.045 45.5506 106.026 44.8247 109.5 44.8247C112.74 44.8247 115.553 45.4728 117.938 46.769C120.323 48.0652 122.164 49.9317 123.46 52.3686C124.782 54.7795 125.443 57.696 125.443 61.1179C125.443 61.3253 125.43 61.7531 125.404 62.4012C125.404 63.0493 125.378 63.477 125.326 63.6844H100.712ZM117.666 57.6182C117.64 56.7886 117.355 55.8424 116.81 54.7795C116.292 53.7166 115.449 52.7963 114.283 52.0186C113.116 51.215 111.561 50.8131 109.616 50.8131C107.62 50.8131 106 51.202 104.756 51.9797C103.511 52.7315 102.591 53.6389 101.995 54.7017C101.399 55.7387 101.049 56.7109 100.945 57.6182H117.666ZM151.607 44.8247C153.759 44.8247 155.846 45.2654 157.868 46.1468C159.89 47.0282 161.549 48.4411 162.845 50.3854C164.168 52.3038 164.829 54.8054 164.829 57.8904V77.6834H156.468V59.407C156.468 56.5294 155.781 54.4166 154.407 53.0685C153.059 51.6945 151.309 51.0076 149.158 51.0076C147.732 51.0076 146.371 51.4094 145.074 52.213C143.778 53.0167 142.715 54.1055 141.886 55.4795C141.082 56.8534 140.68 58.4348 140.68 60.2236V77.6834H132.359V45.7579H140.68V51.1242C140.914 50.2428 141.536 49.3225 142.547 48.3633C143.584 47.3782 144.893 46.5486 146.474 45.8746C148.056 45.1747 149.767 44.8247 151.607 44.8247ZM187.107 78.6167C184.1 78.6167 181.443 77.9038 179.136 76.4779C176.828 75.0521 175.014 73.0689 173.692 70.5284C172.395 67.9878 171.747 65.0584 171.747 61.7401C171.747 58.4218 172.395 55.4924 173.692 52.9519C175.014 50.4113 176.828 48.4281 179.136 47.0023C181.443 45.5506 184.1 44.8247 187.107 44.8247C189.337 44.8247 191.32 45.2135 193.057 45.9913C194.794 46.7431 196.181 47.6245 197.218 48.6355C198.255 49.6466 198.864 50.5409 199.045 51.3187V24.1762H207.367V77.6834H199.162V71.7727C198.799 72.6801 198.06 73.6652 196.945 74.7281C195.831 75.791 194.418 76.7113 192.707 77.489C191.022 78.2408 189.155 78.6167 187.107 78.6167ZM189.246 71.8894C191.061 71.8894 192.707 71.4616 194.185 70.6061C195.662 69.7507 196.842 68.5711 197.723 67.0675C198.605 65.538 199.045 63.7622 199.045 61.7401C199.045 59.718 198.605 57.9552 197.723 56.4516C196.842 54.9221 195.662 53.7296 194.185 52.8741C192.707 51.9927 191.061 51.552 189.246 51.552C187.587 51.552 186.044 51.9797 184.619 52.8352C183.219 53.6648 182.091 54.8443 181.235 56.3738C180.38 57.9034 179.952 59.6921 179.952 61.7401C179.952 63.7881 180.38 65.5769 181.235 67.1064C182.091 68.6359 183.219 69.8155 184.619 70.645C186.044 71.4746 187.587 71.8894 189.246 71.8894ZM240.045 77.6834V71.7727C239.838 72.3949 239.242 73.2504 238.256 74.3392C237.297 75.428 235.975 76.4131 234.29 77.2945C232.631 78.176 230.661 78.6167 228.379 78.6167C225.398 78.6167 222.715 77.9038 220.33 76.4779C217.945 75.0521 216.065 73.0689 214.691 70.5284C213.318 67.9878 212.631 65.0584 212.631 61.7401C212.631 58.4218 213.318 55.4924 214.691 52.9519C216.065 50.4113 217.945 48.4281 220.33 47.0023C222.715 45.5506 225.398 44.8247 228.379 44.8247C230.609 44.8247 232.54 45.2135 234.173 45.9913C235.807 46.769 237.116 47.6634 238.101 48.6744C239.112 49.6854 239.734 50.5669 239.967 51.3187V45.7579H248.211V77.6834H240.045ZM220.835 61.7401C220.835 63.7881 221.289 65.5769 222.197 67.1064C223.104 68.6359 224.283 69.8155 225.735 70.645C227.213 71.4746 228.794 71.8894 230.479 71.8894C232.294 71.8894 233.901 71.4616 235.301 70.6061C236.727 69.7507 237.842 68.5711 238.645 67.0675C239.475 65.538 239.89 63.7622 239.89 61.7401C239.89 59.718 239.475 57.9552 238.645 56.4516C237.842 54.9221 236.727 53.7296 235.301 52.8741C233.901 51.9927 232.294 51.552 230.479 51.552C228.794 51.552 227.213 51.9797 225.735 52.8352C224.283 53.6648 223.104 54.8443 222.197 56.3738C221.289 57.9034 220.835 59.6921 220.835 61.7401Z" fill="#0F152B"/>
</svg>
