<svg width="24" height="24" viewBox="0 0 24 24" fill="none" xmlns="http://www.w3.org/2000/svg">
<g clip-path="url(#clip0_37_39810)">
<path d="M16 2C16.183 2 16.355 2.05 16.502 2.135L16.535 2.155C16.815 2.332 17 2.645 17 3V4H18C18.7652 3.99996 19.5015 4.29233 20.0583 4.81728C20.615 5.34224 20.9501 6.06011 20.995 6.824L21 7V19C21 19.7652 20.7077 20.5015 20.1827 21.0583C19.6578 21.615 18.9399 21.9501 18.176 21.995L18 22H6C5.23479 22 4.49849 21.7077 3.94174 21.1827C3.38499 20.6578 3.04989 19.9399 3.005 19.176L3 19V7C2.99996 6.23479 3.29233 5.49849 3.81728 4.94174C4.34224 4.38499 5.06011 4.04989 5.824 4.005L6 4H7V3C6.99999 2.82173 7.04764 2.64669 7.13802 2.49302C7.22839 2.33936 7.3582 2.21264 7.514 2.126L7.607 2.08L7.673 2.055L7.773 2.026L7.88 2.007L8 2C8.05533 2 8.109 2.00433 8.161 2.013L8.283 2.042L8.323 2.054L8.383 2.077C8.711 2.212 8.951 2.517 8.993 2.883L9 3V4H15V3C15 2.73478 15.1054 2.48043 15.2929 2.29289C15.4804 2.10536 15.7348 2 16 2ZM19 9H5V18.625C5 19.33 5.386 19.911 5.883 19.991L6 20H18C18.513 20 18.936 19.47 18.993 18.785L19 18.625V9Z" fill="#233267"/>
<rect width="14" height="11" transform="translate(5 9)" fill="#B5D5EE"/>
<path d="M10 12.4998C10 12.8973 9.84568 13.2784 9.57099 13.5594C9.2963 13.8405 8.92374 13.9983 8.53527 13.9983C8.33744 14.0079 8.13977 13.9763 7.95419 13.9056C7.7686 13.8348 7.59896 13.7263 7.45548 13.5867C7.31201 13.447 7.19768 13.279 7.1194 13.0929C7.04111 12.9068 7.0005 12.7064 7 12.5037C6.99951 12.3011 7.03914 12.1005 7.11652 11.914C7.19389 11.7275 7.30739 11.5589 7.45018 11.4185C7.59298 11.2781 7.76209 11.1688 7.94732 11.0971C8.13256 11.0254 8.33007 10.9928 8.52795 11.0013C9.3438 11.0013 10 11.6727 10 12.4998Z" fill="#233267"/>
<path d="M10 16.4998C10 16.8973 9.84568 17.2784 9.57099 17.5594C9.2963 17.8405 8.92374 17.9983 8.53527 17.9983C8.33744 18.0079 8.13977 17.9763 7.95419 17.9056C7.7686 17.8348 7.59896 17.7263 7.45548 17.5867C7.31201 17.447 7.19768 17.279 7.1194 17.0929C7.04111 16.9068 7.0005 16.7064 7 16.5037C6.99951 16.3011 7.03914 16.1005 7.11652 15.914C7.19389 15.7275 7.30739 15.5589 7.45018 15.4185C7.59298 15.2781 7.76209 15.1688 7.94732 15.0971C8.13256 15.0254 8.33007 14.9928 8.52795 15.0013C9.3438 15.0013 10 15.6727 10 16.4998Z" fill="#233267"/>
<path d="M14 16.4998C14 16.8973 13.8457 17.2784 13.571 17.5594C13.2963 17.8405 12.9237 17.9983 12.5353 17.9983C12.3374 18.0079 12.1398 17.9763 11.9542 17.9056C11.7686 17.8348 11.599 17.7263 11.4555 17.5867C11.312 17.447 11.1977 17.279 11.1194 17.0929C11.0411 16.9068 11.0005 16.7064 11 16.5037C10.9995 16.3011 11.0391 16.1005 11.1165 15.914C11.1939 15.7275 11.3074 15.5589 11.4502 15.4185C11.593 15.2781 11.7621 15.1688 11.9473 15.0971C12.1326 15.0254 12.3301 14.9928 12.5279 15.0013C13.3438 15.0013 14 15.6727 14 16.4998Z" fill="#233267"/>
<path d="M14 12.4998C14 12.8973 13.8457 13.2784 13.571 13.5594C13.2963 13.8405 12.9237 13.9983 12.5353 13.9983C12.3374 14.0079 12.1398 13.9763 11.9542 13.9056C11.7686 13.8348 11.599 13.7263 11.4555 13.5867C11.312 13.447 11.1977 13.279 11.1194 13.0929C11.0411 12.9068 11.0005 12.7064 11 12.5037C10.9995 12.3011 11.0391 12.1005 11.1165 11.914C11.1939 11.7275 11.3074 11.5589 11.4502 11.4185C11.593 11.2781 11.7621 11.1688 11.9473 11.0971C12.1326 11.0254 12.3301 10.9928 12.5279 11.0013C13.3438 11.0013 14 11.6727 14 12.4998Z" fill="#233267"/>
<path d="M18 12.4998C18 12.8973 17.8457 13.2784 17.571 13.5594C17.2963 13.8405 16.9237 13.9983 16.5353 13.9983C16.3374 14.0079 16.1398 13.9763 15.9542 13.9056C15.7686 13.8348 15.599 13.7263 15.4555 13.5867C15.312 13.447 15.1977 13.279 15.1194 13.0929C15.0411 12.9068 15.0005 12.7064 15 12.5037C14.9995 12.3011 15.0391 12.1005 15.1165 11.914C15.1939 11.7275 15.3074 11.5589 15.4502 11.4185C15.593 11.2781 15.7621 11.1688 15.9473 11.0971C16.1326 11.0254 16.3301 10.9928 16.5279 11.0013C17.3438 11.0013 18 11.6727 18 12.4998Z" fill="#233267"/>
</g>
<defs>
<clipPath id="clip0_37_39810">
<rect width="24" height="24" fill="white"/>
</clipPath>
</defs>
</svg>
