<svg width="24" height="24" viewBox="0 0 24 24" fill="none" xmlns="http://www.w3.org/2000/svg">
<g clip-path="url(#clip0_37_39867)">
<path d="M12 2.75C12.8405 2.75 13.6624 2.99886 14.3613 3.46582C15.0602 3.93282 15.6051 4.59744 15.9268 5.37402C16.2483 6.15049 16.3319 7.00485 16.168 7.8291C16.004 8.65351 15.5992 9.41052 15.0049 10.0049C14.4105 10.5992 13.6535 11.004 12.8291 11.168C12.0048 11.3319 11.1505 11.2483 10.374 10.9268C9.59744 10.6051 8.93282 10.0602 8.46582 9.36133C8.0573 8.7499 7.81586 8.04425 7.76172 7.31445L7.75 7L7.75488 6.7998C7.80619 5.71164 8.27353 4.68445 9.06055 3.93066C9.80205 3.22063 10.7741 2.80424 11.7949 2.75488L12 2.75Z" stroke="#989494" stroke-width="1.5"/>
<path d="M10 14.75H14C15.1272 14.75 16.2079 15.1981 17.0049 15.9951C17.8019 16.7921 18.25 17.8728 18.25 19V20C18.25 20.3315 18.1182 20.6494 17.8838 20.8838C17.6494 21.1182 17.3315 21.25 17 21.25H7C6.66848 21.25 6.35063 21.1182 6.11621 20.8838C5.88179 20.6494 5.75 20.3315 5.75 20V19C5.75 17.8728 6.19809 16.7921 6.99512 15.9951C7.79215 15.1981 8.87283 14.75 10 14.75Z" stroke="#989494" stroke-width="1.5"/>
</g>
<defs>
<clipPath id="clip0_37_39867">
<rect width="24" height="24" fill="white"/>
</clipPath>
</defs>
</svg>
