<svg width="24" height="25" viewBox="0 0 24 25" fill="none" xmlns="http://www.w3.org/2000/svg">
<path d="M12 24.5C5.36695 24.5 0 19.1251 0 12.5C0 5.86695 5.37491 0.5 12 0.5C18.633 0.5 24 5.87491 24 12.5C24.008 19.133 18.633 24.5 12 24.5Z" fill="#3A73AF"/>
<mask id="mask0_55_248" style="mask-type:alpha" maskUnits="userSpaceOnUse" x="0" y="0" width="24" height="25">
<path d="M12 24.5C5.36695 24.5 0 19.1251 0 12.5C0 5.86695 5.37492 0.5 12 0.5C18.633 0.5 24 5.87492 24 12.5C24.008 19.133 18.633 24.5 12 24.5Z" fill="#F7C0B5"/>
</mask>
<g mask="url(#mask0_55_248)">
<path d="M18.7199 22.6046C18.6639 22.6446 18.5999 22.6846 18.5439 22.7246C18.4799 22.7646 18.4239 22.8046 18.3599 22.8366C18.3039 22.8686 18.2559 22.9006 18.1999 22.9326C18.1919 22.9406 18.1839 22.9406 18.1759 22.9486C17.9919 23.0606 17.7999 23.1646 17.6079 23.2606C17.5519 23.2926 17.4879 23.3246 17.4319 23.3486C17.4319 23.3486 17.4239 23.3566 17.4159 23.3566C17.3519 23.3886 17.2879 23.4206 17.2239 23.4526C17.0959 23.5166 16.9599 23.5726 16.8319 23.6286C16.7679 23.6606 16.6959 23.6846 16.6319 23.7086C16.5679 23.7326 16.4959 23.7646 16.4319 23.7886C16.3679 23.8126 16.2959 23.8446 16.2319 23.8686C16.2319 23.8686 16.2319 23.8686 16.2239 23.8686C16.1599 23.8926 16.0879 23.9166 16.0239 23.9406C15.8799 23.9886 15.7279 24.0366 15.5839 24.0846C15.5359 24.1006 15.4799 24.1166 15.4319 24.1326C15.2799 24.1806 15.1279 24.2206 14.9759 24.2526C14.9199 24.2686 14.8639 24.2766 14.7999 24.2926C14.6559 24.3246 14.5039 24.3566 14.3599 24.3886C14.3279 24.3966 14.3039 24.3966 14.2719 24.4046C14.2239 24.4126 14.1679 24.4206 14.1199 24.4286C14.0479 24.4366 13.9839 24.4526 13.9119 24.4606C13.8799 24.4686 13.8479 24.4686 13.8159 24.4766C13.7759 24.4846 13.7279 24.4926 13.6799 24.4926C13.5519 24.5086 13.4159 24.5246 13.2879 24.5406C13.2479 24.5486 13.1999 24.5486 13.1599 24.5566H13.1519C13.0959 24.5646 13.0399 24.5646 12.9839 24.5726C12.9279 24.5806 12.8719 24.5806 12.8159 24.5806C12.7839 24.5806 12.7439 24.5886 12.7119 24.5886C12.6479 24.5886 12.5919 24.5966 12.5359 24.5966C12.4559 24.5966 12.3839 24.6046 12.3039 24.6046C12.2239 24.6046 12.1519 24.6046 12.0719 24.6046C12.0159 24.6046 11.9599 24.6046 11.9039 24.6046C8.53588 24.5566 5.49588 23.1246 3.33588 20.8526C3.33588 20.8526 3.33588 20.8446 3.32788 20.8446C3.57588 20.3566 4.49588 19.4766 5.45588 18.7486C6.67188 17.8286 8.39188 17.2606 8.39188 17.2606C8.39188 17.2606 9.51988 17.0766 13.7039 17.9486C16.8959 18.6206 18.2559 21.3486 18.7199 22.6046Z" fill="#F7D3B5"/>
<path d="M14.5919 20.1646C14.4239 20.9886 13.3359 21.4766 11.5039 20.7406C9.25594 19.8286 8.39194 17.2606 8.39194 17.2606C8.27194 15.4206 7.99194 13.8446 7.99194 13.8446C10.5919 13.6206 13.6639 16.6606 13.6639 16.6606L14.0159 18.1646C14.0479 18.2926 14.1119 18.4046 14.2079 18.4846C14.3759 18.7726 14.7039 19.6366 14.5919 20.1646Z" fill="#F7D3B5"/>
<path d="M14.208 18.4926C12.68 18.4126 11.552 18.1886 10.344 16.0206C11.368 16.9246 12.576 17.2686 13.848 17.4286L14.016 18.1646C14.048 18.3006 14.112 18.4126 14.208 18.4926Z" fill="#EFBDA5"/>
<path d="M17.368 8.85257C17.512 9.52457 17.584 10.0686 17.192 11.8606C16.8 13.6526 17.552 15.4446 15.664 17.0846C14.392 18.1886 12.168 18.3966 10.392 17.1886C9.792 16.7806 9.24 16.2126 8.79201 15.4686C8.44001 14.8846 8.03201 14.3326 7.57601 13.8286C6.94401 13.1406 6.18401 11.7566 6.56001 9.30857C7.16801 5.32457 11.112 4.86857 13.44 5.30857C15.768 5.74857 16.976 7.07657 17.368 8.85257Z" fill="#F7D3B5"/>
<path d="M9.71201 11.9806C9.71201 11.9806 9.46401 10.7806 8.29601 10.9246C7.28801 11.0526 6.93601 13.4686 9.22401 14.1406" fill="#F7D3B5"/>
<path d="M9.15204 13.0445C9.15204 13.0445 8.86404 12.8605 8.89604 12.5405C8.94404 12.1645 8.89604 11.9325 8.72004 11.8605C8.28005 11.6765 8.19205 12.1885 8.20805 12.2525" stroke="#423232" stroke-width="0.248836" stroke-miterlimit="10" stroke-linecap="round" stroke-linejoin="round"/>
<path d="M15.256 13.8206C15.256 13.8206 15.56 13.8366 15.848 13.4926C16.008 13.3006 16.144 13.0606 16.056 12.9886C15.968 12.9086 14.52 13.1326 14.424 13.3246C14.328 13.5166 14.888 13.8206 15.256 13.8206Z" fill="#EFBDA5"/>
<path d="M15.496 11.1326C15.496 11.1326 15.512 11.8926 16 12.7406C16.216 13.1166 15.888 13.7326 15.176 13.8366" stroke="#423232" stroke-width="0.248836" stroke-miterlimit="10" stroke-linecap="round" stroke-linejoin="round"/>
<path opacity="0.42" d="M11.1599 14.2286C11.615 14.2286 11.9839 13.9241 11.9839 13.5486C11.9839 13.173 11.615 12.8686 11.1599 12.8686C10.7049 12.8686 10.3359 13.173 10.3359 13.5486C10.3359 13.9241 10.7049 14.2286 11.1599 14.2286Z" fill="#ED938A"/>
<path opacity="0.42" d="M17.064 12.8846C17.04 13.3326 17.048 13.7726 17.016 14.2126C16.664 14.1326 16.408 13.8686 16.408 13.5566C16.408 13.2206 16.688 12.9486 17.064 12.8846Z" fill="#ED938A"/>
<path d="M19.5282 21.1142C18.3922 19.6502 16.6322 19.0422 15.6642 18.6822C15.5842 18.2822 15.4322 17.8422 15.1922 17.4182C14.8242 17.6422 14.4002 17.8102 13.9602 17.8982L14.0242 18.1622C14.0562 18.2902 14.2162 18.8822 13.9682 19.6422C13.7602 20.2822 12.9202 20.5702 11.4962 19.9222C8.72021 18.6662 8.40021 17.2502 8.40021 17.2502C8.35221 16.4822 8.27221 15.7622 8.20021 15.1782C7.33621 15.3702 6.33621 15.7622 5.79221 16.5862C5.12021 17.5942 4.87221 18.6182 4.93621 19.4342C3.76821 20.1782 1.96021 21.3062 1.36821 23.3222C0.600215 25.9462 0.728215 27.5542 0.728215 27.5542H21.4002C21.3762 27.5622 21.0722 23.1062 19.5282 21.1142Z" fill="#F7A097"/>
<path d="M7.16821 18.4902C7.16821 18.4902 7.65621 20.3862 9.79221 21.6982" stroke="#423232" stroke-width="0.248836" stroke-miterlimit="10" stroke-linecap="round" stroke-linejoin="round"/>
<path d="M15.6564 18.6822C15.6564 18.6822 16.2244 21.1382 14.9844 22.2662" stroke="#423232" stroke-width="0.248836" stroke-miterlimit="10" stroke-linecap="round" stroke-linejoin="round"/>
<path d="M11.8004 21.8902C11.8004 21.8902 11.3844 23.1062 11.4964 23.9462" stroke="#423232" stroke-width="0.248836" stroke-miterlimit="10" stroke-linecap="round" stroke-linejoin="round"/>
<path d="M14.3523 21.8182C14.3523 21.8182 14.6643 22.4982 14.8883 23.5782" stroke="#423232" stroke-width="0.248836" stroke-miterlimit="10" stroke-linecap="round" stroke-linejoin="round"/>
<path d="M4.92041 19.4422C4.92041 19.4422 5.57641 22.1142 9.48041 22.8982" stroke="#423232" stroke-width="0.248836" stroke-miterlimit="10" stroke-linecap="round" stroke-linejoin="round"/>
<path d="M11.5684 24.1302L11.2164 24.0982C11.0884 24.0822 10.9924 23.9622 11.0164 23.8342L11.1364 23.2342C11.1684 23.0662 11.3284 22.9462 11.4964 22.9702C11.6644 22.9862 11.8004 23.1302 11.8004 23.3062L11.8084 23.9222C11.8084 24.0422 11.6964 24.1462 11.5684 24.1302Z" fill="white"/>
<path d="M15.2405 23.7622L14.9045 23.8822C14.7765 23.9302 14.6405 23.8502 14.6165 23.7222L14.4725 23.1302C14.4325 22.9622 14.5205 22.7942 14.6885 22.7302C14.8485 22.6742 15.0325 22.7462 15.1045 22.8982L15.3685 23.4502C15.4245 23.5702 15.3685 23.7142 15.2405 23.7622Z" fill="white"/>
<path d="M18.7683 23.5782C18.7683 23.5782 19.2163 26.0902 19.0403 27.5622" stroke="#544D4D" stroke-width="0.248836" stroke-miterlimit="10" stroke-linecap="round" stroke-linejoin="round"/>
<path d="M12.6266 11.9358C12.4346 11.9278 12.2906 11.7678 12.3066 11.5758L12.3146 11.3518C12.3226 11.1598 12.4826 11.0158 12.6746 11.0318C12.8666 11.0398 13.0106 11.1998 12.9946 11.3918L12.9866 11.6158C12.9786 11.7998 12.8186 11.9438 12.6266 11.9358Z" fill="#423232"/>
<path d="M15.9945 12.0558C15.8185 12.0478 15.6825 11.8958 15.6905 11.7198L15.6985 11.5118C15.7065 11.3358 15.8585 11.1998 16.0345 11.2078C16.2105 11.2158 16.3465 11.3678 16.3385 11.5438L16.3305 11.7518C16.3225 11.9278 16.1705 12.0638 15.9945 12.0558Z" fill="#423232"/>
<path d="M13.4026 11.4718C13.4026 11.4718 13.1946 11.1758 12.8346 11.1198C12.5386 11.0718 12.2106 11.2158 12.1626 11.3838" stroke="#423232" stroke-width="0.248836" stroke-miterlimit="10" stroke-linecap="round" stroke-linejoin="round"/>
<path d="M15.7627 11.5438C15.7627 11.5438 15.7627 11.2878 16.1307 11.2878C16.4347 11.2878 16.5627 11.5678 16.5627 11.5678" stroke="#423232" stroke-width="0.248836" stroke-miterlimit="10" stroke-linecap="round" stroke-linejoin="round"/>
<path d="M13.7305 10.1837C13.8985 10.2397 14.0665 10.0877 14.0345 9.90374C14.0185 9.80774 13.9785 9.71174 13.8985 9.63974C13.6585 9.42374 12.6665 9.23174 12.0665 9.51174C11.5385 9.76774 12.9625 9.92774 13.7305 10.1837Z" fill="#423232"/>
<path d="M16.1227 10.3118C15.9867 10.3598 15.8427 10.2158 15.8667 10.0478C15.8747 9.9598 15.9067 9.8718 15.9707 9.8078C16.1627 9.6158 16.8187 9.4638 17.2347 9.7598C17.5947 10.0078 16.7467 10.0798 16.1227 10.3118Z" fill="#423232"/>
<path d="M14.8461 14.7679C14.8544 14.9006 14.7549 15.1329 14.5724 15.2988C13.6351 14.7265 13.2121 15.0251 13.2121 15.0251C12.8803 14.5191 12.9549 13.8307 13.7595 14.3532C14.3235 14.7099 14.6636 14.7679 14.8461 14.7679Z" fill="#423232"/>
<path d="M14.5722 15.2988C14.3731 15.473 14.0745 15.5808 13.6681 15.4149C13.4773 15.3403 13.328 15.191 13.2119 15.0251C13.2119 15.0251 13.6349 14.7265 14.5722 15.2988Z" fill="#FE9DAB"/>
<path d="M15.0036 14.7348C15.0036 14.7348 14.6552 14.9255 13.7594 14.3532C12.6894 13.6648 12.9051 15.108 13.6599 15.4149C14.4479 15.7384 14.8543 15.0334 14.846 14.7679" stroke="#423232" stroke-width="0.248836" stroke-miterlimit="10" stroke-linecap="round" stroke-linejoin="round"/>
<path d="M13.2119 15.0251C13.2119 15.0251 13.6349 14.7265 14.5722 15.2988" stroke="#423232" stroke-width="0.248836" stroke-miterlimit="10" stroke-linecap="round" stroke-linejoin="round"/>
<path d="M17.9853 6.92142C17.4173 8.97742 15.7693 8.63342 14.2253 8.07342C12.1693 7.32142 10.3613 7.92942 10.3533 9.78542C10.3373 12.5054 9.65726 11.6814 9.58526 11.5774C9.40926 11.2414 9.03326 10.8254 8.32126 10.9134C7.38526 11.0334 7.01726 13.0974 8.76126 13.9454C9.06526 15.4894 8.23326 15.3454 8.23326 15.3454C7.95326 14.2094 5.60126 11.7934 5.59326 10.2014C5.59326 8.05742 6.67326 7.44942 6.67326 7.44942C6.70526 5.95342 8.26526 4.30542 10.8893 4.36142C13.5133 4.40942 15.1213 4.33742 15.6333 3.72142C16.1453 3.08943 18.5533 4.86542 17.9853 6.92142Z" fill="#423232"/>
<path d="M18.0493 9.3934C17.9693 9.9134 17.7453 10.3134 17.4333 10.6094C17.5533 9.7374 17.4893 9.3214 17.3853 8.8334C17.1613 7.8334 16.6813 6.9694 15.8813 6.3294C16.2813 6.2974 16.6893 6.3854 17.0573 6.6174C17.0573 6.6094 18.3773 7.1454 18.0493 9.3934Z" fill="#423232"/>
<path d="M8.80917 12.2439C8.80917 12.2439 8.16917 12.1479 8.21717 13.0439C8.24117 13.4999 8.24117 13.7479 8.23317 13.8759C8.22517 13.9639 8.28117 14.0439 8.36117 14.0759C8.45717 14.1159 8.56117 14.0759 8.60917 13.9799C8.68117 13.8519 8.76117 13.6759 8.76117 13.5319C8.76117 13.2919 9.01717 13.0759 9.01717 13.0759C9.01717 13.0759 8.78517 12.8759 8.80917 12.2439Z" fill="white"/>
<path d="M10.7452 27.6679C10.6812 27.5959 8.16922 23.2999 8.54522 21.6839C8.80122 20.5719 8.46522 19.2919 8.16922 18.1639C8.04922 17.6999 7.93722 17.2679 7.87322 16.8839C7.76122 16.2199 7.84122 15.5879 8.11322 15.0039C8.40922 14.3479 8.36122 13.7799 8.36122 13.7719L8.52122 13.7559C8.52122 13.7799 8.56922 14.3799 8.25722 15.0679C8.00122 15.6199 7.92922 16.2279 8.03322 16.8599C8.09722 17.2359 8.20922 17.6679 8.32922 18.1319C8.63322 19.2759 8.96922 20.5799 8.70522 21.7319C8.35322 23.2679 10.8572 27.5639 10.8732 27.5799L10.7452 27.6679Z" fill="white"/>
<path d="M8.24124 13.5079C8.24924 13.6839 8.24124 13.8039 8.24124 13.8759C8.23324 13.9639 8.28924 14.0439 8.36924 14.0759C8.46524 14.1159 8.56924 14.0759 8.61724 13.9799C8.68924 13.8519 8.76924 13.6759 8.76924 13.5319C8.76924 13.5239 8.76924 13.5079 8.76924 13.4999C8.60124 13.5639 8.40924 13.6119 8.24124 13.5079Z" fill="#E5E5E5"/>
<path d="M15.7691 18.8279C15.7131 19.1959 15.7051 19.7799 15.6891 20.4599C15.6651 21.7719 14.8891 26.8839 14.5131 27.6919L14.3691 27.6279C14.7291 26.8439 15.5051 21.7559 15.5291 20.4599C15.5451 19.7799 15.5531 19.1879 15.6091 18.8039C15.7291 17.9959 15.6411 17.3879 15.5931 17.1319C15.6171 17.1079 15.6411 17.0919 15.6651 17.0679C15.6891 17.0519 15.7051 17.0279 15.7291 17.0119C15.7771 17.2199 15.9131 17.8839 15.7691 18.8279Z" fill="white"/>
</g>
</svg>
