<svg width="24" height="25" viewBox="0 0 24 25" fill="none" xmlns="http://www.w3.org/2000/svg">
<path d="M12 24.5C5.36695 24.5 0 19.1251 0 12.5C0 5.86695 5.37492 0.5 12 0.5C18.633 0.5 24 5.87492 24 12.5C24.008 19.133 18.633 24.5 12 24.5Z" fill="#F7A097"/>
<mask id="mask0_55_238" style="mask-type:alpha" maskUnits="userSpaceOnUse" x="0" y="0" width="24" height="25">
<path d="M12 24.5C5.36695 24.5 0 19.1251 0 12.5C0 5.86695 5.37492 0.5 12 0.5C18.633 0.5 24 5.87492 24 12.5C24.008 19.133 18.633 24.5 12 24.5Z" fill="#F7A097"/>
</mask>
<g mask="url(#mask0_55_238)">
<path d="M18.2713 20.7274C18.2197 20.7642 18.1608 20.8011 18.1092 20.8379C18.0502 20.8748 17.9987 20.9116 17.9397 20.9411C17.8882 20.9705 17.844 21 17.7924 21.0295C17.785 21.0368 17.7777 21.0368 17.7703 21.0442C17.6008 21.1473 17.424 21.2431 17.2472 21.3315C17.1956 21.361 17.1367 21.3905 17.0851 21.4126C17.0851 21.4126 17.0778 21.4199 17.0704 21.4199C17.0114 21.4494 16.9525 21.4789 16.8936 21.5083C16.7757 21.5673 16.6504 21.6189 16.5326 21.6704C16.4736 21.6999 16.4073 21.722 16.3484 21.7441C16.2894 21.7662 16.2231 21.7957 16.1642 21.8178C16.1053 21.8399 16.039 21.8694 15.98 21.8915C15.98 21.8915 15.98 21.8915 15.9726 21.8915C15.9137 21.9136 15.8474 21.9357 15.7885 21.9578C15.6558 22.002 15.5159 22.0462 15.3833 22.0904C15.3391 22.1051 15.2875 22.1198 15.2433 22.1346C15.1033 22.1788 14.9633 22.2156 14.8233 22.2451C14.7718 22.2598 14.7202 22.2672 14.6613 22.2819C14.5286 22.3114 14.3887 22.3409 14.256 22.3703C14.2266 22.3777 14.2045 22.3777 14.175 22.3851C14.1308 22.3924 14.0792 22.3998 14.035 22.4072C13.9687 22.4145 13.9098 22.4293 13.8435 22.4366C13.814 22.444 13.7845 22.444 13.7551 22.4514C13.7182 22.4587 13.674 22.4661 13.6298 22.4661C13.5119 22.4808 13.3867 22.4956 13.2688 22.5103C13.232 22.5177 13.1878 22.5177 13.1509 22.525H13.1436C13.092 22.5324 13.0404 22.5324 12.9889 22.5398C12.9373 22.5472 12.8857 22.5472 12.8341 22.5472C12.8047 22.5472 12.7678 22.5545 12.7384 22.5545C12.6794 22.5545 12.6279 22.5619 12.5763 22.5619C12.5026 22.5619 12.4363 22.5693 12.3626 22.5693C12.289 22.5693 12.2227 22.5693 12.149 22.5693C12.0974 22.5693 12.0458 22.5693 11.9943 22.5693C8.8926 22.525 6.09299 21.2063 4.1038 19.114C4.1038 19.114 4.1038 19.1066 4.09644 19.1066C4.32482 18.6572 5.17207 17.8468 6.05616 17.1763C7.176 16.3291 8.75998 15.806 8.75998 15.806C8.75998 15.806 9.79879 15.6366 13.6519 16.4396C16.5915 17.0585 17.844 19.5707 18.2713 20.7274Z" fill="#FEE4BF"/>
<path d="M14.4697 18.4803C14.315 19.2392 13.313 19.6886 11.6259 19.0108C9.55565 18.1709 8.75997 15.806 8.75997 15.806C8.64946 14.1115 8.3916 12.6601 8.3916 12.6601C10.786 12.4538 13.6151 15.2534 13.6151 15.2534L13.9392 16.6385C13.9687 16.7564 14.0276 16.8595 14.1161 16.9332C14.2708 17.1984 14.5728 17.9941 14.4697 18.4803Z" fill="#FEE4BF"/>
<path d="M14.1161 16.9406C12.7089 16.8669 11.6701 16.6606 10.5576 14.6641C11.5006 15.4966 12.6131 15.8134 13.7845 15.9607L13.9392 16.6385C13.9687 16.7638 14.0277 16.8669 14.1161 16.9406Z" fill="#EFBDA5"/>
<path d="M17.0262 8.06287C17.1588 8.68173 17.2251 9.18271 16.8641 10.833C16.5031 12.4833 17.1956 14.1336 15.4569 15.6439C14.2855 16.6606 12.2374 16.8521 10.6018 15.7397C10.0493 15.3639 9.54092 14.8409 9.12835 14.1557C8.80418 13.6179 8.42844 13.1095 8.0085 12.6454C7.42648 12.0118 6.72658 10.7372 7.07285 8.48281C7.63277 4.81386 11.2649 4.39392 13.4088 4.79912C15.5527 5.20433 16.6652 6.42731 17.0262 8.06287Z" fill="#FEE4BF"/>
<path d="M9.97549 10.9435C9.97549 10.9435 9.7471 9.8384 8.67146 9.97101C7.74317 10.0889 7.41901 12.3138 9.52608 12.9327" fill="#FEE4BF"/>
<path d="M9.45983 11.9234C9.45983 11.9234 9.1946 11.7539 9.22407 11.4592C9.26827 11.113 9.22407 10.8993 9.06199 10.833C8.65678 10.6635 8.57574 11.1351 8.59048 11.194" stroke="#423232" stroke-width="0.229158" stroke-miterlimit="10" stroke-linecap="round" stroke-linejoin="round"/>
<path d="M15.0812 12.638C15.0812 12.638 15.3611 12.6528 15.6264 12.336C15.7737 12.1592 15.899 11.9381 15.8179 11.8718C15.7369 11.7982 14.4034 12.0045 14.315 12.1813C14.2266 12.3581 14.7423 12.638 15.0812 12.638Z" fill="#EFBDA5"/>
<path d="M15.3023 10.1626C15.3023 10.1626 15.317 10.8625 15.7664 11.6434C15.9653 11.9897 15.6633 12.557 15.0076 12.6528" stroke="#423232" stroke-width="0.229158" stroke-miterlimit="10" stroke-linecap="round" stroke-linejoin="round"/>
<path opacity="0.42" d="M11.3091 13.0137C11.7282 13.0137 12.068 12.7334 12.068 12.3875C12.068 12.0417 11.7282 11.7613 11.3091 11.7613C10.89 11.7613 10.5503 12.0417 10.5503 12.3875C10.5503 12.7334 10.89 13.0137 11.3091 13.0137Z" fill="#F2A5B2"/>
<path opacity="0.42" d="M16.7462 11.7761C16.7241 12.1886 16.7315 12.5938 16.702 12.999C16.3778 12.9254 16.1421 12.6822 16.1421 12.3949C16.1421 12.0855 16.3999 11.835 16.7462 11.7761Z" fill="#F2A5B2"/>
<path d="M14.2722 17.2452C14.2722 17.2452 13.1671 17.5694 11.6346 17.0684C10.1022 16.5674 8.60665 15.2487 8.60665 15.2487C8.60665 15.2487 8.1204 15.256 7.93622 15.6244C7.7594 15.9928 7.76677 16.7516 7.4868 16.9579C7.4205 17.0021 7.23631 17.0537 6.96372 17.1273C6.52168 17.2526 5.86598 17.4441 5.20292 17.8199C4.7093 18.0998 4.20832 18.4756 3.78838 18.9913C3.59683 19.227 3.42738 19.4923 3.28003 19.7943C2.11599 22.1593 2.61697 25.4746 2.61697 25.4746H20.6228C20.6228 25.4746 20.0998 21.3783 18.9725 20.0301C17.8453 18.6819 15.6941 17.5915 15.0605 17.3042V16.8768C15.0678 16.8768 14.6774 17.1347 14.2722 17.2452Z" fill="#48D89E"/>
<mask id="mask1_55_238" style="mask-type:alpha" maskUnits="userSpaceOnUse" x="2" y="15" width="19" height="11">
<path d="M14.2722 17.2452C14.2722 17.2452 13.1671 17.5694 11.6346 17.0684C10.1022 16.5674 8.60665 15.2487 8.60665 15.2487C8.60665 15.2487 8.1204 15.256 7.93622 15.6244C7.7594 15.9928 7.76677 16.7516 7.4868 16.9579C7.4205 17.0021 7.23631 17.0537 6.96372 17.1273C6.52168 17.2526 5.86598 17.4441 5.20292 17.8199C4.7093 18.0998 4.20832 18.4756 3.78838 18.9913C3.59683 19.227 3.42738 19.4923 3.28003 19.7943C2.11599 22.1593 2.61697 25.4746 2.61697 25.4746H20.6228C20.6228 25.4746 20.0998 21.3783 18.9725 20.0301C17.8453 18.6819 15.6941 17.5915 15.0605 17.3042V16.8768C15.0678 16.8768 14.6774 17.1347 14.2722 17.2452Z" fill="#6AAED9"/>
</mask>
<g mask="url(#mask1_55_238)">
<path d="M5.51971 20.0596C5.95101 20.0596 6.30065 19.7099 6.30065 19.2786C6.30065 18.8473 5.95101 18.4977 5.51971 18.4977C5.08841 18.4977 4.73877 18.8473 4.73877 19.2786C4.73877 19.7099 5.08841 20.0596 5.51971 20.0596Z" fill="#FCED7E"/>
<path d="M9.96234 19.6985C10.3936 19.6985 10.7433 19.3489 10.7433 18.9176C10.7433 18.4863 10.3936 18.1367 9.96234 18.1367C9.53104 18.1367 9.1814 18.4863 9.1814 18.9176C9.1814 19.3489 9.53104 19.6985 9.96234 19.6985Z" fill="#FCED7E"/>
<path d="M13.3217 18.0409C13.753 18.0409 14.1027 17.6912 14.1027 17.2599C14.1027 16.8286 13.753 16.479 13.3217 16.479C12.8904 16.479 12.5408 16.8286 12.5408 17.2599C12.5408 17.6912 12.8904 18.0409 13.3217 18.0409Z" fill="#FCED7E"/>
<path d="M8.57708 23.5222C9.00839 23.5222 9.35803 23.1726 9.35803 22.7413C9.35803 22.31 9.00839 21.9603 8.57708 21.9603C8.14578 21.9603 7.79614 22.31 7.79614 22.7413C7.79614 23.1726 8.14578 23.5222 8.57708 23.5222Z" fill="#FCED7E"/>
<path d="M17.6686 23.1244C18.0999 23.1244 18.4496 22.7747 18.4496 22.3434C18.4496 21.9121 18.0999 21.5625 17.6686 21.5625C17.2373 21.5625 16.8877 21.9121 16.8877 22.3434C16.8877 22.7747 17.2373 23.1244 17.6686 23.1244Z" fill="#FCED7E"/>
<path d="M13.3659 22.4908C13.7972 22.4908 14.1468 22.1411 14.1468 21.7098C14.1468 21.2785 13.7972 20.9289 13.3659 20.9289C12.9346 20.9289 12.585 21.2785 12.585 21.7098C12.585 22.1411 12.9346 22.4908 13.3659 22.4908Z" fill="#FCED7E"/>
<path d="M17.0644 19.3228C17.4957 19.3228 17.8453 18.9732 17.8453 18.5419C17.8453 18.1106 17.4957 17.7609 17.0644 17.7609C16.6331 17.7609 16.2834 18.1106 16.2834 18.5419C16.2834 18.9732 16.6331 19.3228 17.0644 19.3228Z" fill="#FCED7E"/>
</g>
<path d="M15.0679 17.3042C15.0679 17.3042 15.1637 17.9672 14.9943 18.343C14.7217 18.9618 12.8283 19.6691 10.537 18.844C8.71727 18.1883 7.82581 17.2821 7.80371 17.1421" stroke="#329369" stroke-width="0.229158" stroke-miterlimit="10" stroke-linecap="round" stroke-linejoin="round"/>
<path d="M9.18131 16.0001C9.14448 16.0443 9.10764 16.1033 9.07817 16.1769C8.97503 16.4274 8.94556 16.9505 8.94556 16.9505" stroke="#329369" stroke-width="0.229158" stroke-miterlimit="10" stroke-linecap="round" stroke-linejoin="round"/>
<path d="M10.4264 16.759C10.397 16.8179 10.3675 16.8842 10.3528 16.9579C10.3159 17.1494 10.2717 17.7536 10.2717 17.7536" stroke="#329369" stroke-width="0.229158" stroke-miterlimit="10" stroke-linecap="round" stroke-linejoin="round"/>
<path d="M11.6789 17.2747C11.6641 17.3336 11.6494 17.4073 11.642 17.4957C11.6273 17.5988 11.6347 18.225 11.6347 18.225" stroke="#329369" stroke-width="0.229158" stroke-miterlimit="10" stroke-linecap="round" stroke-linejoin="round"/>
<path d="M13.0198 17.5694C13.0345 17.7388 13.0419 17.9746 13.0198 18.2619" stroke="#329369" stroke-width="0.229158" stroke-miterlimit="10" stroke-linecap="round" stroke-linejoin="round"/>
<path d="M14.147 17.5104C14.1691 17.6504 14.1912 17.842 14.1985 18.0851" stroke="#329369" stroke-width="0.229158" stroke-miterlimit="10" stroke-linecap="round" stroke-linejoin="round"/>
<path d="M8.37818 15.2781C8.20136 15.3444 7.96561 15.5213 7.8772 16.037" stroke="#329369" stroke-width="0.229158" stroke-miterlimit="10" stroke-linecap="round" stroke-linejoin="round"/>
<path d="M15.9372 17.7388C15.5615 17.5325 15.2521 17.3852 15.0679 17.3041V16.8768" stroke="#329369" stroke-width="0.229158" stroke-miterlimit="10" stroke-linecap="round" stroke-linejoin="round"/>
<path d="M13.6819 9.32284C13.842 9.34494 13.9657 9.17549 13.9075 9.01341C13.8784 8.925 13.8274 8.84396 13.7474 8.79239C13.5 8.63767 12.5761 8.62294 12.0886 8.97657C11.6594 9.30074 12.9544 9.2197 13.6819 9.32284Z" fill="#423232"/>
<path d="M15.6971 9.4039C15.5662 9.4039 15.4862 9.23446 15.5516 9.09448C15.588 9.0208 15.6389 8.9545 15.7117 8.91766C15.9372 8.80715 16.5411 8.87345 16.8103 9.24919C17.0503 9.58072 16.301 9.39654 15.6971 9.4039Z" fill="#423232"/>
<path d="M13.4272 10.2511C12.9616 10.0154 12.2268 10.1922 12.2268 10.1922" stroke="#423232" stroke-width="0.229158" stroke-miterlimit="10" stroke-linecap="round" stroke-linejoin="round"/>
<path d="M16.3012 10.3985C16.3012 10.3985 16.112 10.1922 15.4136 10.3543" stroke="#423232" stroke-width="0.229158" stroke-miterlimit="10" stroke-linecap="round" stroke-linejoin="round"/>
<path d="M14.891 13.5449C14.7001 13.6289 14.6084 13.4608 14.3105 13.606C14.0966 13.7053 13.982 13.7358 13.7223 13.5831C13.5543 13.4761 13.348 13.6289 13.1494 13.3386" stroke="#423232" stroke-width="0.229158" stroke-miterlimit="10" stroke-linecap="round" stroke-linejoin="round"/>
<path d="M18.8953 16.2689C18.4827 15.3553 18.1659 15.4806 18.4532 14.6554C18.7405 13.8377 18.3722 13.2556 17.6133 12.4821C16.8913 11.7453 16.8177 10.9423 16.8398 10.8244C16.7734 11.1338 16.744 11.4506 16.7292 11.7601C16.7071 12.1726 16.7145 12.5778 16.685 12.983C16.6261 13.8892 16.4124 14.7807 15.44 15.6206C15.0126 15.9889 14.4675 16.2542 13.8633 16.3794C13.7012 16.873 13.9444 17.2267 14.4748 17.2856C15.0053 17.3445 15.2263 18.1402 16.4272 18.5159C18.2248 19.098 19.3078 17.1824 18.8953 16.2689Z" fill="#423232"/>
<path d="M15.5357 7.35434C15.6905 7.43538 15.8231 7.36171 15.9041 7.19963C16.7587 7.06701 16.9576 8.77624 16.9871 8.87939C17.0166 8.9899 17.0313 9.29933 16.9724 10.1466C16.9355 10.6181 19.6762 7.2733 17.1713 5.85876C17.3555 5.58617 17.2229 4.23057 15.6831 3.89904C15.1305 3.78116 14.4085 4.29688 13.5023 4.09796C9.95864 3.30965 6.28232 4.06112 6.56964 8.73941C6.63595 9.76347 6.70226 10.8686 4.96356 11.6053C2.94489 12.4599 3.04804 14.6922 4.46994 15.149C5.05933 15.3406 3.11434 16.6667 4.24892 17.8455C4.83831 18.4643 5.89184 17.2119 6.96011 17.8897C8.57357 18.9138 9.37662 18.4496 9.69341 18.0444C10.3417 17.2193 9.5387 15.5616 9.5387 15.5616C9.5387 15.5616 9.8555 15.0532 9.95864 14.7807C10.4596 13.4398 9.2661 12.8357 9.2661 12.8357C7.42426 12.1284 7.75579 10.0729 8.65461 9.95502C9.59764 9.83715 9.89233 10.677 9.9439 10.8833C9.9439 10.8833 10.7764 12.0326 12.3825 9.40984C13.9739 6.78705 14.8432 6.9786 15.5357 7.35434Z" fill="#423232"/>
<path d="M8.95093 12.3649V13.6174" stroke="#FFDE55" stroke-width="0.229158" stroke-miterlimit="10" stroke-linecap="round" stroke-linejoin="round"/>
<path d="M9.94553 15.2971C9.74661 15.496 9.47402 15.6213 9.16459 15.6213C8.56783 15.6213 8.07422 15.135 8.07422 14.5309C8.07422 13.9342 8.56047 13.4406 9.16459 13.4406C9.46665 13.4406 9.74661 13.5658 9.94553 13.7647C9.81292 13.691 9.66557 13.6468 9.50349 13.6468C9.01724 13.6468 8.61941 14.0447 8.61941 14.5309C8.61941 15.0172 9.01724 15.415 9.50349 15.415C9.66557 15.4224 9.81292 15.3782 9.94553 15.2971Z" fill="#FFDE55"/>
<path d="M8.95103 14.973C9.1911 14.973 9.38571 14.7784 9.38571 14.5383C9.38571 14.2982 9.1911 14.1036 8.95103 14.1036C8.71097 14.1036 8.51636 14.2982 8.51636 14.5383C8.51636 14.7784 8.71097 14.973 8.95103 14.973Z" fill="#FF6B57"/>
<path d="M17.3573 13.7794C17.2247 13.7058 17.0773 13.6616 16.9152 13.6616C16.7974 13.6616 16.6942 13.6837 16.5911 13.7279C16.6058 13.6395 16.6279 13.5511 16.6353 13.4626C16.9226 13.47 17.1731 13.5879 17.3573 13.7794Z" fill="#FFDE55"/>
<path d="M17.3645 15.2971C17.1655 15.4961 16.8929 15.6213 16.5835 15.6213C16.2741 15.6213 15.9868 15.4887 15.7878 15.275C15.9057 15.1424 16.0089 15.0098 16.1046 14.8772C16.2373 15.194 16.554 15.4076 16.915 15.4076C17.0771 15.4224 17.2318 15.3782 17.3645 15.2971Z" fill="#FFDE55"/>
<path d="M16.8046 14.5383C16.8046 14.7814 16.613 14.973 16.3699 14.973C16.2741 14.973 16.1857 14.9435 16.1121 14.8846C16.2815 14.6341 16.4068 14.3762 16.4878 14.1257C16.6646 14.1699 16.8046 14.3394 16.8046 14.5383Z" fill="#FF6B57"/>
</g>
</svg>
